<?xml version="1.0" encoding="utf-8"?>
<svg viewBox="299.7 202.2 72.2 72.2" width="71px" height="52.0553" xmlns="http://www.w3.org/2000/svg">
  <defs>
    <style>.cls-1{fill:none;stroke:#000;stroke-linejoin:round;stroke-width:1.5px;}.cls-2{fill:#231f20;}</style>
  </defs>
  <path d="M 303.828 258.42 C 303.247 258.425 302.845 257.841 303.058 257.3 L 307.108 246.8 C 305.091 243.306 304.029 239.344 304.028 235.31 C 304.031 217.389 323.434 206.192 338.952 215.156 C 347.262 219.956 351.775 229.364 350.318 238.85 C 350.258 239.252 349.914 239.549 349.508 239.55 L 337.988 239.55 C 337.436 239.55 336.988 239.998 336.988 240.55 L 336.988 255.81 C 336.99 256.141 336.793 256.441 336.488 256.57 C 329.23 259.649 320.909 258.871 314.348 254.5 L 304.118 258.42 C 304.022 258.437 303.924 258.437 303.828 258.42 Z M 314.438 252.74 C 314.606 252.741 314.77 252.794 314.908 252.89 C 320.892 257.041 328.555 257.927 335.328 255.25 L 335.328 240.55 C 335.333 239.085 336.523 237.9 337.988 237.9 L 348.798 237.9 C 350.755 221.365 334.078 208.911 318.78 215.484 C 310.852 218.89 305.707 226.682 305.688 235.31 C 305.685 239.186 306.739 242.989 308.738 246.31 C 308.868 246.528 308.89 246.794 308.798 247.03 L 305.268 256.18 L 314.148 252.8 C 314.243 252.779 314.341 252.776 314.438 252.79 L 314.438 252.74 Z"/>
  <path class="cls-1" d="M 323.318 240.61 C 322.688 234.39 328.788 233.36 329.058 228.81 C 329.138 227.34 327.668 226.63 326.368 226.63 C 324.848 226.544 323.592 227.8 323.678 229.32 L 317.728 229.32 C 317.608 223.42 321.608 220.45 326.518 220.32 C 332.298 220.2 335.868 224.04 335.868 228.68 C 335.868 234.54 330.008 235.89 330.328 240.6 L 323.328 240.6 L 323.318 240.61 Z M 322.878 246.81 C 322.887 244.659 324.735 242.977 326.878 243.17 C 328.982 243.01 330.765 244.7 330.718 246.81 C 330.744 248.899 328.959 250.554 326.878 250.37 C 324.628 250.42 322.878 248.99 322.878 246.81 Z"/>
  <path d="M 360.268 264.09 C 360.031 264.09 359.805 263.988 359.648 263.81 L 356.798 260.55 L 337.988 260.55 C 336.523 260.55 335.333 259.365 335.328 257.9 L 335.328 240.59 C 335.333 239.125 336.523 237.94 337.988 237.94 L 366.288 237.94 C 367.749 237.945 368.932 239.129 368.938 240.59 L 368.938 257.9 C 368.932 259.361 367.749 260.545 366.288 260.55 L 363.728 260.55 L 360.878 263.81 C 360.723 263.985 360.502 264.087 360.268 264.09 Z M 337.988 239.59 C 337.436 239.59 336.988 240.038 336.988 240.59 L 336.988 257.9 C 336.988 258.452 337.436 258.9 337.988 258.9 L 357.168 258.9 C 357.405 258.9 357.631 259.002 357.788 259.18 L 360.268 262.01 L 362.748 259.18 C 362.905 259.002 363.131 258.9 363.368 258.9 L 366.288 258.9 C 366.84 258.9 367.288 258.452 367.288 257.9 L 367.288 240.59 C 367.288 240.038 366.84 239.59 366.288 239.59 L 337.988 239.59 Z"/>
  <path d="M 359.608 251.86 C 357.152 251.86 355.617 249.202 356.845 247.075 C 358.073 244.948 361.143 244.948 362.37 247.075 C 362.65 247.56 362.798 248.11 362.798 248.67 C 362.798 250.432 361.37 251.86 359.608 251.86 Z M 359.608 247.13 C 358.422 247.13 357.681 248.413 358.274 249.44 C 358.867 250.467 360.349 250.467 360.942 249.44 C 361.077 249.206 361.148 248.94 361.148 248.67 C 361.148 247.819 360.458 247.13 359.608 247.13 Z"/>
  <path d="M 352.138 251.86 C 349.682 251.86 348.147 249.202 349.375 247.075 C 350.603 244.948 353.673 244.948 354.9 247.075 C 355.18 247.56 355.328 248.11 355.328 248.67 C 355.328 250.432 353.9 251.86 352.138 251.86 Z M 352.138 247.13 C 350.952 247.13 350.211 248.413 350.804 249.44 C 351.397 250.467 352.879 250.467 353.472 249.44 C 353.607 249.206 353.678 248.94 353.678 248.67 C 353.678 247.819 352.988 247.13 352.138 247.13 Z"/>
  <path d="M 344.658 251.86 C 342.202 251.86 340.667 249.202 341.895 247.075 C 343.123 244.948 346.193 244.948 347.42 247.075 C 347.7 247.56 347.848 248.11 347.848 248.67 C 347.848 250.432 346.42 251.86 344.658 251.86 Z M 344.658 247.13 C 343.472 247.13 342.731 248.413 343.324 249.44 C 343.917 250.467 345.399 250.467 345.992 249.44 C 346.127 249.206 346.198 248.94 346.198 248.67 C 346.198 247.819 345.508 247.13 344.658 247.13 Z"/>
</svg>