<?xml version="1.0" encoding="utf-8"?>
<svg viewBox="0 204.8 72.2 72.2" width="64.02" height="47.0847" xmlns="http://www.w3.org/2000/svg">
  <defs>
    <style>.cls-1{fill:none;stroke:#000;stroke-linejoin:round;stroke-width:1.5px;}.cls-2{fill:#231f20;}</style>
  </defs>
  <path d="M 36.01 265.085 C 33.808 265.098 31.907 263.545 31.48 261.385 L 4.82 261.385 C 4.367 261.385 4 261.018 4 260.565 L 4 223.565 C 4 223.112 4.367 222.745 4.82 222.745 L 8.82 222.745 C 9.273 222.745 9.64 223.112 9.64 223.565 L 9.64 255.995 L 32.23 255.995 C 33.73 255.991 35.139 256.714 36.01 257.935 C 36.881 256.714 38.29 255.991 39.79 255.995 L 62.38 255.995 L 62.38 223.605 C 62.38 223.152 62.747 222.785 63.2 222.785 L 67.2 222.785 C 67.653 222.785 68.02 223.152 68.02 223.605 L 68.02 260.605 C 68.02 261.058 67.653 261.425 67.2 261.425 L 40.54 261.425 C 40.096 263.569 38.2 265.102 36.01 265.085 Z M 5.64 259.735 L 32.23 259.735 C 32.683 259.735 33.05 260.102 33.05 260.555 C 33.448 262.83 36.16 263.82 37.931 262.338 C 38.473 261.883 38.838 261.252 38.96 260.555 C 38.96 260.102 39.327 259.735 39.78 259.735 L 66.37 259.735 L 66.37 224.435 L 64.03 224.435 L 64.03 256.865 C 64.03 257.318 63.663 257.685 63.21 257.685 L 39.79 257.685 C 38.162 257.64 36.812 258.936 36.79 260.565 C 36.79 261.2 36.103 261.597 35.553 261.279 C 35.297 261.132 35.14 260.86 35.14 260.565 C 35.118 258.936 33.768 257.64 32.14 257.685 L 8.82 257.685 C 8.367 257.685 8 257.318 8 256.865 L 8 224.435 L 5.64 224.435 L 5.64 259.745 L 5.64 259.735 Z"/>
  <path d="M 36.01 261.385 C 35.557 261.385 35.19 261.018 35.19 260.565 C 35.168 258.936 33.818 257.64 32.19 257.685 L 8.82 257.685 C 8.367 257.685 8 257.318 8 256.865 L 8 221.285 C 8 220.832 8.367 220.465 8.82 220.465 L 36.01 220.465 C 36.463 220.465 36.83 220.832 36.83 221.285 L 36.83 260.565 C 36.83 261.018 36.463 261.385 36.01 261.385 Z M 9.64 256.035 L 32.23 256.035 C 33.324 256.023 34.387 256.398 35.23 257.095 L 35.23 222.095 L 9.64 222.095 L 9.64 256.025 L 9.64 256.035 Z"/>
  <path d="M 36.01 261.385 C 35.557 261.385 35.19 261.018 35.19 260.565 L 35.19 221.285 C 35.19 220.832 35.557 220.465 36.01 220.465 L 49.61 220.465 L 49.61 222.115 L 36.84 222.115 L 36.84 257.115 C 37.683 256.418 38.746 256.043 39.84 256.055 L 62.38 256.055 L 62.38 222.105 L 54.85 222.105 L 54.85 220.455 L 63.21 220.455 C 63.663 220.455 64.03 220.822 64.03 221.275 L 64.03 256.855 C 64.03 257.308 63.663 257.675 63.21 257.675 L 39.79 257.675 C 38.162 257.63 36.812 258.926 36.79 260.555 C 36.796 260.997 36.451 261.363 36.01 261.385 Z"/>
  <rect x="17.23" y="225.375" width="10.19" height="1.65"/>
  <rect x="13.37" y="234.035" width="17.91" height="1.65"/>
  <rect x="13.37" y="239.185" width="17.91" height="1.65"/>
  <rect x="13.37" y="244.335" width="17.91" height="1.65"/>
  <rect x="13.37" y="249.485" width="17.91" height="1.65"/>
  <rect x="40.65" y="234.035" width="8.96" height="1.65"/>
  <rect x="40.65" y="228.665" width="8.96" height="1.65"/>
  <rect x="40.65" y="239.185" width="8.96" height="1.65"/>
  <rect x="40.65" y="244.335" width="17.91" height="1.65"/>
  <rect x="40.65" y="249.485" width="17.91" height="1.65"/>
  <rect x="54.85" y="228.665" width="3.72" height="1.65"/>
  <rect x="54.85" y="234.035" width="3.72" height="1.65"/>
  <rect x="54.85" y="239.185" width="3.72" height="1.65"/>
  <path d="M 49.61 222.105 L 44.7 222.105 C 44.247 222.105 43.88 221.738 43.88 221.285 C 43.88 218.76 46.613 217.182 48.8 218.444 C 49.815 219.03 50.44 220.113 50.44 221.285 C 50.44 221.742 50.067 222.111 49.61 222.105 Z M 45.75 220.455 L 48.56 220.455 C 47.93 219.383 46.38 219.383 45.75 220.455 Z"/>
  <path d="M 54.85 243.675 C 54.757 243.691 54.663 243.691 54.57 243.675 L 52.23 242.805 L 49.89 243.655 C 49.352 243.858 48.778 243.46 48.78 242.885 L 48.78 221.285 C 48.78 220.385 48.05 219.655 47.15 219.655 C 46.515 219.655 46.118 218.967 46.436 218.417 C 46.583 218.162 46.855 218.005 47.15 218.005 L 52.39 218.005 C 54.201 218.005 55.67 219.474 55.67 221.285 L 55.67 242.805 C 55.699 243.277 55.323 243.676 54.85 243.675 Z M 50 219.675 C 50.284 220.171 50.432 220.733 50.43 221.305 L 50.43 241.695 L 51.94 241.145 C 52.121 241.079 52.319 241.079 52.5 241.145 L 54.01 241.695 L 54.01 221.285 C 54.01 220.385 53.28 219.655 52.38 219.655 L 49.98 219.655 L 50 219.675 Z"/>
</svg>