<?xml version="1.0" encoding="utf-8"?>
<svg id="Layer_1" data-name="Layer 1" width="457.13" height="341.27" viewBox="0 0 457.13 341.27" xmlns="http://www.w3.org/2000/svg">
  <defs>
    <style>.cls-1{fill:none;stroke:#000;stroke-linejoin:round;stroke-width:1.5px;}.cls-2{fill:#231f20;}</style>
  </defs>
  <title>sprit_fixed_size</title>
  <rect x="72.66" y="66.15" width="5.49" height="1.65" transform="translate(-61.19 60.02) rotate(-57.39)"/>
  <path d="M86.59,69.15a0.82,0.82,0,0,1-.32-0.07l-3-1.27-3,1.27a0.82,0.82,0,0,1-1-.22l-3.12-3.68a0.82,0.82,0,0,1-.06-1L82.11,55a0.82,0.82,0,0,1,.69-0.38h0a0.82,0.82,0,0,1,.69.38l6.1,9.53a0.82,0.82,0,0,1,0,.91l-2.31,3.38A0.82,0.82,0,0,1,86.59,69.15Zm-8.7-4.57,2.34,2.75L83,66.16a0.82,0.82,0,0,1,.65,0l2.68,1.14,1.62-2.37-5.11-8Z" transform="translate(-39.54 -34.38)"/>
  <path d="M71.56,94.1a31.2,31.2,0,0,1-18.24-5.84A31.62,31.62,0,0,1,43.4,76.61a0.82,0.82,0,0,1,0-.81l9-14a0.8,0.8,0,0,1,.7-0.38,0.82,0.82,0,0,1,.69.39l2.41,3.94,4.22-3.13a0.83,0.83,0,0,1,.84-0.09l4.17,1.92,2.78-3.59a0.82,0.82,0,0,1,1.35.06L87.5,88.76a0.82,0.82,0,0,1-.28,1.16A30.74,30.74,0,0,1,71.56,94.1ZM45.09,76.29a30,30,0,0,0,9.2,10.63,29.56,29.56,0,0,0,17.28,5.54,29.12,29.12,0,0,0,14.07-3.54L68.83,62.77,66.36,66a0.83,0.83,0,0,1-1,.24l-4.32-2-4.55,3.37a0.82,0.82,0,0,1-1.19-.23l-2.2-3.58Z" transform="translate(-39.54 -34.38)"/>
  <path d="M56,67.74l-0.16,0a0.83,0.83,0,0,1-.55-0.38l-2.88-4.7a0.82,0.82,0,0,1,0-.88L60.57,49a0.83,0.83,0,0,1,.69-0.38h0A0.83,0.83,0,0,1,62,49l7.63,11.86a0.82,0.82,0,0,1,0,1L66.36,66a0.83,0.83,0,0,1-1,.24l-4.32-2-4.55,3.37A0.82,0.82,0,0,1,56,67.74Zm-1.91-5.52,2.14,3.5,4.22-3.13a0.83,0.83,0,0,1,.84-0.09l4.17,1.92,2.42-3.13L61.26,51Z" transform="translate(-39.54 -34.38)"/>
  <path d="M89.8,88.26l-1-1.34a29.74,29.74,0,0,0,7.85-8.27L88.21,65.39l1.39-.89,8.76,13.7a0.82,0.82,0,0,1,0,.87A31.39,31.39,0,0,1,89.8,88.26Z" transform="translate(-39.54 -34.38)"/>
  <path d="M71.56,94.1a31.2,31.2,0,0,1-18.24-5.84A31.62,31.62,0,0,1,43.4,76.61l1.48-.73a30,30,0,0,0,9.41,11,29.56,29.56,0,0,0,17.28,5.54V94.1Z" transform="translate(-39.54 -34.38)"/>
  <path d="M71.56,94.1a31.2,31.2,0,0,1-18.24-5.84l1-1.34a29.73,29.73,0,0,0,34.55,0l1,1.34A31.19,31.19,0,0,1,71.56,94.1Z" transform="translate(-39.54 -34.38)"/>
  <path d="M43.4,76.61a31.1,31.1,0,0,1-3.25-13.91c0-.67,0-1.36.07-2.05l1.65,0.1c0,0.66-.06,1.31-0.06,1.95a29.46,29.46,0,0,0,3.08,13.18Z" transform="translate(-39.54 -34.38)"/>
  <path d="M42.14,58.22L40.51,58a31.49,31.49,0,0,1,.9-4.08L43,54.36A29.84,29.84,0,0,0,42.14,58.22Z" transform="translate(-39.54 -34.38)"/>
  <path d="M96.65,46.68a30,30,0,0,0-4.53-5.51L93.26,40A31.6,31.6,0,0,1,98,45.79Z" transform="translate(-39.54 -34.38)"/>
  <path d="M98.37,79.07L97,78.21A29.8,29.8,0,0,0,98.2,49.4l1.47-.74A31.45,31.45,0,0,1,98.37,79.07Z" transform="translate(-39.54 -34.38)"/>
  <path d="M60.57,175.14a0.83,0.83,0,0,1-.44-0.12,14.2,14.2,0,0,1-2-1.44l1.08-1.21a6.33,6.33,0,0,1,.4-4.37,16.31,16.31,0,0,1,1.13-1.83c0.85-1.25,1.9-2.8,1.77-3.89-0.33-2.85-1-2.87-2.27-2.92a4,4,0,0,1-2.67-.83c-1.19-1-3.17-2.72-3.54-4.79-0.09-.53-0.2-3.92.51-4.81l0.32-.4a7.89,7.89,0,0,0,.91-1.33,1.31,1.31,0,0,1,.89-0.66,2.66,2.66,0,0,1,2,.84,3.71,3.71,0,0,0,1.32.77,3.43,3.43,0,0,0,.47-0.61,3.59,3.59,0,0,1,1.19-1.26c0.63-.34.62-3.1,0.12-4.13a3.81,3.81,0,0,0-.4-0.63,1.86,1.86,0,0,1-.05-2.52,3,3,0,0,1,1-.91l0.16-.1a1.51,1.51,0,0,0-.05-0.25,6.75,6.75,0,0,0-.67-1.07,9,9,0,0,1-.61-0.94,2.86,2.86,0,0,1-.24-0.81l0-.16,1.61-.35,0,0.2a2,2,0,0,0,.09.35,8.56,8.56,0,0,0,.49.74,6.15,6.15,0,0,1,.91,1.56,1.68,1.68,0,0,1-.84,2.22,1.4,1.4,0,0,0-.51.42,1,1,0,0,0-.19.36l0.19,0.26a5.42,5.42,0,0,1,.56.89c0.65,1.34,1,5.31-.83,6.3a2.69,2.69,0,0,0-.6.73,2.3,2.3,0,0,1-1.8,1.34h0a4.16,4.16,0,0,1-2.35-1.11c-0.18-.13-0.42-0.32-0.6-0.43a8.66,8.66,0,0,1-.92,1.32l-0.28.35a12.22,12.22,0,0,0-.2,3.53c0.26,1.49,2,3,3,3.82a2.48,2.48,0,0,0,1.66.43c1.84,0.07,3.39.46,3.84,4.38,0.2,1.7-1,3.46-2,5a15.37,15.37,0,0,0-1,1.63c-0.73,1.49-.41,2.79,0,4.43,0.08,0.32.16,0.65,0.24,1A0.82,0.82,0,0,1,60.57,175.14Z" transform="translate(-39.54 -34.38)"/>
  <path d="M76.27,173.66a2.9,2.9,0,0,1-2.32-1.39c-1.16-1.57-1.09-3.65-1-5.67a12.8,12.8,0,0,0-.11-3c-0.45-2-1.43-2.28-3.92-2.46-3.21-.23-4-1.92-4.25-2.9-0.52-2.48,1.72-5.72,4.06-7a4.16,4.16,0,0,1,.84-0.32,6.09,6.09,0,0,1,2.5-.14,2.86,2.86,0,0,1,1.83,1,3.43,3.43,0,0,0,.53.49,3.41,3.41,0,0,0,2,0A4.87,4.87,0,0,0,79.22,151a1.13,1.13,0,0,0,0-.72,1.29,1.29,0,0,0-.41-0.68,2.83,2.83,0,0,0-1.44.21,5.11,5.11,0,0,1-1.72.31,3.85,3.85,0,0,1-2-1,2.28,2.28,0,0,0-1.21-.64,3.82,3.82,0,0,0-1.1.53,6.31,6.31,0,0,1-1.43.7,2.33,2.33,0,0,1-1.34,0,1.47,1.47,0,0,1-1.16-1.09c-0.21-1,.8-1.9,1.9-2.85a1.86,1.86,0,0,1-1.26-.95,2,2,0,0,1,.48-2.09c1-1.31,2.73-.67,3.65-0.33l0.18,0.07a5.86,5.86,0,0,0,.3-0.62,3.75,3.75,0,0,1,1.69-2,5.69,5.69,0,0,1,4-.38,8.7,8.7,0,0,0,1.71.16,8.53,8.53,0,0,0,4-1.85c1.82-1.23,3.7-2.5,6-2l-0.32,1.62c-1.64-.32-3.15.71-4.76,1.79a9.8,9.8,0,0,1-4.8,2.13,10.23,10.23,0,0,1-2-.18,4.35,4.35,0,0,0-2.9.16,2.14,2.14,0,0,0-1,1.25,6,6,0,0,1-.75,1.34c-0.46.61-1.18,0.34-1.82,0.11s-1.51-.56-1.77-0.21a1.84,1.84,0,0,0-.24.39,5,5,0,0,0,1.57.22,0.83,0.83,0,0,1,.67,1.26,7,7,0,0,1-1.35,1.34,13,13,0,0,0-1.29,1.2,1,1,0,0,0,.25,0,5.23,5.23,0,0,0,1-.53,4.78,4.78,0,0,1,1.72-.75,3.33,3.33,0,0,1,2.43,1,2.79,2.79,0,0,0,1.14.65,4.52,4.52,0,0,0,1.16-.24,3.61,3.61,0,0,1,2.63-.11,2.73,2.73,0,0,1,1.25,1.69,2.6,2.6,0,0,1-.12,2c-0.65,1.11-2.41,1.83-3.85,2.13-0.86.18-2.43,0.39-3.34-.26a5,5,0,0,1-.77-0.71,1.25,1.25,0,0,0-.89-0.53,4.54,4.54,0,0,0-1.8.11,2.54,2.54,0,0,0-.51.19c-1.95,1-3.54,3.58-3.21,5.15,0.2,0.94,1.12,1.48,2.75,1.59,2.18,0.16,4.66.33,5.41,3.75a14.13,14.13,0,0,1,.14,3.45c-0.07,1.73-.13,3.52.69,4.62a1.34,1.34,0,0,0,1.07.72c1.54-.18,3.43-4.65,4.24-6.55,0.28-.67.5-1.19,0.68-1.5l0.22-.41c1-1.78,2-3.62,1.34-5.46-0.07-.12-0.29-0.48-0.45-0.72-0.63-1-.74-1.17-0.49-1.61a0.88,0.88,0,0,1,.51-0.43,1.14,1.14,0,0,1,.91.13l0.08,0H84a2.8,2.8,0,0,0,1-.1,1.53,1.53,0,0,0,.11-1,6,6,0,0,0-.22-1.09c-0.18-.7-0.37-1.43.27-1.83s1.4,0.19,1.93.64a10.67,10.67,0,0,1,1.59,2c0.74,1.09,1.67,2.44,2.43,2.56,0.49,0.08,1.61-.9,2.21-1.43,0.34-.29.65-0.57,0.93-0.76a5.39,5.39,0,0,0,1.43-2.35,8.18,8.18,0,0,1,1.57-2.73l1.16,1.17a6.94,6.94,0,0,0-1.22,2.19,6.56,6.56,0,0,1-2,3.07c-0.2.14-.49,0.39-0.79,0.65-1,.89-2.3,2-3.54,1.81-1.48-.22-2.58-1.84-3.55-3.26-0.19-.28-0.38-0.56-0.57-0.82v0.08a2.78,2.78,0,0,1-.56,2.18,2.63,2.63,0,0,1-2.06.61,2,2,0,0,1,.17.33c0.94,2.57-.32,4.86-1.43,6.88l-0.22.4c-0.13.24-.35,0.76-0.61,1.36-1.56,3.67-3.27,7.27-5.56,7.55Z" transform="translate(-39.54 -34.38)"/>
  <path d="M84.28,172.09a0.82,0.82,0,0,1-.09-1.64,4.8,4.8,0,0,0,.69-2.67A2.67,2.67,0,0,0,84.8,167a0.82,0.82,0,0,1,.27-1.6,1.32,1.32,0,0,1,1.25,1,4,4,0,0,1,.2,1.37C86.53,169.18,86,172.09,84.28,172.09Z" transform="translate(-39.54 -34.38)"/>
  <path d="M66.23,141.41h0a1.58,1.58,0,0,1-1.5-1.15c-0.41-1.05.22-2.19,0.74-3.11,0.12-.22.24-0.43,0.33-0.62,0.61-1.26,2.75-1.92,4.05-1.92a3.48,3.48,0,0,1,.46,0,1.86,1.86,0,0,1,1.55,1.11,2.66,2.66,0,0,1-.48,2.55,4.9,4.9,0,0,1-1.94,1.38,5.58,5.58,0,0,0-1.06.6l-0.16.13A3.38,3.38,0,0,1,66.23,141.41Zm3.62-5.16a3.71,3.71,0,0,0-2.57,1c-0.11.22-.24,0.46-0.38,0.71a3.41,3.41,0,0,0-.64,1.7l0,0.09a4.25,4.25,0,0,0,.86-0.6l0.18-.15a6.85,6.85,0,0,1,1.39-.81,3.6,3.6,0,0,0,1.34-.88,1.16,1.16,0,0,0,.28-0.93,0.33,0.33,0,0,0-.25-0.11H69.85Z" transform="translate(-39.54 -34.38)"/>
  <path d="M74.4,179.76A24.81,24.81,0,1,1,99.21,155,24.84,24.84,0,0,1,74.4,179.76Zm0-48A23.16,23.16,0,1,0,97.56,155,23.19,23.19,0,0,0,74.4,131.79Z" transform="translate(-39.54 -34.38)"/>
  <path d="M74.76,185.49a30.83,30.83,0,0,1-22.41-52l1.2,1.13A29.18,29.18,0,0,0,94.8,175.86l1.13,1.2A30.81,30.81,0,0,1,74.76,185.49Z" transform="translate(-39.54 -34.38)"/>
  <rect x="93.64" y="170.81" width="1.65" height="9.52" transform="translate(-136.02 83.84) rotate(-45)"/>
  <rect x="52.82" y="129.69" width="1.65" height="10.1" transform="translate(-119.11 43.01) rotate(-45)"/>
  <rect x="34.4" y="150.29" width="1.65" height="9.35"/>
  <rect x="14.62" y="158.81" width="41.2" height="1.65"/>
  <path d="M194.62,94.9H152.08a0.82,0.82,0,0,1-.82-0.82,22.81,22.81,0,0,1,35.59-18.93V75.08a5.05,5.05,0,0,1,5-5,5.17,5.17,0,0,1,5,4.71c1.4,0.94,6.55,4.48,8.47,7a4.87,4.87,0,0,1,1.28,2.62,3.39,3.39,0,0,1-3.39,3.38c-0.3,0-9.35-.77-13.27-1.11a1.26,1.26,0,0,0,0,2.52l0.16,0,4.5,0.89A2.43,2.43,0,0,1,194.62,94.9Zm-41.7-1.65h41.7a0.78,0.78,0,0,0,0-1.56l-0.16,0-4.5-.89A2.91,2.91,0,0,1,190,85h0.07c5.08,0.44,12.79,1.09,13.19,1.11A1.74,1.74,0,0,0,205,84.34a3.69,3.69,0,0,0-.89-1.55l0,0c-1.55-2-6-5.23-8.25-6.73a0.87,0.87,0,0,1-.55-0.78v0a3.5,3.5,0,0,0-3.4-3.51,3.4,3.4,0,0,0-3.4,3.4,3.33,3.33,0,0,0,.55,1.8,0.82,0.82,0,0,1-1.23,1.07A21.16,21.16,0,0,0,152.92,93.25Z" transform="translate(-39.54 -34.38)"/>
  <path d="M152.25,94.9h-3.71c-1.42,0-2.49-1.68-2.49-3.9V75.3c0-1.27-.63-2.25-1.18-2.25h-2V71.4h2c1.59,0,2.83,1.71,2.83,3.9V91c0,1.48.62,2.25,0.84,2.25h3.71V94.9Z" transform="translate(-39.54 -34.38)"/>
  <path d="M173.84,94.12l-1.45-.79a7.29,7.29,0,0,0-4.29-10.46l0.48-1.58A8.94,8.94,0,0,1,173.84,94.12Z" transform="translate(-39.54 -34.38)"/>
  <path d="M162.53,83.44L161.74,82a8.82,8.82,0,0,1,3.86-1.06l0.07,1.65A7.19,7.19,0,0,0,162.53,83.44Z" transform="translate(-39.54 -34.38)"/>
  <rect x="156.55" y="44.7" width="1.41" height="1.65"/>
  <path d="M196.63,64H154.09a2.43,2.43,0,0,1-.09-4.86l4.5-.89,0.16,0a1.26,1.26,0,0,0,0-2.52c-3.92.34-13,1.11-13.27,1.11A3.39,3.39,0,0,1,142,53.49a4.87,4.87,0,0,1,1.28-2.62c1.92-2.5,7.07-6,8.47-7a5.17,5.17,0,0,1,5-4.71,5.05,5.05,0,0,1,5,5V44.3a22.81,22.81,0,0,1,35.59,18.93A0.82,0.82,0,0,1,196.63,64Zm-37.88-4.12-4.5.89-0.16,0a0.78,0.78,0,0,0,0,1.56h41.7A21.16,21.16,0,0,0,160.9,47.1,0.82,0.82,0,0,1,159.67,46a3.33,3.33,0,0,0,.55-1.8,3.4,3.4,0,0,0-3.4-3.4,3.5,3.5,0,0,0-3.4,3.51v0h0a0.87,0.87,0,0,1-.55.78c-2.28,1.51-6.7,4.69-8.25,6.74l0,0a3.65,3.65,0,0,0-.89,1.55,1.74,1.74,0,0,0,1.74,1.74c0.38,0,8.08-.67,13.17-1.11h0.07A2.91,2.91,0,0,1,158.75,59.93Z" transform="translate(-39.54 -34.38)"/>
  <path d="M200.17,64h-3.71V62.4h3.71c0.22,0,.84-0.77.84-2.25V44.44c0-2.19,1.24-3.9,2.83-3.9h2V42.2h-2c-0.55,0-1.18,1-1.18,2.25v15.7C202.66,62.37,201.59,64,200.17,64Z" transform="translate(-39.54 -34.38)"/>
  <path d="M174.87,63.27a8.94,8.94,0,0,1,5.25-12.82L180.6,52a7.29,7.29,0,0,0-4.29,10.46Z" transform="translate(-39.54 -34.38)"/>
  <path d="M186.18,52.59a7.2,7.2,0,0,0-3.14-.86l0.07-1.65A8.83,8.83,0,0,1,187,51.14Z" transform="translate(-39.54 -34.38)"/>
  <rect x="111.66" y="13.85" width="1.41" height="1.65"/>
  <path d="M173,168.15a6.06,6.06,0,1,1,6.06-6.06A6.07,6.07,0,0,1,173,168.15Zm0-10.47a4.41,4.41,0,1,0,4.41,4.41A4.42,4.42,0,0,0,173,157.68Z" transform="translate(-39.54 -34.38)"/>
  <path d="M153.73,190.87a4.78,4.78,0,1,1,4.78-4.78A4.78,4.78,0,0,1,153.73,190.87Zm0-7.91a3.13,3.13,0,1,0,3.13,3.13A3.13,3.13,0,0,0,153.73,183Z" transform="translate(-39.54 -34.38)"/>
  <path d="M159.92,190.07h0a9.63,9.63,0,0,1-3.48-.65,0.82,0.82,0,0,1-.33-1.3,3.13,3.13,0,0,0-4.2-4.57,0.82,0.82,0,0,1-1.27-.44,9.61,9.61,0,0,1,1.41-8.31l26.18-36.64A9.66,9.66,0,0,1,194,149.39L167.78,186A9.68,9.68,0,0,1,159.92,190.07Zm-1.9-1.88a8,8,0,0,0,8.42-3.12l26.18-36.64a8,8,0,1,0-13-9.32L153.4,175.75a8,8,0,0,0-1.39,5.88A4.78,4.78,0,0,1,158,188.19Z" transform="translate(-39.54 -34.38)"/>
  <path d="M203.1,171.76a4.78,4.78,0,1,1,4.78-4.78A4.78,4.78,0,0,1,203.1,171.76Zm0-7.91a3.13,3.13,0,1,0,3.13,3.13A3.13,3.13,0,0,0,203.1,163.85Z" transform="translate(-39.54 -34.38)"/>
  <path d="M195.52,171.76h-45a9.66,9.66,0,1,1,0-19.33h45a9.67,9.67,0,0,1,9.66,9.66,9.57,9.57,0,0,1-.08,1.22A0.82,0.82,0,0,1,204,164a3.13,3.13,0,0,0-3.27,5.07,0.82,0.82,0,0,1-.18,1.25A9.65,9.65,0,0,1,195.52,171.76Zm-45-17.68a8,8,0,1,0,0,16h45a8,8,0,0,0,3.42-.77,4.77,4.77,0,0,1,4.15-7.13l0.44,0s0-.08,0-0.13a8,8,0,0,0-8-8h-45Z" transform="translate(-39.54 -34.38)"/>
  <path d="M152,144.69a4.78,4.78,0,1,1,4.78-4.78A4.78,4.78,0,0,1,152,144.69Zm0-7.91a3.13,3.13,0,1,0,3.13,3.13A3.13,3.13,0,0,0,152,136.78Z" transform="translate(-39.54 -34.38)"/>
  <path d="M186.11,190.08h0a9.69,9.69,0,0,1-7.87-4l-26.18-36.64a9.59,9.59,0,0,1-1.79-5.63,0.82,0.82,0,0,1,1-.8,3.13,3.13,0,0,0,2.67-5.48,0.82,0.82,0,0,1,0-1.29l0.1-.08,0.24-.19a9.66,9.66,0,0,1,13.48,2.24L194,174.79A9.66,9.66,0,0,1,186.11,190.08ZM152,144.69a7.93,7.93,0,0,0,1.44,3.74l26.18,36.64a8,8,0,0,0,6.53,3.36h0a8,8,0,0,0,6.51-12.68l-26.18-36.64a8,8,0,0,0-6.53-3.36,7.94,7.94,0,0,0-4.18,1.18,4.78,4.78,0,0,1-3.74,7.75h0Z" transform="translate(-39.54 -34.38)"/>
  <path d="M284,169.17H264.6a0.82,0.82,0,0,1-.55-0.21,15.37,15.37,0,0,1,5.46-26v-8.1h-1a2.24,2.24,0,1,1,0-4.48h11.73a2.24,2.24,0,0,1,0,4.48h-1.11v8.1a15.37,15.37,0,0,1,5.46,26A0.82,0.82,0,0,1,284,169.17Zm-19.11-1.65h18.79a13.72,13.72,0,0,0-5.64-23.2,0.82,0.82,0,0,1-.6-0.79V134a0.82,0.82,0,0,1,.82-0.82h1.94a0.59,0.59,0,0,0,0-1.18H268.5a0.59,0.59,0,1,0,0,1.18h1.83a0.82,0.82,0,0,1,.82.82v9.54a0.82,0.82,0,0,1-.6.79A13.72,13.72,0,0,0,264.92,167.53Z" transform="translate(-39.54 -34.38)"/>
  <path d="M296.62,194.64h-3.41a0.83,0.83,0,0,1-.81-0.65l-4.76-21.52H261L256.22,194a0.83,0.83,0,0,1-.8.65H252a0.82,0.82,0,0,1-.8-1l5.45-24.23a2.48,2.48,0,0,1,2.4-1.87h30.53a2.48,2.48,0,0,1,2.39,1.85l5.46,24.26A0.82,0.82,0,0,1,296.62,194.64ZM293.88,193h1.72l-5.22-23.23a0.82,0.82,0,0,0-.79-0.59H259.05a0.82,0.82,0,0,0-.8.62L253,193h1.72l4.76-21.52a0.83,0.83,0,0,1,.81-0.65h28a0.82,0.82,0,0,1,.8.65Z" transform="translate(-39.54 -34.38)"/>
  <path d="M282.42,165.33H266.21a0.82,0.82,0,0,1-.62-0.29,11.54,11.54,0,0,1-2.79-7.52,11.41,11.41,0,0,1,.9-4.43,0.83,0.83,0,0,1,.76-0.51h19.74a0.82,0.82,0,0,1,.76.51,11.4,11.4,0,0,1,.9,4.43A11.54,11.54,0,0,1,283,165,0.82,0.82,0,0,1,282.42,165.33Zm-15.83-1.65H282a9.89,9.89,0,0,0,2.16-6.16,9.72,9.72,0,0,0-.57-3.29H265a9.74,9.74,0,0,0-.57,3.29A9.89,9.89,0,0,0,266.59,163.68Z" transform="translate(-39.54 -34.38)"/>
  <path d="M279,194.64h-9.41a3,3,0,0,1-3-3v-2.75a3,3,0,0,1,3-3H279a3,3,0,0,1,3,3v2.75A3,3,0,0,1,279,194.64Zm-9.41-7.14a1.38,1.38,0,0,0-1.37,1.37v2.75a1.38,1.38,0,0,0,1.37,1.37H279a1.38,1.38,0,0,0,1.37-1.37v-2.75a1.38,1.38,0,0,0-1.37-1.37h-9.41Z" transform="translate(-39.54 -34.38)"/>
  <path d="M274.31,187.49a5,5,0,0,1-4.95-4.95c0-2.52,3.89-6.92,4.33-7.41a0.82,0.82,0,0,1,.61-0.27h0a0.82,0.82,0,0,1,.61.27c0.44,0.49,4.33,4.89,4.33,7.41A5,5,0,0,1,274.31,187.49Zm0-10.54c-1.47,1.76-3.3,4.35-3.3,5.6a3.3,3.3,0,0,0,6.59,0C277.61,181.3,275.79,178.71,274.32,176.95Z" transform="translate(-39.54 -34.38)"/>
  <path d="M367.42,184.13a33.42,33.42,0,0,1,0-45.75l1.2,1.13a31.77,31.77,0,0,0,0,43.49Z" transform="translate(-39.54 -34.38)"/>
  <path d="M377.11,184.09l-1.2-1.13a31.78,31.78,0,0,0,0-43.45l1.2-1.13A33.43,33.43,0,0,1,377.11,184.09Z" transform="translate(-39.54 -34.38)"/>
  <rect x="336.96" y="117.33" width="20.36" height="1.65"/>
  <rect x="308.08" y="117.33" width="20.37" height="1.65"/>
  <rect x="336.96" y="134.73" width="20.36" height="1.65"/>
  <rect x="308.08" y="134.73" width="20.39" height="1.65"/>
  <path d="M368,191.35a0.82,0.82,0,0,1-.82-0.82l0-55a0.82,0.82,0,0,1,.82-0.82h4.26a0.82,0.82,0,0,1,.82.82v51.75a0.83,0.83,0,0,1-.33.66l-4.22,3.2A0.82,0.82,0,0,1,368,191.35Zm0.78-55,0,52.47,2.57-2V136.39h-2.61Z" transform="translate(-39.54 -34.38)"/>
  <path d="M376.5,191.35a0.82,0.82,0,0,1-.5-0.17L371.75,188a0.83,0.83,0,0,1-.33-0.66V135.57a0.82,0.82,0,0,1,.82-0.82h4.26a0.82,0.82,0,0,1,.82.82v55A0.82,0.82,0,0,1,376.5,191.35Zm-3.44-4.44,2.61,2V136.39h-2.61v50.51Z" transform="translate(-39.54 -34.38)"/>
  <path d="M367.89,187.81a26.93,26.93,0,0,1,0-53.14l0.27,1.63a25.28,25.28,0,0,0,0,49.89Z" transform="translate(-39.54 -34.38)"/>
  <path d="M376.64,187.8l-0.27-1.63a25.28,25.28,0,0,0,0-49.89l0.26-1.63A26.93,26.93,0,0,1,376.64,187.8Z" transform="translate(-39.54 -34.38)"/>
  <path d="M376.46,136.39H368a0.82,0.82,0,0,1-.82-0.82v-3.43a0.82,0.82,0,0,1,.82-0.82h8.48a0.82,0.82,0,0,1,.82.82v3.43A0.82,0.82,0,0,1,376.46,136.39Zm-7.65-1.65h6.83V133h-6.83v1.79Z" transform="translate(-39.54 -34.38)"/>
  <path d="M376.46,133H368a0.82,0.82,0,0,1-.82-0.82v-2.6a2.94,2.94,0,0,1,2.61-3.18h4.91a2.94,2.94,0,0,1,2.61,3.17v2.6A0.82,0.82,0,0,1,376.46,133Zm-7.65-1.65h6.83v-1.78a1.37,1.37,0,0,0-1-1.53h-4.91a1.38,1.38,0,0,0-1,1.53v1.78Z" transform="translate(-39.54 -34.38)"/>
  <path d="M372.26,198.62h0a0.83,0.83,0,0,1-.71-0.41l-4.24-7.28a0.82,0.82,0,0,1,.21-1.07l4.22-3.2a0.83,0.83,0,0,1,1,0l4.26,3.21a0.82,0.82,0,0,1,.22,1.07L373,198.21A0.82,0.82,0,0,1,372.26,198.62Zm-3.16-7.89,3.16,5.42,3.16-5.42-3.18-2.39Z" transform="translate(-39.54 -34.38)"/>
  <rect x="330.19" y="158.33" width="5.02" height="1.65"/>
  <path d="M472.17,194.58H459.54v-1.65h11.8V163.67H473v30.09A0.82,0.82,0,0,1,472.17,194.58Z" transform="translate(-39.54 -34.38)"/>
  <path d="M459,188.55H445.38a0.82,0.82,0,0,1-.82-0.82V183.5a2.77,2.77,0,0,1-.84-2v-16.8a2.74,2.74,0,0,1,2.71-2.75,2.65,2.65,0,0,1,1.06.22v-2.09a2.73,2.73,0,0,1,2.71-2.75,2.66,2.66,0,0,1,1.07.22v-0.07a2.71,2.71,0,1,1,5.42,0,2.65,2.65,0,0,1,1.07-.22,2.73,2.73,0,0,1,2.71,2.75v14.45l0.28-.42v-4.92a2.71,2.71,0,1,1,5.42,0v7.6a2.78,2.78,0,0,1-.82,2l-5.48,7v2.08A0.82,0.82,0,0,1,459,188.55ZM446.2,186.9h12v-1.54a0.82,0.82,0,0,1,.18-0.51l5.63-7.16a0.82,0.82,0,0,1,.13-0.16,1.11,1.11,0,0,0,.37-0.82v-7.6a1.06,1.06,0,1,0-2.12,0v5.17a0.83,0.83,0,0,1-.14.46l-1.93,2.84a0.82,0.82,0,0,1-1.51-.46V160a1.06,1.06,0,1,0-2.12,0V171.1a0.83,0.83,0,0,1-1.65,0V157.48a1.06,1.06,0,1,0-2.12,0V171.1a0.83,0.83,0,0,1-1.65,0v-11a1.06,1.06,0,1,0-2.12,0v11a0.83,0.83,0,0,1-1.65,0v-6.39a1.06,1.06,0,1,0-2.12,0v16.8a1.11,1.11,0,0,0,.48.92,0.83,0.83,0,0,1,.36.68v3.79Z" transform="translate(-39.54 -34.38)"/>
  <path d="M459.54,194.58H444.68a0.82,0.82,0,0,1-.82-0.82v-6a0.82,0.82,0,0,1,.82-0.82h14.86a0.82,0.82,0,0,1,.82.82v6A0.82,0.82,0,0,1,459.54,194.58Zm-14-1.65h13.21v-4.38H445.5v4.38Z" transform="translate(-39.54 -34.38)"/>
  <path d="M490.17,172.21H476.53a0.82,0.82,0,0,1-.82-0.82v-2l-5.48-6.81a2.71,2.71,0,0,1-.83-1.94v-7.42a2.71,2.71,0,0,1,5.42,0V158l0.28,0.4V144.31a2.71,2.71,0,0,1,3.77-2.49,2.71,2.71,0,0,1,5.42,0v0.05a2.71,2.71,0,0,1,3.77,2.49v2a2.71,2.71,0,0,1,3.77,2.49v16.4a2.7,2.7,0,0,1-.84,2v4.12A0.82,0.82,0,0,1,490.17,172.21Zm-12.82-1.65h12v-3.68a0.82,0.82,0,0,1,.37-0.68,1.06,1.06,0,0,0,.47-0.88v-16.4a1.06,1.06,0,0,0-2.12,0v6.24a0.83,0.83,0,0,1-1.65,0V144.41a1.06,1.06,0,1,0-2.12,0v10.75a0.83,0.83,0,0,1-1.65,0V141.86a1.06,1.06,0,1,0-2.12,0v13.29a0.83,0.83,0,0,1-1.65,0V144.31a1.06,1.06,0,0,0-2.12,0V161a0.82,0.82,0,0,1-1.5.47l-1.93-2.77a0.82,0.82,0,0,1-.15-0.47v-5a1.06,1.06,0,0,0-2.12,0v7.42a1,1,0,0,0,.36.78,0.83,0.83,0,0,1,.14.16l5.62,7a0.83,0.83,0,0,1,.18.51v1.49Z" transform="translate(-39.54 -34.38)"/>
  <path d="M471.33,163.46h-11.7a0.82,0.82,0,0,1-.82-0.82V160a1.08,1.08,0,0,0-1.06-1.11,1,1,0,0,0-.77.35,0.76,0.76,0,0,1-.64.27,0.82,0.82,0,0,1-.62-0.31l-0.51-.63a0.82,0.82,0,0,1-.18-0.52v-0.57a1.09,1.09,0,0,0-1-1.11H453.9a0.82,0.82,0,0,1-.7-0.31l-1.83-2.27a2.71,2.71,0,0,1-.82-1.94v-7.42a2.71,2.71,0,0,1,5.42,0v4.79l0.28,0.4V135.56a2.71,2.71,0,0,1,3.77-2.49,2.71,2.71,0,0,1,5.42,0v0.05a2.71,2.71,0,0,1,3.77,2.49v2a2.71,2.71,0,0,1,3.77,2.49v11.17a0.82,0.82,0,0,1-.25.59,0.89,0.89,0,0,1-.6.23h-0.08a1.06,1.06,0,0,0-1,1.06v7.42a1,1,0,0,0,.36.78,0.83,0.83,0,0,1,.14.16l0.44,0.54A0.83,0.83,0,0,1,471.33,163.46Zm-10.88-1.65h9.22a2.68,2.68,0,0,1-.28-1.18v-7.42a2.71,2.71,0,0,1,1.95-2.6V140.16a1.06,1.06,0,0,0-2.12,0v6.24a0.83,0.83,0,0,1-1.65,0V135.65a1.06,1.06,0,1,0-2.12,0V146.4a0.83,0.83,0,0,1-1.65,0V133.11a1.06,1.06,0,1,0-2.12,0V146.4a0.83,0.83,0,0,1-1.65,0V135.56a1.06,1.06,0,0,0-2.12,0v16.72a0.82,0.82,0,0,1-1.5.47L454.47,150a0.82,0.82,0,0,1-.15-0.47v-5a1.06,1.06,0,0,0-2.12,0v7.42a1,1,0,0,0,.36.78,0.86,0.86,0,0,1,.14.16l1.55,1.92a2.74,2.74,0,0,1,2.43,2.72,2.64,2.64,0,0,1,1.07-.23,2.73,2.73,0,0,1,2.71,2.75v1.82Z" transform="translate(-39.54 -34.38)"/>
  <path d="M491,194.58H475.87a0.82,0.82,0,0,1-.82-0.82V171.39a0.82,0.82,0,0,1,.82-0.82H491a0.82,0.82,0,0,1,.82.82v22.37A0.82,0.82,0,0,1,491,194.58Zm-14.31-1.65h13.49V172.21H476.7v20.72Z" transform="translate(-39.54 -34.38)"/>
  <path d="M340.1,283a0.82,0.82,0,0,1-.77-1.12l4.05-10.5a23,23,0,0,1-3.08-11.49,23.28,23.28,0,1,1,46.29,3.54,0.82,0.82,0,0,1-.81.7H374.26a1,1,0,0,0-1,1v15.26a0.82,0.82,0,0,1-.5.76,23.43,23.43,0,0,1-22.14-2.07L340.39,283A0.83,0.83,0,0,1,340.1,283Zm10.61-5.68a0.83,0.83,0,0,1,.47.15,21.78,21.78,0,0,0,20.42,2.36v-14.7a2.66,2.66,0,0,1,2.66-2.65h10.81a21.63,21.63,0,1,0-43.11-2.59,21.3,21.3,0,0,0,3.05,11,0.82,0.82,0,0,1,.06.72l-3.53,9.15,8.88-3.38A0.82,0.82,0,0,1,350.71,277.37Z" transform="translate(-39.54 -34.38)"/>
  <path class="cls-1" d="M359.59,265.19c-0.63-6.22,5.47-7.25,5.74-11.8,0.08-1.47-1.39-2.18-2.69-2.18a2.55,2.55,0,0,0-2.69,2.69H354c-0.12-5.9,3.88-8.87,8.79-9,5.78-.12,9.35,3.72,9.35,8.36,0,5.86-5.86,7.21-5.54,11.92h-7Zm-0.44,6.2a3.67,3.67,0,0,1,4-3.64,3.57,3.57,0,0,1,3.84,3.64,3.53,3.53,0,0,1-3.84,3.56C360.9,275,359.15,273.57,359.15,271.39Z" transform="translate(-39.54 -34.38)"/>
  <path d="M396.54,288.67a0.83,0.83,0,0,1-.62-0.28l-2.85-3.26H374.26a2.66,2.66,0,0,1-2.66-2.65V265.17a2.66,2.66,0,0,1,2.66-2.65h28.3a2.66,2.66,0,0,1,2.65,2.65v17.31a2.66,2.66,0,0,1-2.65,2.65H400l-2.85,3.26A0.83,0.83,0,0,1,396.54,288.67Zm-22.28-24.5a1,1,0,0,0-1,1v17.31a1,1,0,0,0,1,1h19.18a0.83,0.83,0,0,1,.62.28l2.48,2.83,2.48-2.83a0.83,0.83,0,0,1,.62-0.28h2.92a1,1,0,0,0,1-1V265.17a1,1,0,0,0-1-1h-28.3Z" transform="translate(-39.54 -34.38)"/>
  <path d="M395.88,276.44a3.19,3.19,0,1,1,3.19-3.19A3.19,3.19,0,0,1,395.88,276.44Zm0-4.73a1.54,1.54,0,1,0,1.54,1.54A1.54,1.54,0,0,0,395.88,271.71Z" transform="translate(-39.54 -34.38)"/>
  <path d="M388.41,276.44a3.19,3.19,0,1,1,3.19-3.19A3.19,3.19,0,0,1,388.41,276.44Zm0-4.73a1.54,1.54,0,1,0,1.54,1.54A1.54,1.54,0,0,0,388.41,271.71Z" transform="translate(-39.54 -34.38)"/>
  <path d="M380.93,276.44a3.19,3.19,0,1,1,3.19-3.19A3.19,3.19,0,0,1,380.93,276.44Zm0-4.73a1.54,1.54,0,1,0,1.54,1.54A1.54,1.54,0,0,0,380.93,271.71Z" transform="translate(-39.54 -34.38)"/>
  <path d="M274.31,98.27h0a0.82,0.82,0,0,1-.7-0.39L266.67,86.5a0.82,0.82,0,0,1-.12-0.43V50.17a0.82,0.82,0,0,1,.82-0.82h13.88a0.82,0.82,0,0,1,.82.82v35.9a0.83,0.83,0,0,1-.12.43L275,97.88A0.82,0.82,0,0,1,274.31,98.27ZM268.2,85.84l6.11,10,6.11-10V51H268.2V85.84Z" transform="translate(-39.54 -34.38)"/>
  <path d="M281.25,45.18H267.38a0.82,0.82,0,0,1-.82-0.82V40.7a4.89,4.89,0,0,1,4.88-4.89h5.75a4.89,4.89,0,0,1,4.89,4.89v3.65A0.82,0.82,0,0,1,281.25,45.18ZM268.2,43.53h12.23V40.7a3.24,3.24,0,0,0-3.24-3.24h-5.75a3.24,3.24,0,0,0-3.24,3.24v2.83Z" transform="translate(-39.54 -34.38)"/>
  <path d="M281.25,51H267.38a0.82,0.82,0,0,1-.82-0.82V44.35a0.82,0.82,0,0,1,.82-0.82h13.88a0.82,0.82,0,0,1,.82.82v5.82A0.82,0.82,0,0,1,281.25,51ZM268.2,49.35h12.23V45.18H268.2v4.17Z" transform="translate(-39.54 -34.38)"/>
  <path d="M267.88,86.73l-1-1.31,6.61-5.08V50.17h1.65V80.75a0.82,0.82,0,0,1-.32.65Z" transform="translate(-39.54 -34.38)"/>
  <rect x="276.96" y="79.04" width="1.65" height="8.75" transform="translate(2.97 218.64) rotate(-52.5)"/>
  <rect x="230.6" y="55.4" width="8.34" height="1.65"/>
  <rect x="205.53" y="62.24" width="58.48" height="1.65"/>
  <path d="M257.36,93.69l-4.91-.57c0.07-.62.18-1.25,0.31-1.86l4.84,1C257.49,92.75,257.41,93.22,257.36,93.69Zm1.7-5.36L254.71,86c0.3-.55.62-1.09,1-1.61l4.11,2.75C259.53,87.5,259.28,87.91,259.06,88.32ZM262.61,84l-3.18-3.79c0.48-.4,1-0.78,1.49-1.14l2.82,4.06C263.35,83.37,263,83.66,262.61,84Z" transform="translate(-39.54 -34.38)"/>
  <path d="M291.27,93.69c-0.05-.47-0.13-0.94-0.23-1.39l4.84-1c0.13,0.61.24,1.24,0.31,1.86Zm-1.7-5.36c-0.22-.41-0.47-0.82-0.73-1.21L293,84.36c0.35,0.52.67,1.06,1,1.61ZM286,84c-0.36-.3-0.74-0.59-1.13-0.86L287.7,79c0.51,0.36,1,.74,1.49,1.14Z" transform="translate(-39.54 -34.38)"/>
  <path d="M401,83.29h-4.45a0.82,0.82,0,0,1-.82-0.82V51.8H348.77V82.47a0.82,0.82,0,0,1-.82.82h-4.45a0.82,0.82,0,0,1-.82-0.82V49.07A3.37,3.37,0,0,1,346,45.7h52.42a3.37,3.37,0,0,1,3.37,3.37v33.4A0.82,0.82,0,0,1,401,83.29Zm-3.63-1.65h2.8V49.07a1.72,1.72,0,0,0-1.72-1.72H346a1.72,1.72,0,0,0-1.72,1.72V81.64h2.8V51a0.82,0.82,0,0,1,.82-0.82h48.6a0.82,0.82,0,0,1,.82.82V81.64Z" transform="translate(-39.54 -34.38)"/>
  <path d="M407.23,88.38h-70a0.82,0.82,0,0,1-.66-0.34,11,11,0,0,1-1.4-2.37,13.18,13.18,0,0,1,0-3.28,0.82,0.82,0,0,1,.82-0.75h31.49a0.82,0.82,0,0,1,.82.82v0.75h7.88V82.47a0.82,0.82,0,0,1,.82-0.82H408.5a0.82,0.82,0,0,1,.82.75,13.18,13.18,0,0,1,0,3.28A11,11,0,0,1,407.9,88,0.82,0.82,0,0,1,407.23,88.38Zm-69.55-1.65h69.12a8.7,8.7,0,0,0,.9-1.5,9.26,9.26,0,0,0,0-1.94h-29.9V84a0.82,0.82,0,0,1-.82.82h-9.53a0.82,0.82,0,0,1-.82-0.82V83.29h-29.9a9.28,9.28,0,0,0,0,1.94A8.9,8.9,0,0,0,337.68,86.73Z" transform="translate(-39.54 -34.38)"/>
  <rect x="363.18" y="62.38" width="13.73" height="1.65" transform="translate(24.15 245.79) rotate(-45)"/>
  <rect x="361.38" y="66.22" width="26.03" height="1.65" transform="translate(22.71 249.99) rotate(-45)"/>
  <path d="M489.5,274.83v-1.65a5.53,5.53,0,0,0,5.53-5.52h1.65A7.18,7.18,0,0,1,489.5,274.83Z" transform="translate(-39.54 -34.38)"/>
  <path d="M477.31,297.43h-5.75a0.82,0.82,0,0,1-.82-0.82V295a28.42,28.42,0,0,1-10.73-.4v2a0.82,0.82,0,0,1-.82.82h-5.75a0.82,0.82,0,0,1-.82-0.82v-4.93a21.14,21.14,0,0,1-8.6-9.36h-1.85a0.82,0.82,0,0,1,0-1.65c0.47,0,1.63-2.16,1.63-6.18s-1.16-6.18-1.63-6.18a0.82,0.82,0,0,1,0-1.65h2.62a19.66,19.66,0,0,1,2.31-3.28l1.29-6.6a2,2,0,0,1,2.39-1.61l6.9,1.35a27.79,27.79,0,0,1,8.73-1.39c13.19,0,23.92,9,23.92,20.11,0,7.29-4.65,14-12.19,17.53v3.83A0.82,0.82,0,0,1,477.31,297.43Zm-4.93-1.65h4.1v-3.54a0.82,0.82,0,0,1,.49-0.75c7.22-3.24,11.7-9.46,11.7-16.25,0-10.18-10-18.46-22.27-18.46a26.12,26.12,0,0,0-8.41,1.37,0.81,0.81,0,0,1-.42,0l-7.12-1.39a0.37,0.37,0,0,0-.46.31l-1.33,6.82a0.82,0.82,0,0,1-.19.39,18,18,0,0,0-2.48,3.56,0.82,0.82,0,0,1-.73.44h-1a17,17,0,0,1,0,12.35h0.28a0.82,0.82,0,0,1,.76.51,19.44,19.44,0,0,0,8.52,9.31,0.82,0.82,0,0,1,.42.72v4.58h4.11v-2.22a0.82,0.82,0,0,1,1-.79,26.75,26.75,0,0,0,12,.46,0.82,0.82,0,0,1,1,.81v1.74Z" transform="translate(-39.54 -34.38)"/>
  <path d="M452,270.23a2.74,2.74,0,1,1,2.74-2.74A2.74,2.74,0,0,1,452,270.23Zm0-3.83a1.09,1.09,0,1,0,1.09,1.09A1.09,1.09,0,0,0,452,266.4Z" transform="translate(-39.54 -34.38)"/>
  <path d="M442.15,282.31c-2.25,0-3.28-4.06-3.28-7.82s1-7.82,3.28-7.82,3.28,4.06,3.28,7.82S444.41,282.31,442.15,282.31Zm0-14c-0.47,0-1.63,2.16-1.63,6.18s1.16,6.18,1.63,6.18,1.63-2.16,1.63-6.18S442.63,268.31,442.15,268.31Z" transform="translate(-39.54 -34.38)"/>
  <path d="M472.39,264h-10a2.14,2.14,0,1,1,0-4.29h10A2.14,2.14,0,1,1,472.39,264Zm-10-2.64a0.49,0.49,0,1,0,0,1h10a0.49,0.49,0,1,0,0-1h-10Z" transform="translate(-39.54 -34.38)"/>
  <path d="M467.38,252.86a12.41,12.41,0,1,1,12.41-12.41A12.42,12.42,0,0,1,467.38,252.86Zm0-23.17a10.76,10.76,0,1,0,10.76,10.76A10.77,10.77,0,0,0,467.38,229.69Z" transform="translate(-39.54 -34.38)"/>
  <path d="M467.38,249.77a9.32,9.32,0,1,1,9.32-9.32A9.33,9.33,0,0,1,467.38,249.77Zm0-17a7.67,7.67,0,1,0,7.67,7.67A7.68,7.68,0,0,0,467.38,232.79Z" transform="translate(-39.54 -34.38)"/>
  <path d="M466,243a1.8,1.8,0,0,0,1,.54v-2.7l-0.17-.06-0.24-.06c-0.32-.08-0.63-0.19-0.94-0.3a3.11,3.11,0,0,1-.84-0.47,2.15,2.15,0,0,1-.59-0.72,2.38,2.38,0,0,1-.22-1.08,2.53,2.53,0,0,1,.92-2,3.05,3.05,0,0,1,1-.53,4.29,4.29,0,0,1,1.13-.23v-1h0.76v1a4.63,4.63,0,0,1,1.09.25,2.92,2.92,0,0,1,.9.52,2.58,2.58,0,0,1,.63.82,3,3,0,0,1,.28,1.16h-1.84a1.37,1.37,0,0,0-.32-0.88,1,1,0,0,0-.75-0.36v2.29l0.32,0.08,0.34,0.09a4.47,4.47,0,0,1,1.47.64,2.78,2.78,0,0,1,.76.8,2.08,2.08,0,0,1,.29.83,6.74,6.74,0,0,1,0,.74,2.5,2.5,0,0,1-.65,1.56,3.43,3.43,0,0,1-1,.74,4,4,0,0,1-1.59.39v1.1H467v-1.1a3.14,3.14,0,0,1-3.21-3.21h1.82A1.59,1.59,0,0,0,466,243Zm0.57-6a1.13,1.13,0,0,0-.38.2,1,1,0,0,0-.27.34,1.07,1.07,0,0,0-.1.47,0.82,0.82,0,0,0,.27.66,2.13,2.13,0,0,0,.89.38v-2.11A1.44,1.44,0,0,0,466.56,237Zm1.67,6.47a1.56,1.56,0,0,0,.45-0.24,1.3,1.3,0,0,0,.33-0.38,1.08,1.08,0,0,0,.13-0.54,0.91,0.91,0,0,0-.32-0.76,3.13,3.13,0,0,0-1.08-.46v2.48A2.34,2.34,0,0,0,468.24,243.45Z" transform="translate(-39.54 -34.38)"/>
  <path d="M352.89,361a11.74,11.74,0,0,1-11.73-11.73,0.82,0.82,0,0,1,.82-0.82H363.8a0.82,0.82,0,0,1,.82.82A11.74,11.74,0,0,1,352.89,361Zm-10-10.9a10.08,10.08,0,0,0,20.09,0H342.85Z" transform="translate(-39.54 -34.38)"/>
  <rect x="313.39" y="289.37" width="19.31" height="1.65"/>
  <path d="M363.73,350.1H342a0.82,0.82,0,0,1-.75-1.16l10.87-24.7a0.82,0.82,0,0,1,1.51,0l10.87,24.7A0.82,0.82,0,0,1,363.73,350.1Zm-20.48-1.65h19.21l-9.61-21.83Z" transform="translate(-39.54 -34.38)"/>
  <path d="M391.6,361a11.74,11.74,0,0,1-11.73-11.73,0.82,0.82,0,0,1,.82-0.82H402.5a0.82,0.82,0,0,1,.82.82A11.74,11.74,0,0,1,391.6,361Zm-10-10.9a10.08,10.08,0,0,0,20.09,0H381.55Z" transform="translate(-39.54 -34.38)"/>
  <rect x="332.7" y="289.37" width="19.31" height="1.65"/>
  <path d="M402.5,350.1H380.76a0.82,0.82,0,0,1-.75-1.16l10.87-24.7a0.82,0.82,0,0,1,1.51,0l10.87,24.7A0.82,0.82,0,0,1,402.5,350.1ZM382,348.45h19.21l-9.61-21.83Z" transform="translate(-39.54 -34.38)"/>
  <path d="M387.54,373.26H357.31a2.91,2.91,0,0,1,0-5.81h30.23A2.91,2.91,0,0,1,387.54,373.26Zm-30.23-4.17a1.26,1.26,0,0,0,0,2.52h30.23a1.26,1.26,0,0,0,0-2.52H357.31Z" transform="translate(-39.54 -34.38)"/>
  <path d="M374.51,369.09h-4.17a0.82,0.82,0,0,1-.82-0.82v-47a2.91,2.91,0,0,1,5.81,0v47A0.82,0.82,0,0,1,374.51,369.09Zm-3.34-1.65h2.52V321.31a1.26,1.26,0,0,0-2.52,0v46.13Z" transform="translate(-39.54 -34.38)"/>
  <rect x="330.8" y="292.78" width="4.17" height="1.65"/>
  <path d="M277.51,289.06A5,5,0,0,1,274,287.6l-28.55-28.55a0.82,0.82,0,0,1,0-1.17l14.78-14.78a0.82,0.82,0,0,1,1.17,0l4.13,4.13a5,5,0,0,1,6.45.54l3,3a0.82,0.82,0,0,1,0,1.17L269,257.84a3.36,3.36,0,0,0,4.75,4.75l5.9-5.9a0.82,0.82,0,0,1,1.12,0l0.26,0.23,11.82,11.82a5,5,0,0,1-3.54,8.54,5.05,5.05,0,0,1-1-.1,5,5,0,0,1,.1,1,5,5,0,0,1-5,5,5,5,0,0,1-1-.1A5,5,0,0,1,277.51,289.06Zm-30.34-30.59,28,28a3.36,3.36,0,0,0,4.75-4.75,0.82,0.82,0,1,1,1.17-1.17,3.36,3.36,0,1,0,4.75-4.75,0.82,0.82,0,0,1,1.17-1.17,3.36,3.36,0,1,0,4.75-4.75l-11.43-11.44-5.33,5.33a5,5,0,1,1-7.08-7.08l5.33-5.33-2.41-2.41a3.36,3.36,0,0,0-4.75,0,0.82,0.82,0,0,1-1.17,0l-4.08-4.08Z" transform="translate(-39.54 -34.38)"/>
  <path d="M271,289.26a5,5,0,0,1-4.9-6,5.06,5.06,0,0,1-1,.1,5,5,0,0,1-4.9-6,5,5,0,0,1-1,.1,5,5,0,0,1-3.54-8.54l0.39-.39a0.82,0.82,0,0,1,1.17,0l17.74,17.74a0.82,0.82,0,0,1,0,1.17l-0.39.39A5,5,0,0,1,271,289.26Zm-2.56-7.18a3.36,3.36,0,0,0,4.73,4.73Zm-5.91-5.91a3.36,3.36,0,0,0,4.73,4.73Zm-5.91-5.91a3.36,3.36,0,0,0,4.73,4.73Z" transform="translate(-39.54 -34.38)"/>
  <path d="M292.1,269.91a0.82,0.82,0,0,1-.58-0.24l-11.24-11.24-5.33,5.33a5,5,0,1,1-7.08-7.08l8.71-8.71a5,5,0,0,1,6.45-.54l4.13-4.13a0.82,0.82,0,0,1,1.17,0l14.78,14.78a0.82,0.82,0,0,1,0,1.17l-10.42,10.42A0.82,0.82,0,0,1,292.1,269.91Zm-11.83-13.46a0.82,0.82,0,0,1,.53.2l0.26,0.23,11,11,9.26-9.26L287.74,245l-4.08,4.08a0.82,0.82,0,0,1-1.17,0,3.36,3.36,0,0,0-4.75,0L269,257.84a3.36,3.36,0,0,0,4.75,4.75l5.9-5.9A0.82,0.82,0,0,1,280.26,256.45Z" transform="translate(-39.54 -34.38)"/>
  <path d="M303.58,260.55a0.82,0.82,0,0,1-.58-0.24l-16.9-16.9a0.82,0.82,0,0,1,0-1.17l5.68-5.68a0.85,0.85,0,0,1,1.17,0l16.9,16.9a0.82,0.82,0,0,1,0,1.17l-5.68,5.68A0.82,0.82,0,0,1,303.58,260.55Zm-15.73-17.72,15.73,15.73,4.51-4.51-15.73-15.73Z" transform="translate(-39.54 -34.38)"/>
  <rect x="302.74" y="248.88" width="1.65" height="8.88" transform="translate(-129.76 254.47) rotate(-45)"/>
  <path d="M277.51,289.06A5,5,0,0,1,274,287.6l-28.55-28.55a0.82,0.82,0,0,1,0-1.17l14.78-14.78a0.82,0.82,0,0,1,1.17,0l4.13,4.13a5,5,0,0,1,6.45.54l3,3a0.82,0.82,0,0,1,0,1.17L269,257.84a3.36,3.36,0,0,0,4.75,4.75l5.9-5.9a0.82,0.82,0,0,1,1.12,0l0.26,0.23,11.82,11.82a5,5,0,0,1-3.54,8.54,5.05,5.05,0,0,1-1-.1,5,5,0,0,1,.1,1,5,5,0,0,1-5,5,5,5,0,0,1-1-.1A5,5,0,0,1,277.51,289.06Zm-30.34-30.59,28,28a3.36,3.36,0,0,0,4.75-4.75,0.82,0.82,0,1,1,1.17-1.17,3.36,3.36,0,1,0,4.75-4.75,0.82,0.82,0,0,1,1.17-1.17,3.36,3.36,0,1,0,4.75-4.75l-11.43-11.44-5.33,5.33a5,5,0,1,1-7.08-7.08l5.33-5.33-2.41-2.41a3.36,3.36,0,0,0-4.75,0,0.82,0.82,0,0,1-1.17,0l-4.08-4.08Z" transform="translate(-39.54 -34.38)"/>
  <path d="M245,260.45a0.82,0.82,0,0,1-.58-0.24l-5.68-5.68a0.82,0.82,0,0,1,0-1.17l16.9-16.9a0.82,0.82,0,0,1,1.17,0l5.68,5.68a0.82,0.82,0,0,1,0,1.17l-16.9,16.9A0.82,0.82,0,0,1,245,260.45Zm-4.51-6.5,4.51,4.51,15.73-15.73-4.51-4.51Z" transform="translate(-39.54 -34.38)"/>
  <rect x="239.91" y="252.78" width="9.68" height="1.65" transform="translate(-147.19 212.96) rotate(-45)"/>
  <path d="M467.77,63.75A6.25,6.25,0,1,1,474,57.5,6.26,6.26,0,0,1,467.77,63.75Zm0-10.85a4.6,4.6,0,1,0,4.6,4.6A4.61,4.61,0,0,0,467.77,52.9Z" transform="translate(-39.54 -34.38)"/>
  <path d="M474.07,99.7h-12.6a0.82,0.82,0,0,1-.82-0.82V85.6h-2.58a0.82,0.82,0,0,1-.82-0.82V70.93a10.55,10.55,0,0,1,7-9.89,0.82,0.82,0,0,1,.78.12,4.58,4.58,0,0,0,5.57,0,0.82,0.82,0,0,1,.78-0.12,10.55,10.55,0,0,1,7,9.89V84.78a0.82,0.82,0,0,1-.82.82H474.9V98.88A0.82,0.82,0,0,1,474.07,99.7ZM462.3,98.05h10.95V84.78a0.82,0.82,0,0,1,.82-0.82h2.58v-13a8.9,8.9,0,0,0-5.48-8.19,6.22,6.22,0,0,1-6.8,0,8.9,8.9,0,0,0-5.48,8.19V84h2.58a0.82,0.82,0,0,1,.82.82V98.05Z" transform="translate(-39.54 -34.38)"/>
  <path d="M462.28,85.6h-1.88V84h1.05V70.86h1.65V84.78A0.82,0.82,0,0,1,462.28,85.6Z" transform="translate(-39.54 -34.38)"/>
  <path d="M474.77,85.6h-1.48a0.82,0.82,0,0,1-.82-0.82V70.86h1.65V84h0.65V85.6Z" transform="translate(-39.54 -34.38)"/>
  <rect x="427.41" y="46.76" width="1.65" height="17.73"/>
  <path d="M482.14,83.55a2.66,2.66,0,0,1-1.89-.78l-1.58-1.58-0.81.43a0.82,0.82,0,0,1-1.2-.74V73.51a0.82,0.82,0,0,1,.31-0.65,14.89,14.89,0,1,0-18.39,0,0.82,0.82,0,0,1,.31.65v7.37a0.82,0.82,0,0,1-1.2.74l-0.81-.43-1.58,1.58a2.68,2.68,0,0,1-3.79,0l-5.35-5.35a2.68,2.68,0,0,1,0-3.79l1.72-1.72a22.34,22.34,0,0,1-1.68-4.29h-2.52A2.68,2.68,0,0,1,441,64.94V57.37a2.68,2.68,0,0,1,2.68-2.68h2.8a22.31,22.31,0,0,1,1.73-4l-2-2a2.68,2.68,0,0,1,0-3.79l5.35-5.35a2.68,2.68,0,0,1,3.79,0l2.18,2.18a22.39,22.39,0,0,1,3.82-1.55V37.06A2.68,2.68,0,0,1,464,34.38h7.57a2.68,2.68,0,0,1,2.68,2.68v3.12a22.33,22.33,0,0,1,3.82,1.55l2.18-2.18a2.68,2.68,0,0,1,3.79,0l5.35,5.35a2.68,2.68,0,0,1,0,3.79l-2,2a22.3,22.3,0,0,1,1.73,4h2.8a2.68,2.68,0,0,1,2.68,2.68v7.57a2.68,2.68,0,0,1-2.68,2.68h-2.52a22.29,22.29,0,0,1-1.68,4.29l1.72,1.72a2.68,2.68,0,0,1,0,3.79L484,82.76A2.66,2.66,0,0,1,482.14,83.55Zm-3.34-4.22a0.82,0.82,0,0,1,.58.24l2,2a1.06,1.06,0,0,0,1.46,0l5.35-5.35a1,1,0,0,0,0-1.46l-2.15-2.15a0.82,0.82,0,0,1-.14-1,20.65,20.65,0,0,0,2-5.06,0.82,0.82,0,0,1,.8-0.63h3.16a1,1,0,0,0,1-1V57.37a1,1,0,0,0-1-1h-3.41a0.82,0.82,0,0,1-.79-0.59A20.63,20.63,0,0,0,485.6,51a0.82,0.82,0,0,1,.12-1l2.49-2.49a1,1,0,0,0,0-1.46l-5.35-5.35a1.06,1.06,0,0,0-1.45,0l-2.62,2.62a0.83,0.83,0,0,1-1,.14,20.68,20.68,0,0,0-4.61-1.87,0.82,0.82,0,0,1-.61-0.8V37.06a1,1,0,0,0-1-1H464a1,1,0,0,0-1,1V40.8a0.82,0.82,0,0,1-.61.8,20.7,20.7,0,0,0-4.61,1.87,0.83,0.83,0,0,1-1-.14l-2.62-2.62a1.06,1.06,0,0,0-1.46,0l-5.35,5.35a1,1,0,0,0,0,1.46L449.82,50a0.82,0.82,0,0,1,.13,1,20.66,20.66,0,0,0-2.07,4.73,0.82,0.82,0,0,1-.79.59h-3.41a1,1,0,0,0-1,1v7.57a1,1,0,0,0,1,1h3.16a0.82,0.82,0,0,1,.8.63,20.68,20.68,0,0,0,2,5.06,0.82,0.82,0,0,1-.14,1l-2.15,2.15a1,1,0,0,0,0,1.46l5.35,5.35a1.06,1.06,0,0,0,1.46,0l2-2a0.82,0.82,0,0,1,1-.13l0.08,0V73.9a16.54,16.54,0,1,1,21.06,0v5.59l0.07,0A0.82,0.82,0,0,1,478.8,79.33Z" transform="translate(-39.54 -34.38)"/>
  <path d="M204.92,276.71H143.79a0.82,0.82,0,0,1-.82-0.82v-4.14a0.82,0.82,0,0,1,.82-0.82h61.13a0.82,0.82,0,0,1,.82.82v4.14A0.82,0.82,0,0,1,204.92,276.71Zm-60.3-1.65h59.48v-2.49H144.61v2.49Z" transform="translate(-39.54 -34.38)"/>
  <path d="M204.92,281H143.79a0.82,0.82,0,0,1-.82-0.82v-4.24a0.82,0.82,0,0,1,.82-0.82h61.13a0.82,0.82,0,0,1,.82.82v4.24A0.82,0.82,0,0,1,204.92,281Zm-60.3-1.65h59.48v-2.59H144.61v2.59Z" transform="translate(-39.54 -34.38)"/>
  <path d="M204.92,285.16H143.79a0.82,0.82,0,0,1-.82-0.82v-4.2a0.82,0.82,0,0,1,.82-0.82h61.13a0.82,0.82,0,0,1,.82.82v4.2A0.82,0.82,0,0,1,204.92,285.16Zm-60.3-1.65h59.48V281H144.61v2.55Z" transform="translate(-39.54 -34.38)"/>
  <path d="M204.92,272.53H143.79a0.82,0.82,0,0,1-.82-0.82V241.14a0.82,0.82,0,0,1,.82-0.82h61.13a0.82,0.82,0,0,1,.82.82v30.56A0.82,0.82,0,0,1,204.92,272.53Zm-60.3-1.65h59.48V242H144.61v28.92Z" transform="translate(-39.54 -34.38)"/>
  <path d="M165.4,268.78H151.46a0.82,0.82,0,0,1-.82-0.82,3.09,3.09,0,0,0-3.09-3.09,0.82,0.82,0,0,1-.82-0.82V248.81a0.82,0.82,0,0,1,.82-0.82,3.09,3.09,0,0,0,3.09-3.09,0.82,0.82,0,0,1,.82-0.82H189.2v1.65h-37a4.75,4.75,0,0,1-3.84,3.84v13.72a4.75,4.75,0,0,1,3.84,3.84H165.4v1.65Z" transform="translate(-39.54 -34.38)"/>
  <path d="M197.25,268.78H165.4v-1.65h31.1a4.75,4.75,0,0,1,3.84-3.84V249.57a4.75,4.75,0,0,1-3.84-3.84h-7.3v-1.65h8.05a0.82,0.82,0,0,1,.82.82,3.09,3.09,0,0,0,3.09,3.09,0.82,0.82,0,0,1,.82.82V264a0.82,0.82,0,0,1-.82.82,3.09,3.09,0,0,0-3.09,3.09A0.82,0.82,0,0,1,197.25,268.78Z" transform="translate(-39.54 -34.38)"/>
  <rect x="143.24" y="221.22" width="13.41" height="1.65"/>
  <rect x="112.98" y="221.22" width="13.41" height="1.65"/>
  <rect x="142.14" y="225.38" width="7.95" height="1.65"/>
  <rect x="119.53" y="225.38" width="7.95" height="1.65"/>
  <rect x="142.14" y="217.07" width="7.95" height="1.65"/>
  <rect x="119.53" y="217.07" width="7.95" height="1.65"/>
  <path d="M174.35,265.68a9.25,9.25,0,1,1,9.25-9.25A9.26,9.26,0,0,1,174.35,265.68Zm0-16.86a7.6,7.6,0,1,0,7.6,7.61A7.61,7.61,0,0,0,174.35,248.82Z" transform="translate(-39.54 -34.38)"/>
  <path d="M172.66,259.67a2.46,2.46,0,0,0,1.36.67v-3.62a9.27,9.27,0,0,1-1.25-.39,3.21,3.21,0,0,1-.88-0.51,1.75,1.75,0,0,1-.51-0.72,3.13,3.13,0,0,1,.05-2.15,2.75,2.75,0,0,1,1.48-1.48,3.4,3.4,0,0,1,1.1-.26v-0.9h0.75v0.92a2.84,2.84,0,0,1,1.76.82,3.91,3.91,0,0,1,.93,1.89h-1.16a1.82,1.82,0,0,0-1.53-1.59v3.36l0.82,0.22a3.74,3.74,0,0,1,.64.24,3,3,0,0,1,.71.47,2.63,2.63,0,0,1,.58.75,2.28,2.28,0,0,1,.24,1.08,3,3,0,0,1-.23,1.19,2.7,2.7,0,0,1-.62.9,3,3,0,0,1-.94.59,4.16,4.16,0,0,1-1.2.27v1.12H174v-1.12a3.19,3.19,0,0,1-3.09-3.2h1.16A2,2,0,0,0,172.66,259.67Zm0.25-6.9a1.49,1.49,0,0,0-.46,1.18,1.45,1.45,0,0,0,.12.61,1.15,1.15,0,0,0,.33.42,2.11,2.11,0,0,0,.5.29,5,5,0,0,0,.63.22v-3.2A2,2,0,0,0,172.91,252.78Zm2.57,7.43a1.64,1.64,0,0,0,.56-0.32,1.41,1.41,0,0,0,.37-0.53,2,2,0,0,0,.13-0.76,1.35,1.35,0,0,0-.51-1.12,2.1,2.1,0,0,0-.56-0.32c-0.22-.09-0.45-0.17-0.7-0.24v3.43A2.78,2.78,0,0,0,175.48,260.21Z" transform="translate(-39.54 -34.38)"/>
  <path d="M71.56,286.28a4.59,4.59,0,0,1-4.53-3.7H40.37a0.82,0.82,0,0,1-.82-0.82v-37a0.82,0.82,0,0,1,.82-0.82h4a0.82,0.82,0,0,1,.82.82v32.43H67.78a4.63,4.63,0,0,1,3.78,1.94,4.63,4.63,0,0,1,3.78-1.94H97.93V244.8a0.82,0.82,0,0,1,.82-0.82h4a0.82,0.82,0,0,1,.82.82v37a0.82,0.82,0,0,1-.82.82H76.09A4.59,4.59,0,0,1,71.56,286.28Zm-30.37-5.35H67.78a0.82,0.82,0,0,1,.82.82,3,3,0,0,0,5.91,0,0.82,0.82,0,0,1,.82-0.82h26.59V245.63H99.58v32.43a0.82,0.82,0,0,1-.82.82H75.34a2.92,2.92,0,0,0-3,2.88,0.82,0.82,0,1,1-1.65,0,2.92,2.92,0,0,0-3-2.88H44.37a0.82,0.82,0,0,1-.82-0.82V245.63H41.19v35.31Z" transform="translate(-39.54 -34.38)"/>
  <path d="M71.56,282.58a0.82,0.82,0,0,1-.82-0.82,2.92,2.92,0,0,0-3-2.88H44.37a0.82,0.82,0,0,1-.82-0.82V242.48a0.82,0.82,0,0,1,.82-0.82H71.56a0.82,0.82,0,0,1,.82.82v39.28A0.82,0.82,0,0,1,71.56,282.58Zm-26.37-5.35H67.78a4.63,4.63,0,0,1,3,1.06v-35H45.19v33.93Z" transform="translate(-39.54 -34.38)"/>
  <path d="M71.56,282.58a0.82,0.82,0,0,1-.82-0.82V242.48a0.82,0.82,0,0,1,.82-0.82h13.6v1.65H72.39v35a4.63,4.63,0,0,1,3-1.06H97.93V243.3H90.4v-1.65h8.36a0.82,0.82,0,0,1,.82.82v35.58a0.82,0.82,0,0,1-.82.82H75.34a2.92,2.92,0,0,0-3,2.88A0.82,0.82,0,0,1,71.56,282.58Z" transform="translate(-39.54 -34.38)"/>
  <rect x="13.24" y="212.19" width="10.19" height="1.65"/>
  <rect x="9.38" y="220.85" width="17.91" height="1.65"/>
  <rect x="9.38" y="226" width="17.91" height="1.65"/>
  <rect x="9.38" y="231.15" width="17.91" height="1.65"/>
  <rect x="9.38" y="236.3" width="17.91" height="1.65"/>
  <rect x="36.66" y="220.85" width="8.96" height="1.65"/>
  <rect x="36.66" y="215.48" width="8.96" height="1.65"/>
  <rect x="36.66" y="226" width="8.96" height="1.65"/>
  <rect x="36.66" y="231.15" width="17.91" height="1.65"/>
  <rect x="36.66" y="236.3" width="17.91" height="1.65"/>
  <rect x="50.86" y="215.48" width="3.72" height="1.65"/>
  <rect x="50.86" y="220.85" width="3.72" height="1.65"/>
  <rect x="50.86" y="226" width="3.72" height="1.65"/>
  <path d="M85.16,243.3H80.25a0.82,0.82,0,0,1-.82-0.82,3.28,3.28,0,1,1,6.56,0A0.82,0.82,0,0,1,85.16,243.3Zm-3.86-1.65h2.81A1.63,1.63,0,0,0,81.3,241.65Z" transform="translate(-39.54 -34.38)"/>
  <path d="M90.4,264.87a0.83,0.83,0,0,1-.28,0L87.78,264l-2.34.85a0.82,0.82,0,0,1-1.11-.77V242.48a1.63,1.63,0,0,0-1.63-1.63,0.82,0.82,0,0,1,0-1.65h5.24a3.28,3.28,0,0,1,3.28,3.28V264A0.82,0.82,0,0,1,90.4,264.87Zm-4.85-24a3.26,3.26,0,0,1,.43,1.63v20.39l1.51-.55a0.82,0.82,0,0,1,.56,0l1.51,0.55V242.48a1.63,1.63,0,0,0-1.63-1.63h-2.4Z" transform="translate(-39.54 -34.38)"/>
  <path d="M292.1,375.65H256.53a3.93,3.93,0,0,1-3.92-3.92v-51.8a3.93,3.93,0,0,1,3.92-3.92H292.1a3.93,3.93,0,0,1,3.92,3.92v51.8A3.93,3.93,0,0,1,292.1,375.65Zm-35.57-58a2.28,2.28,0,0,0-2.28,2.28v51.8a2.28,2.28,0,0,0,2.28,2.28H292.1a2.28,2.28,0,0,0,2.28-2.28v-51.8a2.28,2.28,0,0,0-2.28-2.28H256.53Z" transform="translate(-39.54 -34.38)"/>
  <path d="M290,332.38H258.65a0.82,0.82,0,0,1-.82-0.82v-9.5a0.82,0.82,0,0,1,.82-0.82H290a0.82,0.82,0,0,1,.82.82v9.5A0.82,0.82,0,0,1,290,332.38Zm-30.5-1.65h29.68v-7.85H259.48v7.85Z" transform="translate(-39.54 -34.38)"/>
  <path d="M290,332.38H258.65a0.82,0.82,0,0,1-.82-0.82v-9.5a0.82,0.82,0,0,1,.82-0.82H290a0.82,0.82,0,0,1,.82.82v9.5A0.82,0.82,0,0,1,290,332.38Zm-30.5-1.65h29.68v-7.85H259.48v7.85Z" transform="translate(-39.54 -34.38)"/>
  <path d="M266.51,347.76h-7.86a0.82,0.82,0,0,1-.82-0.82v-4.25a0.82,0.82,0,0,1,.82-0.82h7.86a0.82,0.82,0,0,1,.82.82v4.25A0.82,0.82,0,0,1,266.51,347.76Zm-7-1.65h6.21v-2.6h-6.21v2.6Z" transform="translate(-39.54 -34.38)"/>
  <path d="M278.24,347.76h-7.86a0.82,0.82,0,0,1-.82-0.82v-4.25a0.82,0.82,0,0,1,.82-0.82h7.86a0.82,0.82,0,0,1,.82.82v4.25A0.82,0.82,0,0,1,278.24,347.76Zm-7-1.65h6.21v-2.6h-6.21v2.6Z" transform="translate(-39.54 -34.38)"/>
  <path d="M290,347.76h-7.86a0.82,0.82,0,0,1-.82-0.82v-4.25a0.82,0.82,0,0,1,.82-0.82H290a0.82,0.82,0,0,1,.82.82v4.25A0.82,0.82,0,0,1,290,347.76Zm-7-1.65h6.21v-2.6h-6.21v2.6Z" transform="translate(-39.54 -34.38)"/>
  <path d="M266.51,355.3h-7.86a0.82,0.82,0,0,1-.82-0.82v-4.25a0.82,0.82,0,0,1,.82-0.82h7.86a0.82,0.82,0,0,1,.82.82v4.25A0.82,0.82,0,0,1,266.51,355.3Zm-7-1.65h6.21v-2.6h-6.21v2.6Z" transform="translate(-39.54 -34.38)"/>
  <path d="M278.24,355.3h-7.86a0.82,0.82,0,0,1-.82-0.82v-4.25a0.82,0.82,0,0,1,.82-0.82h7.86a0.82,0.82,0,0,1,.82.82v4.25A0.82,0.82,0,0,1,278.24,355.3Zm-7-1.65h6.21v-2.6h-6.21v2.6Z" transform="translate(-39.54 -34.38)"/>
  <path d="M290,355.3h-7.86a0.82,0.82,0,0,1-.82-0.82v-4.25a0.82,0.82,0,0,1,.82-0.82H290a0.82,0.82,0,0,1,.82.82v4.25A0.82,0.82,0,0,1,290,355.3Zm-7-1.65h6.21v-2.6h-6.21v2.6Z" transform="translate(-39.54 -34.38)"/>
  <path d="M266.51,362.85h-7.86a0.82,0.82,0,0,1-.82-0.82v-4.25a0.82,0.82,0,0,1,.82-0.82h7.86a0.82,0.82,0,0,1,.82.82V362A0.82,0.82,0,0,1,266.51,362.85Zm-7-1.65h6.21v-2.6h-6.21v2.6Z" transform="translate(-39.54 -34.38)"/>
  <path d="M278.24,362.85h-7.86a0.82,0.82,0,0,1-.82-0.82v-4.25a0.82,0.82,0,0,1,.82-0.82h7.86a0.82,0.82,0,0,1,.82.82V362A0.82,0.82,0,0,1,278.24,362.85Zm-7-1.65h6.21v-2.6h-6.21v2.6Z" transform="translate(-39.54 -34.38)"/>
  <path d="M266.51,370.4h-7.86a0.82,0.82,0,0,1-.82-0.82v-4.25a0.82,0.82,0,0,1,.82-0.82h7.86a0.82,0.82,0,0,1,.82.82v4.25A0.82,0.82,0,0,1,266.51,370.4Zm-7-1.65h6.21v-2.6h-6.21v2.6Z" transform="translate(-39.54 -34.38)"/>
  <path d="M278.24,370.4h-7.86a0.82,0.82,0,0,1-.82-0.82v-4.25a0.82,0.82,0,0,1,.82-0.82h7.86a0.82,0.82,0,0,1,.82.82v4.25A0.82,0.82,0,0,1,278.24,370.4Zm-7-1.65h6.21v-2.6h-6.21v2.6Z" transform="translate(-39.54 -34.38)"/>
  <path d="M290,370.4h-7.86a0.82,0.82,0,0,1-.82-0.82v-11.8a0.82,0.82,0,0,1,.82-0.82H290a0.82,0.82,0,0,1,.82.82v11.8A0.82,0.82,0,0,1,290,370.4Zm-7-1.65h6.21V358.6h-6.21v10.15Z" transform="translate(-39.54 -34.38)"/>
  <rect x="228.29" y="300.74" width="12.97" height="1.65"/>
  <path class="cls-2" d="M203.88,336.37A16.33,16.33,0,0,1,176.23,353v3.18a16.32,16.32,0,1,1-32.65,0v-18a0.94,0.94,0,0,1,.94-0.94h24.37l-2.09-5.05a0.94,0.94,0,0,1,.51-1.22l28.42-11.78a0.94,0.94,0,0,1,1.23.51l6.91,16.67h0Zm-29.51,19.86v-6c-0.23-.44-0.45-0.89-0.64-1.36l-4-9.74H145.47v17.11a14.45,14.45,0,1,0,28.9,0h0Zm20-.26a14.46,14.46,0,0,0,7.82-18.88l-6.55-15.81-26.69,11.06,6.54,15.8A14.44,14.44,0,0,0,194.32,356h0ZM179,335.12a2,2,0,1,1-1.11,2.68,2,2,0,0,1,1.11-2.68h0Zm9.84,7.08c6.26-2.59,10.76,2.29,10.8,2.34a0.94,0.94,0,0,1-1.39,1.26,7.9,7.9,0,0,0-8.69-1.87,8.58,8.58,0,0,0-5.13,7.64,0.94,0.94,0,0,1-1.87,0c0-.28.06-6.79,6.29-9.37h0Zm3.21-8a2.05,2.05,0,1,1,1.11-2.68,2.05,2.05,0,0,1-1.11,2.68h0Zm-23.38,22.66a0.94,0.94,0,0,1,.51,1.22c-0.1.25-2.65,6.26-9.4,6.26s-9.06-6.24-9.08-6.3a0.94,0.94,0,0,1,1.77-.63,7.89,7.89,0,0,0,7.32,5.05c5.5,0,7.65-5,7.67-5.09a0.94,0.94,0,0,1,1.22-.51h0Zm-2.51-7.18a2,2,0,1,1,2.05-2.05,2.05,2.05,0,0,1-2.05,2.05h0Zm-12.42,0a2,2,0,1,1,2.05-2.05,2,2,0,0,1-2.05,2.05h0Z" transform="translate(-39.54 -34.38)"/>
  <path d="M42.42,321.22a1,1,0,0,1-1-1,1,1,0,0,1,1-1l57.87-.09h0a1,1,0,0,1,0,2l-57.87.08h0Z" transform="translate(-39.54 -34.38)"/>
  <path d="M47.79,328.86a1,1,0,0,1-.72-0.31l-2.33-2.42a1,1,0,0,1-.28-0.69v-1.83a1,1,0,1,1,2,0V325l2.05,2.13A1,1,0,0,1,47.79,328.86Z" transform="translate(-39.54 -34.38)"/>
  <path d="M93.36,329.13a1,1,0,0,1-.72-1.69l2.05-2.13v-1.43a1,1,0,0,1,2,0v1.83a1,1,0,0,1-.28.69l-2.33,2.42A1,1,0,0,1,93.36,329.13Z" transform="translate(-39.54 -34.38)"/>
  <path d="M49,342.62a6,6,0,0,1-2.65-.59,6.61,6.61,0,0,1-3.3-4.22,8,8,0,0,1,.62-6.22,7.42,7.42,0,0,1,4-3.22c0.83-.28,5.8-0.24,19.37,0,4.07,0.07,7.92.14,9.94,0.14a1,1,0,0,1,0,2c-2,0-5.71-.07-10-0.14-7-.12-17.58-0.31-18.73-0.09a5.5,5.5,0,0,0-2.89,2.35,6,6,0,0,0-.41,4.63,4.65,4.65,0,0,0,2.26,3,4.9,4.9,0,0,0,5.38-1.15,3.29,3.29,0,0,0,.3-4.2,3.07,3.07,0,0,0-2.75-1.31,1.94,1.94,0,0,0-1.75,1.09,2.28,2.28,0,0,0,.35,1.78,1.62,1.62,0,0,0,1.1,0,0.94,0.94,0,0,0-.06-0.31,1,1,0,1,1,1.89-.65A2.13,2.13,0,0,1,51.2,338a3.36,3.36,0,0,1-3.37.22c-1.37-.74-1.73-3.19-1.23-4.34a3.86,3.86,0,0,1,3.47-2.28,5,5,0,0,1,4.59,2.29,5.3,5.3,0,0,1-.56,6.57A7,7,0,0,1,49,342.62Z" transform="translate(-39.54 -34.38)"/>
  <path d="M95.41,342.75a7,7,0,0,1-5.08-2.18,5.3,5.3,0,0,1-.56-6.57,5,5,0,0,1,4.59-2.29A3.86,3.86,0,0,1,97.83,334c0.5,1.14.14,3.59-1.23,4.34a3.36,3.36,0,0,1-3.37-.22,2.13,2.13,0,0,1-.52-2.47,1,1,0,1,1,1.89.65,0.93,0.93,0,0,0-.06.31,1.62,1.62,0,0,0,1.1,0A2.29,2.29,0,0,0,96,334.8a1.94,1.94,0,0,0-1.75-1.09A3.07,3.07,0,0,0,91.5,335a3.29,3.29,0,0,0,.3,4.2,4.9,4.9,0,0,0,5.38,1.15,4.65,4.65,0,0,0,2.26-3,6,6,0,0,0-.41-4.63,5.49,5.49,0,0,0-2.9-2.35c-0.9-.22-7.74-0.09-12.73,0-3,.06-5.91.11-8,0.11a1,1,0,0,1,0-2c2,0,4.89-.05,7.93-0.11,8.43-.15,12.5-0.19,13.38.1a7.42,7.42,0,0,1,4,3.22,8,8,0,0,1,.62,6.22,6.61,6.61,0,0,1-3.3,4.22A6,6,0,0,1,95.41,342.75Z" transform="translate(-39.54 -34.38)"/>
  <path d="M86,338.94H58.19a1,1,0,0,1,0-2H86A1,1,0,0,1,86,338.94Z" transform="translate(-39.54 -34.38)"/>
  <path d="M53.19,372.18a1,1,0,0,1-1-1V343.87a1,1,0,1,1,2,0v27.31A1,1,0,0,1,53.19,372.18Z" transform="translate(-39.54 -34.38)"/>
  <path d="M89,372.58a1,1,0,0,1-1-1V343.73a1,1,0,1,1,2,0v27.85A1,1,0,0,1,89,372.58Z" transform="translate(-39.54 -34.38)"/>
  <path d="M60.75,372.25H60.68c-2.26,0-4.1-1.49-4.1-3.33V350.79c0-1.84,1.84-3.33,4.1-3.33h0.07c2.26,0,4.1,1.49,4.1,3.33v18.12C64.85,370.75,63,372.25,60.75,372.25Zm-0.07-22.78c-1.24,0-2.1.7-2.1,1.33v18.12c0,0.63.86,1.33,2.1,1.33h0.07c1.24,0,2.1-.7,2.1-1.33V350.79c0-.63-0.86-1.33-2.1-1.33H60.68Z" transform="translate(-39.54 -34.38)"/>
  <path d="M71.14,372.25H71.08c-2.26,0-4.1-1.49-4.1-3.33V350.79c0-1.84,1.84-3.33,4.1-3.33h0.07c2.26,0,4.1,1.49,4.1,3.33v18.12C75.24,370.75,73.4,372.25,71.14,372.25Zm-0.07-22.78c-1.24,0-2.1.7-2.1,1.33v18.12c0,0.63.86,1.33,2.1,1.33h0.07c1.24,0,2.1-.7,2.1-1.33V350.79c0-.63-0.86-1.33-2.1-1.33H71.08Z" transform="translate(-39.54 -34.38)"/>
  <path d="M81.54,372.25H81.47c-2.26,0-4.1-1.49-4.1-3.33V350.79c0-1.84,1.84-3.33,4.1-3.33h0.07c2.26,0,4.1,1.49,4.1,3.33v18.12C85.63,370.75,83.79,372.25,81.54,372.25Zm-0.07-22.78c-1.24,0-2.1.7-2.1,1.33v18.12c0,0.63.86,1.33,2.1,1.33h0.07c1.24,0,2.1-.7,2.1-1.33V350.79c0-.63-0.86-1.33-2.1-1.33H81.47Z" transform="translate(-39.54 -34.38)"/>
</svg>