<?xml version="1.0" encoding="utf-8"?>
<svg viewBox="103.4 205.9 72.2 72.2" width="62.7701" height="44.84" xmlns="http://www.w3.org/2000/svg">
  <defs>
    <style>.cls-1{fill:none;stroke:#000;stroke-linejoin:round;stroke-width:1.5px;}.cls-2{fill:#231f20;}</style>
  </defs>
  <path d="M 169.95 255.39 L 108.82 255.39 C 108.367 255.39 108 255.023 108 254.57 L 108 250.43 C 108 249.977 108.367 249.61 108.82 249.61 L 169.95 249.61 C 170.403 249.61 170.77 249.977 170.77 250.43 L 170.77 254.57 C 170.77 255.023 170.403 255.39 169.95 255.39 Z M 109.65 253.74 L 169.13 253.74 L 169.13 251.25 L 109.64 251.25 L 109.64 253.74 L 109.65 253.74 Z"/>
  <path d="M 169.95 259.68 L 108.82 259.68 C 108.367 259.68 108 259.313 108 258.86 L 108 254.62 C 108 254.167 108.367 253.8 108.82 253.8 L 169.95 253.8 C 170.403 253.8 170.77 254.167 170.77 254.62 L 170.77 258.86 C 170.77 259.313 170.403 259.68 169.95 259.68 Z M 109.65 258.03 L 169.13 258.03 L 169.13 255.44 L 109.64 255.44 L 109.64 258.03 L 109.65 258.03 Z"/>
  <path d="M 169.95 263.84 L 108.82 263.84 C 108.367 263.84 108 263.473 108 263.02 L 108 258.82 C 108 258.367 108.367 258 108.82 258 L 169.95 258 C 170.403 258 170.77 258.367 170.77 258.82 L 170.77 263.02 C 170.77 263.473 170.403 263.84 169.95 263.84 Z M 109.65 262.19 L 169.13 262.19 L 169.13 259.68 L 109.64 259.68 L 109.64 262.23 L 109.65 262.19 Z"/>
  <path d="M 169.95 251.21 L 108.82 251.21 C 108.367 251.21 108 250.843 108 250.39 L 108 219.82 C 108 219.367 108.367 219 108.82 219 L 169.95 219 C 170.403 219 170.77 219.367 170.77 219.82 L 170.77 250.38 C 170.776 250.837 170.407 251.21 169.95 251.21 Z M 109.65 249.56 L 169.13 249.56 L 169.13 220.68 L 109.64 220.68 L 109.64 249.6 L 109.65 249.56 Z"/>
  <path d="M 130.43 247.46 L 116.49 247.46 C 116.037 247.46 115.67 247.093 115.67 246.64 C 115.67 244.933 114.287 243.55 112.58 243.55 C 112.127 243.55 111.76 243.183 111.76 242.73 L 111.76 227.49 C 111.76 227.037 112.127 226.67 112.58 226.67 C 114.287 226.67 115.67 225.287 115.67 223.58 C 115.67 223.127 116.037 222.76 116.49 222.76 L 154.23 222.76 L 154.23 224.41 L 117.23 224.41 C 116.88 226.368 115.348 227.9 113.39 228.25 L 113.39 241.97 C 115.348 242.32 116.88 243.852 117.23 245.81 L 130.43 245.81 L 130.43 247.46 Z"/>
  <path d="M 162.28 247.46 L 130.43 247.46 L 130.43 245.81 L 161.53 245.81 C 161.88 243.852 163.412 242.32 165.37 241.97 L 165.37 228.25 C 163.412 227.9 161.88 226.368 161.53 224.41 L 154.23 224.41 L 154.23 222.76 L 162.28 222.76 C 162.733 222.76 163.1 223.127 163.1 223.58 C 163.1 225.287 164.483 226.67 166.19 226.67 C 166.643 226.67 167.01 227.037 167.01 227.49 L 167.01 242.68 C 167.01 243.133 166.643 243.5 166.19 243.5 C 164.483 243.5 163.1 244.883 163.1 246.59 C 163.129 247.062 162.753 247.461 162.28 247.46 Z"/>
  <rect x="147.81" y="234.28" width="13.41" height="1.65"/>
  <rect x="117.55" y="234.28" width="13.41" height="1.65"/>
  <rect x="146.71" y="238.44" width="7.95" height="1.65"/>
  <rect x="124.1" y="238.44" width="7.95" height="1.65"/>
  <rect x="146.71" y="230.13" width="7.95" height="1.65"/>
  <rect x="124.1" y="230.13" width="7.95" height="1.65"/>
  <path d="M 139.38 244.36 C 132.259 244.36 127.809 236.652 131.369 230.485 C 134.93 224.318 143.83 224.318 147.391 230.485 C 148.203 231.891 148.63 233.486 148.63 235.11 C 148.625 240.216 144.486 244.354 139.38 244.36 Z M 139.38 227.5 C 133.53 227.5 129.873 233.833 132.798 238.9 C 135.723 243.967 143.037 243.967 145.962 238.9 C 146.627 237.748 146.978 236.441 146.98 235.11 C 146.98 230.911 143.579 227.506 139.38 227.5 Z"/>
  <path d="M 137.69 238.35 C 138.062 238.711 138.537 238.945 139.05 239.02 L 139.05 235.4 C 138.625 235.3 138.207 235.169 137.8 235.01 C 137.481 234.888 137.184 234.716 136.92 234.5 C 136.691 234.307 136.516 234.06 136.41 233.78 C 136.172 233.08 136.19 232.318 136.46 231.63 C 136.739 230.961 137.271 230.429 137.94 230.15 C 138.29 230.003 138.661 229.915 139.04 229.89 L 139.04 228.99 L 139.79 228.99 L 139.79 229.91 C 140.455 229.968 141.078 230.258 141.55 230.73 C 142.027 231.263 142.349 231.917 142.48 232.62 L 141.32 232.62 C 141.226 231.806 140.6 231.155 139.79 231.03 L 139.79 234.39 L 140.61 234.61 C 140.83 234.67 141.044 234.751 141.25 234.85 C 141.508 234.972 141.747 235.13 141.96 235.32 C 142.197 235.533 142.394 235.787 142.54 236.07 C 142.707 236.405 142.79 236.776 142.78 237.15 C 142.785 237.558 142.707 237.963 142.55 238.34 C 142.407 238.679 142.196 238.985 141.93 239.24 C 141.656 239.493 141.337 239.694 140.99 239.83 C 140.606 239.979 140.201 240.07 139.79 240.1 L 139.79 241.22 L 139.03 241.22 L 139.03 240.1 C 137.304 240.046 135.934 238.627 135.94 236.9 L 137.1 236.9 C 137.091 237.443 137.305 237.967 137.69 238.35 Z M 137.94 231.45 C 137.619 231.755 137.45 232.188 137.48 232.63 C 137.475 232.84 137.516 233.048 137.6 233.24 C 137.676 233.404 137.789 233.548 137.93 233.66 C 138.083 233.779 138.251 233.877 138.43 233.95 C 138.635 234.037 138.845 234.111 139.06 234.17 L 139.06 230.97 C 138.645 231.012 138.253 231.184 137.94 231.46 L 137.94 231.45 Z M 140.51 238.88 C 140.716 238.811 140.906 238.703 141.07 238.56 C 141.233 238.414 141.359 238.233 141.44 238.03 C 141.532 237.787 141.576 237.529 141.57 237.27 C 141.59 236.836 141.4 236.42 141.06 236.15 C 140.891 236.015 140.702 235.907 140.5 235.83 C 140.28 235.74 140.05 235.66 139.8 235.59 L 139.8 239.02 C 140.041 239.008 140.28 238.964 140.51 238.89 L 140.51 238.88 Z"/>
</svg>