<?xml version="1.0" encoding="utf-8"?>
<svg viewBox="401.5 0 72.2 72.2" width="53.6" height="65.3201" xmlns="http://www.w3.org/2000/svg">
  <defs>
    <style>.cls-1{fill:none;stroke:#000;stroke-linejoin:round;stroke-width:1.5px;}.cls-2{fill:#231f20;}</style>
  </defs>
  <path d="M 436.77 33.37 C 431.959 33.385 428.935 28.187 431.327 24.012 C 433.72 19.838 439.734 19.819 442.153 23.978 C 442.708 24.932 443 26.016 443 27.12 C 442.995 30.562 440.212 33.354 436.77 33.37 Z M 436.77 22.52 C 433.229 22.52 431.016 26.353 432.786 29.42 C 434.557 32.487 438.983 32.487 440.754 29.42 C 441.157 28.721 441.37 27.927 441.37 27.12 C 441.364 24.582 439.308 22.525 436.77 22.52 Z"/>
  <path d="M 443.07 69.32 L 430.47 69.32 C 430.017 69.32 429.65 68.953 429.65 68.5 L 429.65 55.22 L 427.07 55.22 C 426.617 55.22 426.25 54.853 426.25 54.4 L 426.25 40.55 C 426.269 36.109 429.067 32.155 433.25 30.66 C 433.513 30.564 433.808 30.609 434.03 30.78 C 435.673 32.039 437.957 32.039 439.6 30.78 C 439.822 30.609 440.117 30.564 440.38 30.66 C 444.563 32.155 447.361 36.109 447.38 40.55 L 447.38 54.4 C 447.38 54.853 447.013 55.22 446.56 55.22 L 443.9 55.22 L 443.9 68.5 C 443.9 68.957 443.527 69.326 443.07 69.32 Z M 431.3 67.67 L 442.25 67.67 L 442.25 54.4 C 442.25 53.947 442.617 53.58 443.07 53.58 L 445.65 53.58 L 445.65 40.58 C 445.639 36.996 443.479 33.767 440.17 32.39 C 438.104 33.739 435.436 33.739 433.37 32.39 C 430.061 33.767 427.901 36.996 427.89 40.58 L 427.89 53.62 L 430.47 53.62 C 430.923 53.62 431.29 53.987 431.29 54.44 L 431.29 67.67 L 431.3 67.67 Z"/>
  <path d="M 431.28 55.22 L 429.4 55.22 L 429.4 53.62 L 430.45 53.62 L 430.45 40.48 L 432.1 40.48 L 432.1 54.4 C 432.1 54.853 431.733 55.22 431.28 55.22 Z"/>
  <path d="M 443.77 55.22 L 442.29 55.22 C 441.837 55.22 441.47 54.853 441.47 54.4 L 441.47 40.48 L 443.12 40.48 L 443.12 53.62 L 443.77 53.62 L 443.77 55.22 Z"/>
  <rect x="427.41" y="46.76" width="1.65" height="17.73" transform="matrix(1, 0, 0, 1, 8.540006, 4)"/>
  <path d="M 451.14 53.17 C 450.431 53.172 449.751 52.891 449.25 52.39 L 447.67 50.81 L 446.86 51.24 C 446.309 51.528 445.65 51.122 445.66 50.5 L 445.66 43.13 C 445.658 42.877 445.772 42.637 445.97 42.48 C 454.986 35.402 452.958 21.218 442.32 16.949 C 431.682 12.681 420.413 21.529 422.035 32.876 C 422.578 36.672 424.564 40.112 427.58 42.48 C 427.778 42.637 427.892 42.877 427.89 43.13 L 427.89 50.5 C 427.9 51.122 427.241 51.528 426.69 51.24 L 425.88 50.81 L 424.3 52.39 C 423.253 53.437 421.557 53.437 420.51 52.39 L 415.16 47.04 C 414.113 45.993 414.113 44.297 415.16 43.25 L 416.88 41.53 C 416.174 40.162 415.611 38.724 415.2 37.24 L 412.68 37.24 C 411.2 37.24 410 36.04 410 34.56 L 410 26.99 C 410 25.51 411.2 24.31 412.68 24.31 L 415.48 24.31 C 415.925 22.923 416.504 21.584 417.21 20.31 L 415.21 18.31 C 414.163 17.263 414.163 15.567 415.21 14.52 L 420.56 9.17 C 421.607 8.123 423.303 8.123 424.35 9.17 L 426.53 11.35 C 427.753 10.717 429.032 10.198 430.35 9.8 L 430.35 6.68 C 430.35 5.212 431.532 4.016 433 4 L 440.57 4 C 442.05 4 443.25 5.2 443.25 6.68 L 443.25 9.8 C 444.568 10.198 445.847 10.717 447.07 11.35 L 449.25 9.17 C 450.297 8.123 451.993 8.123 453.04 9.17 L 458.39 14.52 C 459.437 15.567 459.437 17.263 458.39 18.31 L 456.39 20.31 C 457.096 21.584 457.675 22.923 458.12 24.31 L 460.92 24.31 C 462.4 24.31 463.6 25.51 463.6 26.99 L 463.6 34.56 C 463.6 36.04 462.4 37.24 460.92 37.24 L 458.4 37.24 C 457.99 38.724 457.427 40.162 456.72 41.53 L 458.44 43.25 C 459.487 44.297 459.487 45.993 458.44 47.04 L 453 52.38 C 452.508 52.878 451.84 53.162 451.14 53.17 Z M 447.8 48.95 C 448.018 48.95 448.226 49.036 448.38 49.19 L 450.38 51.19 C 450.789 51.579 451.431 51.579 451.84 51.19 L 457.19 45.84 C 457.612 45.445 457.612 44.775 457.19 44.38 L 455.04 42.23 C 454.769 41.968 454.712 41.556 454.9 41.23 C 455.787 39.639 456.459 37.937 456.9 36.17 C 456.988 35.8 457.319 35.539 457.7 35.54 L 460.86 35.54 C 461.412 35.54 461.86 35.092 461.86 34.54 L 461.86 26.99 C 461.86 26.438 461.412 25.99 460.86 25.99 L 457.45 25.99 C 457.085 25.991 456.762 25.751 456.66 25.4 C 456.178 23.726 455.486 22.12 454.6 20.62 C 454.406 20.298 454.456 19.887 454.72 19.62 L 457.21 17.13 C 457.632 16.735 457.632 16.065 457.21 15.67 L 451.86 10.32 C 451.452 9.938 450.818 9.938 450.41 10.32 L 447.79 12.94 C 447.527 13.207 447.117 13.265 446.79 13.08 C 445.334 12.273 443.786 11.646 442.18 11.21 C 441.818 11.114 441.567 10.785 441.57 10.41 L 441.57 6.68 C 441.57 6.128 441.122 5.68 440.57 5.68 L 433 5.68 C 432.448 5.68 432 6.128 432 6.68 L 432 10.42 C 432.003 10.795 431.752 11.124 431.39 11.22 C 429.784 11.656 428.236 12.284 426.78 13.09 C 426.453 13.275 426.043 13.217 425.78 12.95 L 423.16 10.33 C 422.751 9.941 422.109 9.941 421.7 10.33 L 416.35 15.68 C 415.928 16.075 415.928 16.745 416.35 17.14 L 418.82 19.62 C 419.087 19.884 419.141 20.296 418.95 20.62 C 418.065 22.104 417.369 23.693 416.88 25.35 C 416.778 25.701 416.455 25.941 416.09 25.94 L 412.68 25.94 C 412.128 25.94 411.68 26.388 411.68 26.94 L 411.68 34.51 C 411.68 35.062 412.128 35.51 412.68 35.51 L 415.84 35.51 C 416.221 35.509 416.552 35.77 416.64 36.14 C 417.081 37.907 417.753 39.609 418.64 41.2 C 418.828 41.526 418.771 41.938 418.5 42.2 L 416.35 44.35 C 415.928 44.745 415.928 45.415 416.35 45.81 L 421.7 51.16 C 422.109 51.549 422.751 51.549 423.16 51.16 L 425.16 49.16 C 425.424 48.893 425.836 48.839 426.16 49.03 L 426.24 49.03 L 426.24 43.52 C 416.421 35.414 419.059 19.719 430.989 15.268 C 442.918 10.818 455.192 20.95 453.081 33.507 C 452.421 37.431 450.369 40.986 447.3 43.52 L 447.3 49.11 L 447.37 49.11 C 447.495 49.017 447.644 48.961 447.8 48.95 Z"/>
</svg>