<?xml version="1.0" encoding="utf-8"?>
<svg viewBox="301.6 284.2 72.2 72.2" width="62.1738" height="54.7296" xmlns="http://www.w3.org/2000/svg">
  <defs>
    <style>.cls-1{fill:none;stroke:#000;stroke-linejoin:round;stroke-width:1.5px;}.cls-2{fill:#231f20;}</style>
  </defs>
  <path d="M 317.73 335.473 C 311.254 335.467 306.006 330.219 306 323.743 C 306 323.29 306.367 322.923 306.82 322.923 L 328.64 322.923 C 329.093 322.923 329.46 323.29 329.46 323.743 C 329.454 330.219 324.206 335.467 317.73 335.473 Z M 307.73 324.573 C 308.376 332.306 317.151 336.439 323.524 332.013 C 325.994 330.298 327.57 327.57 327.82 324.573 L 307.69 324.573 L 307.73 324.573 Z"/>
  <rect x="317.77" y="298.223" width="19.31" height="1.65"/>
  <path d="M 328.57 324.573 L 306.84 324.573 C 306.242 324.576 305.842 323.957 306.09 323.413 L 316.96 298.713 C 317.206 298.132 317.989 298.035 318.37 298.539 C 318.41 298.593 318.444 298.651 318.47 298.713 L 329.34 323.413 C 329.592 323.965 329.177 324.591 328.57 324.573 Z M 308.09 322.923 L 327.3 322.923 L 317.69 301.093 L 308.09 322.923 Z"/>
  <path d="M 356.44 335.473 C 349.964 335.467 344.716 330.219 344.71 323.743 C 344.71 323.29 345.077 322.923 345.53 322.923 L 367.34 322.923 C 367.793 322.923 368.16 323.29 368.16 323.743 C 368.154 330.215 362.912 335.462 356.44 335.473 Z M 346.44 324.573 C 347.086 332.306 355.861 336.439 362.234 332.013 C 364.704 330.298 366.28 327.57 366.53 324.573 L 346.39 324.573 L 346.44 324.573 Z"/>
  <rect x="337.08" y="298.223" width="19.31" height="1.65"/>
  <path d="M 367.34 324.573 L 345.6 324.573 C 345.002 324.576 344.602 323.957 344.85 323.413 L 355.72 298.713 C 355.966 298.132 356.749 298.035 357.13 298.539 C 357.17 298.593 357.204 298.651 357.23 298.713 L 368.1 323.413 C 368.35 323.961 367.943 324.583 367.34 324.573 Z M 346.84 322.923 L 366.05 322.923 L 356.44 301.093 L 346.84 322.923 Z"/>
  <path d="M 352.38 347.733 L 322.15 347.733 C 319.914 347.602 318.658 345.099 319.89 343.228 C 320.395 342.461 321.233 341.977 322.15 341.923 L 352.38 341.923 C 354.616 342.054 355.872 344.557 354.64 346.428 C 354.135 347.195 353.297 347.679 352.38 347.733 Z M 322.15 343.563 C 321.18 343.563 320.574 344.613 321.059 345.453 C 321.284 345.843 321.7 346.083 322.15 346.083 L 352.38 346.083 C 353.35 346.083 353.956 345.033 353.471 344.193 C 353.246 343.803 352.83 343.563 352.38 343.563 L 322.15 343.563 Z"/>
  <path d="M 339.35 343.563 L 335.18 343.563 C 334.727 343.563 334.36 343.196 334.36 342.743 L 334.36 295.743 C 334.491 293.507 336.994 292.251 338.865 293.483 C 339.632 293.988 340.116 294.826 340.17 295.743 L 340.17 342.743 C 340.17 343.196 339.803 343.563 339.35 343.563 Z M 336.01 341.913 L 338.53 341.913 L 338.53 295.783 C 338.53 294.813 337.48 294.207 336.64 294.692 C 336.25 294.917 336.01 295.333 336.01 295.783 L 336.01 341.913 Z"/>
  <rect x="335.18" y="301.634" width="4.17" height="1.65"/>
</svg>