<?xml version="1.0" encoding="utf-8"?>
<svg viewBox="305.8 92 72.2 72.2" width="53.8582" height="72.2205" xmlns="http://www.w3.org/2000/svg">
  <defs>
    <style>.cls-1{fill:none;stroke:#000;stroke-linejoin:round;stroke-width:1.5px;}.cls-2{fill:#231f20;}</style>
  </defs>
  <path d="M 336.598 149.75 C 324.524 136.89 324.524 116.86 336.598 104 L 337.798 105.13 C 326.321 117.355 326.321 136.395 337.798 148.62 L 336.598 149.75 Z" style="transform-box: fill-box; transform-origin: 50% 50%;"/>
  <path d="M 346.288 149.71 L 345.088 148.58 C 356.535 136.359 356.535 117.351 345.088 105.13 L 346.288 104 C 358.332 116.857 358.332 136.853 346.288 149.71 Z" style="transform-box: fill-box; transform-origin: 50% 50%;"/>
  <rect x="345.678" y="117.33" width="20.36" height="1.65" style="transform-box: fill-box; transform-origin: 50% 50%;"/>
  <rect x="316.798" y="117.33" width="20.37" height="1.65" style="transform-box: fill-box; transform-origin: 50% 50%;"/>
  <rect x="345.678" y="134.73" width="20.36" height="1.65" style="transform-box: fill-box; transform-origin: 50% 50%;"/>
  <rect x="316.798" y="134.73" width="20.39" height="1.65" style="transform-box: fill-box; transform-origin: 50% 50%;"/>
  <path d="M 337.178 156.97 C 336.725 156.97 336.358 156.603 336.358 156.15 L 336.358 101.15 C 336.358 100.697 336.725 100.33 337.178 100.33 L 341.438 100.33 C 341.891 100.33 342.258 100.697 342.258 101.15 L 342.258 152.9 C 342.258 153.159 342.135 153.404 341.928 153.56 L 337.708 156.76 C 337.562 156.891 337.374 156.966 337.178 156.97 Z M 337.958 101.97 L 337.958 154.44 L 340.528 152.44 L 340.528 102.01 L 337.918 102.01 L 337.958 101.97 Z" style="transform-box: fill-box; transform-origin: 50% 50%;"/>
  <path d="M 345.678 156.97 C 345.497 156.97 345.322 156.91 345.178 156.8 L 340.928 153.62 C 340.721 153.464 340.599 153.219 340.598 152.96 L 340.598 101.19 C 340.598 100.737 340.965 100.37 341.418 100.37 L 345.678 100.37 C 346.131 100.37 346.498 100.737 346.498 101.19 L 346.498 156.19 C 346.477 156.627 346.116 156.971 345.678 156.97 Z M 342.238 152.53 L 344.848 154.53 L 344.848 102.01 L 342.238 102.01 L 342.238 152.52 L 342.238 152.53 Z" style="transform-box: fill-box; transform-origin: 50% 50%;"/>
  <path d="M 337.068 153.43 C 316.615 150.052 307.488 125.798 320.641 109.774 C 324.785 104.725 330.624 101.355 337.068 100.29 L 337.338 101.92 C 318.136 105.078 309.552 127.839 321.888 142.89 C 325.783 147.642 331.275 150.813 337.338 151.81 L 337.068 153.43 Z" style="transform-box: fill-box; transform-origin: 50% 50%;"/>
  <path d="M 345.818 153.42 L 345.548 151.79 C 364.751 148.632 373.334 125.871 360.999 110.82 C 357.104 106.068 351.611 102.897 345.548 101.9 L 345.808 100.27 C 366.266 103.621 375.425 127.862 362.294 143.904 C 358.143 148.975 352.285 152.358 345.818 153.42 Z" style="transform-box: fill-box; transform-origin: 50% 50%;"/>
  <path d="M 345.638 102.01 L 337.178 102.01 C 336.725 102.01 336.358 101.643 336.358 101.19 L 336.358 97.76 C 336.358 97.307 336.725 96.94 337.178 96.94 L 345.658 96.94 C 346.111 96.94 346.478 97.307 346.478 97.76 L 346.478 101.19 C 346.478 101.651 346.099 102.021 345.638 102.01 Z M 337.988 100.36 L 344.818 100.36 L 344.818 98.62 L 337.988 98.62 L 337.988 100.41 L 337.988 100.36 Z" style="transform-box: fill-box; transform-origin: 50% 50%;"/>
  <path d="M 345.638 98.62 L 337.178 98.62 C 336.725 98.62 336.358 98.253 336.358 97.8 L 336.358 95.2 C 336.218 93.606 337.378 92.193 338.968 92.02 L 343.878 92.02 C 345.464 92.193 346.623 93.6 346.488 95.19 L 346.488 97.79 C 346.494 98.259 346.107 98.637 345.638 98.62 Z M 337.988 96.97 L 344.818 96.97 L 344.818 95.19 C 344.924 94.5 344.493 93.841 343.818 93.66 L 338.908 93.66 C 338.237 93.845 337.808 94.501 337.908 95.19 L 337.908 96.97 L 337.988 96.97 Z" style="transform-box: fill-box; transform-origin: 50% 50%;"/>
  <path d="M 341.438 164.24 C 341.146 164.238 340.876 164.082 340.728 163.83 L 336.488 156.55 C 336.277 156.192 336.367 155.732 336.698 155.48 L 340.918 152.28 C 341.214 152.057 341.622 152.057 341.918 152.28 L 346.178 155.49 C 346.513 155.739 346.608 156.199 346.398 156.56 L 342.178 163.83 C 342.027 164.093 341.742 164.251 341.438 164.24 Z M 338.278 156.35 L 341.438 161.77 L 344.598 156.35 L 341.418 153.96 L 338.278 156.35 Z" style="transform-box: fill-box; transform-origin: 50% 50%;"/>
  <rect x="338.41" y="158.33" width="5.02" height="1.65" style="transform-box: fill-box; transform-origin: 50% 50%;" transform="matrix(1, 0, 0, 1, 0.5, 0)"/>
</svg>