<?xml version="1.0" encoding="utf-8"?>
<svg viewBox="102.5 4.8 72.2 72.2" width="64.6" height="55.74" xmlns="http://www.w3.org/2000/svg">
  <defs>
    <style>.cls-1{fill:none;stroke:#000;stroke-linejoin:round;stroke-width:1.5px;}.cls-2{fill:#231f20;}</style>
  </defs>
  <path d="M 158.62 68.74 L 116.08 68.74 C 115.627 68.74 115.26 68.373 115.26 67.92 C 115.232 50.361 134.223 39.356 149.443 48.111 C 149.923 48.387 150.392 48.68 150.85 48.99 L 150.85 48.92 C 150.877 46.17 153.1 43.947 155.85 43.92 C 158.47 43.996 160.618 46.02 160.85 48.63 C 162.25 49.57 167.4 53.11 169.32 55.63 C 170.004 56.352 170.451 57.266 170.6 58.25 C 170.594 60.118 169.078 61.63 167.21 61.63 C 166.91 61.63 157.86 60.86 153.94 60.52 C 152.97 60.52 152.364 61.57 152.849 62.41 C 153.074 62.8 153.49 63.04 153.94 63.04 L 154.1 63.04 L 158.6 63.93 C 160.452 64.19 161.329 66.358 160.178 67.832 C 159.794 68.323 159.236 68.648 158.62 68.74 Z M 116.92 67.09 L 158.62 67.09 C 159.22 67.09 159.596 66.44 159.295 65.92 C 159.156 65.679 158.899 65.53 158.62 65.53 L 158.46 65.53 L 153.96 64.64 C 151.729 64.44 150.551 61.899 151.84 60.067 C 152.341 59.356 153.133 58.906 154 58.84 L 154.07 58.84 C 159.15 59.28 166.86 59.93 167.26 59.95 C 168.233 59.95 169.017 59.153 169 58.18 C 168.835 57.598 168.529 57.066 168.11 56.63 C 166.56 54.63 162.11 51.4 159.86 49.9 C 159.538 49.773 159.322 49.466 159.31 49.12 C 159.316 47.222 157.808 45.664 155.91 45.61 C 154.032 45.61 152.51 47.132 152.51 49.01 C 152.516 49.65 152.707 50.275 153.06 50.81 C 153.42 51.328 153.084 52.042 152.455 52.095 C 152.226 52.114 151.999 52.036 151.83 51.88 C 139.46 41.282 120.256 48.049 117.263 64.06 C 117.076 65.061 116.961 66.073 116.92 67.09 Z" style="transform-origin: 138.54px 40.87px;"/>
  <path d="M 116.25 68.74 L 112.54 68.74 C 111.12 68.74 110.05 67.06 110.05 64.84 L 110.05 49.14 C 110.05 47.87 109.42 46.89 108.87 46.89 L 106.87 46.89 L 106.87 45.24 L 108.87 45.24 C 110.46 45.24 111.7 46.95 111.7 49.14 L 111.7 64.84 C 111.7 66.32 112.32 67.09 112.54 67.09 L 116.25 67.09 L 116.25 68.74 Z" style="transform-origin: 138.54px 40.87px;"/>
  <path d="M 137.84 67.96 L 136.39 67.17 C 138.597 63.112 136.521 58.05 132.1 56.71 L 132.58 55.13 C 138.003 56.773 140.549 62.983 137.84 67.96 Z" style="transform-origin: 138.54px 40.87px;"/>
  <path d="M 126.53 57.28 L 125.74 55.84 C 126.928 55.196 128.249 54.833 129.6 54.78 L 129.67 56.43 C 128.572 56.47 127.498 56.761 126.53 57.28 Z" style="transform-origin: 138.54px 40.87px;"/>
  <rect x="156.55" y="44.7" width="1.41" height="1.65" style="transform-origin: 135px 32.65px;" transform="matrix(1, 0, 0, 1, 3.540005, 8.22)"/>
  <path d="M 160.63 37.84 L 118.09 37.84 C 116.219 37.875 115.013 35.871 115.918 34.234 C 116.338 33.474 117.132 32.996 118 32.98 L 122.5 32.09 L 122.66 32.09 C 123.63 32.09 124.236 31.04 123.751 30.2 C 123.526 29.81 123.11 29.57 122.66 29.57 C 118.74 29.91 109.66 30.68 109.39 30.68 C 107.533 30.68 106.022 29.187 106 27.33 C 106.149 26.346 106.596 25.432 107.28 24.71 C 109.2 22.21 114.35 18.71 115.75 17.71 C 115.982 15.1 118.13 13.076 120.75 13 C 123.5 13.027 125.723 15.25 125.75 18 L 125.75 18.14 C 140.294 8.302 160.034 17.898 161.282 35.413 C 161.322 35.964 161.341 36.517 161.34 37.07 C 161.319 37.464 161.021 37.788 160.63 37.84 Z M 122.75 33.72 L 118.25 34.61 L 118.09 34.61 C 117.49 34.61 117.114 35.26 117.414 35.78 C 117.554 36.021 117.811 36.17 118.09 36.17 L 159.79 36.17 C 159.131 19.894 141.1 10.435 127.335 19.144 C 126.481 19.684 125.668 20.284 124.9 20.94 C 124.477 21.413 123.699 21.251 123.501 20.648 C 123.409 20.368 123.474 20.06 123.67 19.84 C 124.023 19.305 124.214 18.68 124.22 18.04 C 124.22 16.162 122.698 14.64 120.82 14.64 C 118.922 14.694 117.414 16.252 117.42 18.15 C 117.408 18.496 117.192 18.803 116.87 18.93 C 114.59 20.44 110.17 23.62 108.62 25.67 C 108.199 26.105 107.894 26.638 107.73 27.22 C 107.73 28.181 108.509 28.96 109.47 28.96 C 109.85 28.96 117.55 28.29 122.64 27.85 L 122.71 27.85 C 124.989 27.835 126.429 30.292 125.303 32.273 C 124.781 33.192 123.808 33.763 122.75 33.77 L 122.75 33.72 Z" style="transform-origin: 138.54px 40.87px;"/>
  <path d="M 164.17 37.84 L 160.46 37.84 L 160.46 36.24 L 164.17 36.24 C 164.39 36.24 165.01 35.47 165.01 33.99 L 165.01 18.28 C 165.01 16.09 166.25 14.38 167.84 14.38 L 169.84 14.38 L 169.84 16.04 L 167.84 16.04 C 167.29 16.04 166.66 17.04 166.66 18.29 L 166.66 33.99 C 166.66 36.21 165.59 37.84 164.17 37.84 Z" style="transform-origin: 138.54px 40.87px;"/>
  <path d="M 138.87 37.11 C 136.169 32.138 138.707 25.939 144.12 24.29 L 144.6 25.84 C 140.179 27.18 138.103 32.242 140.31 36.3 L 138.87 37.11 Z" style="transform-origin: 138.54px 40.87px;"/>
  <path d="M 150.18 26.43 C 149.213 25.907 148.139 25.613 147.04 25.57 L 147.11 23.92 C 148.471 23.969 149.802 24.331 151 24.98 L 150.18 26.43 Z" style="transform-origin: 138.54px 40.87px;"/>
  <rect x="115.2" y="22.07" width="1.41" height="1.65" style="transform-origin: 138.54px 40.87px;"/>
</svg>