<?xml version="1.0" encoding="utf-8"?>
<svg viewBox="104 284.7 72.2 72.2" width="61.5013" height="53.387" xmlns="http://www.w3.org/2000/svg">
  <defs>
    <style>.cls-1{fill:none;stroke:#000;stroke-linejoin:round;stroke-width:1.5px;}.cls-2{fill:#231f20;}</style>
  </defs>
  <path class="cls-2" d="M 169.3 311.252 C 174.032 322.898 164.382 335.3 151.93 333.575 C 147.916 333.019 144.252 330.99 141.65 327.882 L 141.65 331.062 C 141.65 343.629 128.046 351.483 117.163 345.2 C 112.112 342.284 109 336.894 109 331.062 L 109 313.062 C 109 312.543 109.421 312.122 109.94 312.122 L 134.31 312.122 L 132.22 307.072 C 132.027 306.594 132.254 306.05 132.73 305.852 L 161.15 294.072 C 161.631 293.872 162.182 294.101 162.38 294.582 L 169.29 311.252 L 169.3 311.252 Z M 139.79 331.112 L 139.79 325.112 C 139.56 324.672 139.34 324.222 139.15 323.752 L 135.15 314.012 L 110.89 314.012 L 110.89 331.122 C 110.89 342.246 122.932 349.198 132.565 343.636 C 137.036 341.055 139.79 336.284 139.79 331.122 L 139.79 331.112 Z M 159.79 330.852 C 167.159 327.794 170.658 319.345 167.61 311.972 L 161.06 296.162 L 134.37 307.222 L 140.91 323.022 C 143.944 330.387 152.37 333.904 159.74 330.882 L 159.79 330.852 Z M 144.42 310.002 C 145.857 309.45 147.353 310.661 147.113 312.181 C 146.872 313.702 145.076 314.392 143.879 313.424 C 143.633 313.225 143.438 312.971 143.31 312.682 C 142.844 311.636 143.351 310.413 144.42 310.002 Z M 154.26 317.082 C 160.52 314.492 165.02 319.372 165.06 319.422 C 165.51 319.988 165.179 320.83 164.463 320.937 C 164.174 320.98 163.88 320.886 163.67 320.682 C 161.432 318.334 157.986 317.592 154.98 318.812 C 151.933 320.149 149.934 323.126 149.85 326.452 C 149.775 327.172 148.95 327.541 148.364 327.116 C 148.147 326.96 148.008 326.718 147.98 326.452 C 147.98 326.172 148.04 319.662 154.27 317.082 L 154.26 317.082 Z M 157.47 309.082 C 156.012 309.685 154.447 308.483 154.654 306.919 C 154.861 305.354 156.684 304.601 157.935 305.562 C 158.22 305.781 158.442 306.07 158.58 306.402 C 159.014 307.449 158.517 308.649 157.47 309.082 Z M 134.09 331.742 C 134.566 331.94 134.793 332.484 134.6 332.962 C 134.5 333.212 131.95 339.222 125.2 339.222 C 118.45 339.222 116.14 332.982 116.12 332.922 C 115.902 332.232 116.513 331.565 117.219 331.721 C 117.524 331.788 117.775 332.002 117.89 332.292 C 119.059 335.321 121.963 337.325 125.21 337.342 C 130.71 337.342 132.86 332.342 132.88 332.252 C 133.078 331.776 133.622 331.549 134.1 331.742 L 134.09 331.742 Z M 131.58 324.562 C 130.041 324.523 129.121 322.833 129.924 321.519 C 130.728 320.206 132.652 320.254 133.387 321.607 C 133.539 321.885 133.622 322.195 133.63 322.512 C 133.63 323.644 132.712 324.562 131.58 324.562 Z M 119.16 324.562 C 117.621 324.523 116.701 322.833 117.504 321.519 C 118.308 320.206 120.232 320.254 120.967 321.607 C 121.119 321.885 121.202 322.195 121.21 322.512 C 121.239 323.656 120.304 324.591 119.16 324.562 Z"/>
</svg>