<?xml version="1.0" encoding="utf-8"?>
<svg viewBox="101.3 99.7 72.2 72.2" width="67.0344" height="56.7749" xmlns="http://www.w3.org/2000/svg">
  <defs>
    <style>.cls-1{fill:none;stroke:#000;stroke-linejoin:round;stroke-width:1.5px;}.cls-2{fill:#231f20;}</style>
  </defs>
  <path d="M 137.159 142.056 C 132.494 142.056 129.579 137.006 131.911 132.966 C 134.244 128.926 140.075 128.926 142.408 132.966 C 142.939 133.887 143.219 134.932 143.219 135.996 C 143.214 139.341 140.504 142.05 137.159 142.056 Z M 137.159 131.586 C 133.765 131.586 131.643 135.261 133.34 138.201 C 135.038 141.141 139.281 141.141 140.979 138.201 C 141.366 137.531 141.569 136.77 141.569 135.996 C 141.564 133.563 139.593 131.591 137.159 131.586 Z"/>
  <path d="M 117.889 164.776 C 114.21 164.776 111.91 160.793 113.75 157.606 C 115.59 154.419 120.189 154.419 122.029 157.606 C 122.449 158.333 122.669 159.157 122.669 159.996 C 122.669 162.636 120.529 164.776 117.889 164.776 Z M 117.889 156.866 C 115.48 156.866 113.974 159.474 115.179 161.561 C 116.384 163.648 119.395 163.648 120.6 161.561 C 120.875 161.085 121.019 160.545 121.019 159.996 C 120.998 158.283 119.603 156.906 117.889 156.906 L 117.889 156.866 Z"/>
  <path d="M 124.079 163.976 C 122.889 163.976 121.709 163.756 120.599 163.326 C 120.069 163.124 119.9 162.457 120.269 162.026 C 121.816 160.179 120.784 157.35 118.41 156.933 C 117.592 156.79 116.749 156.978 116.069 157.456 C 115.608 157.79 114.955 157.564 114.799 157.016 C 113.965 154.177 114.485 151.111 116.209 148.706 L 142.389 112.066 C 146.712 105.996 155.984 106.882 159.08 113.66 C 160.516 116.806 160.165 120.479 158.159 123.296 L 131.939 159.906 C 130.129 162.451 127.203 163.967 124.079 163.976 Z M 122.179 162.096 C 125.36 162.878 128.696 161.642 130.599 158.976 L 156.779 122.336 C 160.483 117.415 157.471 110.331 151.358 109.584 C 148.389 109.222 145.465 110.545 143.779 113.016 L 117.559 149.656 C 116.345 151.359 115.846 153.47 116.169 155.536 C 119.611 154.235 123.171 157.147 122.577 160.778 C 122.503 161.236 122.362 161.679 122.159 162.096 L 122.179 162.096 Z"/>
  <path d="M 167.259 145.666 C 163.58 145.666 161.28 141.683 163.12 138.496 C 164.96 135.309 169.559 135.309 171.399 138.496 C 171.819 139.223 172.039 140.047 172.039 140.886 C 172.039 143.526 169.899 145.666 167.259 145.666 Z M 167.259 137.756 C 164.85 137.756 163.344 140.364 164.549 142.451 C 165.754 144.538 168.765 144.538 169.97 142.451 C 170.245 141.975 170.389 141.435 170.389 140.886 C 170.389 139.157 168.988 137.756 167.259 137.756 Z"/>
  <path d="M 159.679 145.666 L 114.679 145.666 C 107.239 145.666 102.589 137.612 106.309 131.168 C 108.036 128.178 111.226 126.336 114.679 126.336 L 159.679 126.336 C 165.012 126.342 169.334 130.663 169.339 135.996 C 169.339 136.404 169.312 136.811 169.259 137.216 C 169.207 137.751 168.664 138.092 168.159 137.906 C 165.86 137.188 163.644 139.228 164.172 141.579 C 164.289 142.098 164.536 142.579 164.889 142.976 C 165.234 143.357 165.148 143.958 164.709 144.226 C 163.197 145.16 161.457 145.658 159.679 145.666 Z M 114.679 127.986 C 108.521 127.986 104.672 134.653 107.751 139.986 C 109.18 142.461 111.821 143.986 114.679 143.986 L 159.679 143.986 C 160.862 143.985 162.03 143.722 163.099 143.216 C 161.288 140.034 163.588 136.082 167.249 136.086 L 167.689 136.086 C 167.689 136.086 167.689 136.006 167.689 135.956 C 167.689 131.538 164.108 127.956 159.689 127.956 L 114.689 127.956 L 114.679 127.986 Z"/>
  <path d="M 116.159 118.596 C 112.48 118.596 110.18 114.613 112.02 111.426 C 113.86 108.239 118.459 108.239 120.299 111.426 C 120.719 112.153 120.939 112.977 120.939 113.816 C 120.939 116.456 118.799 118.596 116.159 118.596 Z M 116.159 110.686 C 113.75 110.686 112.244 113.294 113.449 115.381 C 114.654 117.468 117.665 117.468 118.87 115.381 C 119.145 114.905 119.289 114.365 119.289 113.816 C 119.289 112.087 117.888 110.686 116.159 110.686 Z"/>
  <path d="M 150.269 163.986 C 147.156 163.995 144.228 162.506 142.399 159.986 L 116.219 123.346 C 115.045 121.704 114.419 119.734 114.429 117.716 C 114.429 117.191 114.917 116.801 115.429 116.916 C 117.779 117.451 119.826 115.242 119.115 112.94 C 118.932 112.349 118.579 111.826 118.099 111.436 C 117.681 111.108 117.681 110.474 118.099 110.146 L 118.199 110.066 L 118.439 109.876 C 122.78 106.771 128.816 107.774 131.919 112.116 L 158.159 148.696 C 162.493 154.739 158.661 163.207 151.261 163.939 C 150.931 163.972 150.6 163.987 150.269 163.986 Z M 116.159 118.596 C 116.311 119.945 116.807 121.233 117.599 122.336 L 143.779 158.976 C 145.283 161.088 147.717 162.34 150.309 162.336 C 156.468 162.353 160.335 155.697 157.27 150.355 C 157.132 150.114 156.982 149.881 156.819 149.656 L 130.639 113.016 C 129.136 110.904 126.702 109.652 124.109 109.656 C 122.634 109.653 121.186 110.062 119.929 110.836 C 122.216 113.719 120.524 117.996 116.884 118.535 C 116.654 118.569 116.422 118.586 116.189 118.586 L 116.159 118.596 Z"/>
</svg>