<?xml version="1.0" encoding="utf-8"?>
<svg viewBox="213.1 281.6 72.2 72.2" width="43.41" height="59.64" xmlns="http://www.w3.org/2000/svg">
  <defs>
    <style>.cls-1{fill:none;stroke:#000;stroke-linejoin:round;stroke-width:1.5px;}.cls-2{fill:#231f20;}</style>
  </defs>
  <path d="M 266.49 347.64 L 230.92 347.64 C 228.757 347.635 227.005 345.883 227 343.72 L 227 291.92 C 227.005 289.757 228.757 288.005 230.92 288 L 266.49 288 C 268.653 288.005 270.405 289.757 270.41 291.92 L 270.41 343.72 C 270.405 345.883 268.653 347.635 266.49 347.64 Z M 230.92 289.64 C 229.661 289.64 228.64 290.661 228.64 291.92 L 228.64 343.72 C 228.64 344.979 229.661 346 230.92 346 L 266.49 346 C 267.749 346 268.77 344.979 268.77 343.72 L 268.77 291.92 C 268.77 290.661 267.749 289.64 266.49 289.64 L 230.92 289.64 Z"/>
  <path d="M 264.39 304.37 L 233.04 304.37 C 232.587 304.37 232.22 304.003 232.22 303.55 L 232.22 294.05 C 232.22 293.597 232.587 293.23 233.04 293.23 L 264.39 293.23 C 264.843 293.23 265.21 293.597 265.21 294.05 L 265.21 303.55 C 265.21 304.003 264.843 304.37 264.39 304.37 Z M 233.89 302.72 L 263.57 302.72 L 263.57 294.87 L 233.87 294.87 L 233.87 302.72 L 233.89 302.72 Z"/>
  <path d="M 264.39 304.37 L 233.04 304.37 C 232.587 304.37 232.22 304.003 232.22 303.55 L 232.22 294.05 C 232.22 293.597 232.587 293.23 233.04 293.23 L 264.39 293.23 C 264.843 293.23 265.21 293.597 265.21 294.05 L 265.21 303.55 C 265.21 304.003 264.843 304.37 264.39 304.37 Z M 233.89 302.72 L 263.57 302.72 L 263.57 294.87 L 233.87 294.87 L 233.87 302.72 L 233.89 302.72 Z"/>
  <path d="M 240.9 319.75 L 233.04 319.75 C 232.587 319.75 232.22 319.383 232.22 318.93 L 232.22 314.68 C 232.22 314.227 232.587 313.86 233.04 313.86 L 240.9 313.86 C 241.353 313.86 241.72 314.227 241.72 314.68 L 241.72 318.93 C 241.72 319.383 241.353 319.75 240.9 319.75 Z M 233.9 318.1 L 240.11 318.1 L 240.11 315.5 L 233.9 315.5 L 233.9 318.1 Z"/>
  <path d="M 252.63 319.75 L 244.77 319.75 C 244.317 319.75 243.95 319.383 243.95 318.93 L 243.95 314.68 C 243.95 314.227 244.317 313.86 244.77 313.86 L 252.63 313.86 C 253.083 313.86 253.45 314.227 253.45 314.68 L 253.45 318.93 C 253.45 319.383 253.083 319.75 252.63 319.75 Z M 245.63 318.1 L 251.84 318.1 L 251.84 315.5 L 245.63 315.5 L 245.63 318.1 Z"/>
  <path d="M 264.39 319.75 L 256.53 319.75 C 256.077 319.75 255.71 319.383 255.71 318.93 L 255.71 314.68 C 255.71 314.227 256.077 313.86 256.53 313.86 L 264.39 313.86 C 264.843 313.86 265.21 314.227 265.21 314.68 L 265.21 318.93 C 265.21 319.383 264.843 319.75 264.39 319.75 Z M 257.39 318.1 L 263.6 318.1 L 263.6 315.5 L 257.39 315.5 L 257.39 318.1 Z"/>
  <path d="M 240.9 327.29 L 233.04 327.29 C 232.587 327.29 232.22 326.923 232.22 326.47 L 232.22 322.22 C 232.22 321.767 232.587 321.4 233.04 321.4 L 240.9 321.4 C 241.353 321.4 241.72 321.767 241.72 322.22 L 241.72 326.47 C 241.72 326.923 241.353 327.29 240.9 327.29 Z M 233.9 325.64 L 240.11 325.64 L 240.11 323.04 L 233.9 323.04 L 233.9 325.64 Z"/>
  <path d="M 252.63 327.29 L 244.77 327.29 C 244.317 327.29 243.95 326.923 243.95 326.47 L 243.95 322.22 C 243.95 321.767 244.317 321.4 244.77 321.4 L 252.63 321.4 C 253.083 321.4 253.45 321.767 253.45 322.22 L 253.45 326.47 C 253.45 326.923 253.083 327.29 252.63 327.29 Z M 245.63 325.64 L 251.84 325.64 L 251.84 323.04 L 245.63 323.04 L 245.63 325.64 Z"/>
  <path d="M 264.39 327.29 L 256.53 327.29 C 256.077 327.29 255.71 326.923 255.71 326.47 L 255.71 322.22 C 255.71 321.767 256.077 321.4 256.53 321.4 L 264.39 321.4 C 264.843 321.4 265.21 321.767 265.21 322.22 L 265.21 326.47 C 265.21 326.923 264.843 327.29 264.39 327.29 Z M 257.39 325.64 L 263.6 325.64 L 263.6 323.04 L 257.39 323.04 L 257.39 325.64 Z"/>
  <path d="M 240.9 334.84 L 233.04 334.84 C 232.587 334.84 232.22 334.473 232.22 334.02 L 232.22 329.77 C 232.22 329.317 232.587 328.95 233.04 328.95 L 240.9 328.95 C 241.353 328.95 241.72 329.317 241.72 329.77 L 241.72 333.99 C 241.737 334.455 241.365 334.84 240.9 334.84 Z M 233.9 333.19 L 240.11 333.19 L 240.11 330.59 L 233.9 330.59 L 233.9 333.19 Z"/>
  <path d="M 252.63 334.84 L 244.77 334.84 C 244.317 334.84 243.95 334.473 243.95 334.02 L 243.95 329.77 C 243.95 329.317 244.317 328.95 244.77 328.95 L 252.63 328.95 C 253.083 328.95 253.45 329.317 253.45 329.77 L 253.45 333.99 C 253.467 334.455 253.095 334.84 252.63 334.84 Z M 245.63 333.19 L 251.84 333.19 L 251.84 330.59 L 245.63 330.59 L 245.63 333.19 Z"/>
  <path d="M 240.9 342.39 L 233.04 342.39 C 232.587 342.39 232.22 342.023 232.22 341.57 L 232.22 337.32 C 232.22 336.867 232.587 336.5 233.04 336.5 L 240.9 336.5 C 241.353 336.5 241.72 336.867 241.72 337.32 L 241.72 341.57 C 241.72 342.023 241.353 342.39 240.9 342.39 Z M 233.9 340.74 L 240.11 340.74 L 240.11 338.14 L 233.9 338.14 L 233.9 340.74 Z"/>
  <path d="M 252.63 342.39 L 244.77 342.39 C 244.317 342.39 243.95 342.023 243.95 341.57 L 243.95 337.32 C 243.95 336.867 244.317 336.5 244.77 336.5 L 252.63 336.5 C 253.083 336.5 253.45 336.867 253.45 337.32 L 253.45 341.57 C 253.45 342.023 253.083 342.39 252.63 342.39 Z M 245.63 340.74 L 251.84 340.74 L 251.84 338.14 L 245.63 338.14 L 245.63 340.74 Z"/>
  <path d="M 264.39 342.39 L 256.53 342.39 C 256.077 342.39 255.71 342.023 255.71 341.57 L 255.71 329.77 C 255.71 329.317 256.077 328.95 256.53 328.95 L 264.39 328.95 C 264.843 328.95 265.21 329.317 265.21 329.77 L 265.21 341.57 C 265.21 342.023 264.843 342.39 264.39 342.39 Z M 257.39 340.74 L 263.6 340.74 L 263.6 330.59 L 257.39 330.59 L 257.39 340.74 Z"/>
  <rect x="242.22" y="307.11" width="12.97" height="1.65"/>
</svg>