<?xml version="1.0" encoding="utf-8"?>
<svg viewBox="1.9 284.8 72.2 72.2" width="60.2721" height="53.45" xmlns="http://www.w3.org/2000/svg">
  <defs>
    <style>.cls-1{fill:none;stroke:#000;stroke-linejoin:round;stroke-width:1.5px;}.cls-2{fill:#231f20;}</style>
  </defs>
  <path d="M 8 296.09 C 7.448 296.09 7 295.642 7 295.09 C 7 294.538 7.448 294.09 8 294.09 L 65.87 294 C 66.64 294 67.121 294.833 66.736 295.5 C 66.557 295.809 66.227 296 65.87 296 L 8 296.08 L 8 296.09 Z"/>
  <path d="M 13.37 303.73 C 13.098 303.729 12.838 303.617 12.65 303.42 L 10.32 301 C 10.141 300.815 10.041 300.567 10.04 300.31 L 10.04 298.48 C 10.04 297.71 10.873 297.229 11.54 297.614 C 11.849 297.793 12.04 298.123 12.04 298.48 L 12.04 299.87 L 14.09 302 C 14.652 302.526 14.435 303.463 13.699 303.687 C 13.592 303.72 13.481 303.734 13.37 303.73 Z"/>
  <path d="M 58.94 304 C 58.17 303.997 57.692 303.162 58.08 302.497 C 58.119 302.429 58.166 302.367 58.22 302.31 L 60.27 300.18 L 60.27 298.75 C 60.27 297.98 61.103 297.499 61.77 297.884 C 62.079 298.063 62.27 298.393 62.27 298.75 L 62.27 300.58 C 62.269 300.837 62.169 301.085 61.99 301.27 L 59.66 303.69 C 59.472 303.887 59.212 303.999 58.94 304 Z"/>
  <path d="M 14.58 317.49 C 13.663 317.498 12.757 317.297 11.93 316.9 C 10.284 316.022 9.085 314.489 8.63 312.68 C 7.985 310.608 8.208 308.363 9.25 306.46 C 10.158 304.945 11.576 303.803 13.25 303.24 C 14.08 302.96 19.05 303 32.62 303.24 C 36.69 303.31 40.54 303.38 42.56 303.38 C 43.33 303.38 43.811 304.213 43.426 304.88 C 43.247 305.189 42.917 305.38 42.56 305.38 C 40.56 305.38 36.85 305.31 32.56 305.24 C 25.56 305.12 14.98 304.93 13.83 305.15 C 12.623 305.573 11.601 306.404 10.94 307.5 C 10.187 308.926 10.039 310.594 10.53 312.13 C 10.828 313.403 11.648 314.492 12.79 315.13 C 14.65 315.885 16.781 315.429 18.17 313.98 C 19.27 312.836 19.396 311.069 18.47 309.78 C 17.85 308.887 16.804 308.389 15.72 308.47 C 14.976 308.468 14.296 308.891 13.97 309.56 C 13.835 310.176 13.962 310.821 14.32 311.34 C 14.675 311.468 15.065 311.468 15.42 311.34 C 15.418 311.234 15.397 311.129 15.36 311.03 C 15.083 310.312 15.688 309.563 16.448 309.682 C 16.827 309.742 17.139 310.013 17.25 310.38 C 17.658 311.223 17.467 312.234 16.78 312.87 C 15.778 313.544 14.491 313.628 13.41 313.09 C 12.04 312.35 11.68 309.9 12.18 308.75 C 12.795 307.38 14.148 306.49 15.65 306.47 C 17.485 306.331 19.248 307.21 20.24 308.76 C 21.604 310.814 21.372 313.537 19.68 315.33 C 18.349 316.721 16.505 317.502 14.58 317.49 Z"/>
  <path d="M 60.99 317.62 C 59.069 317.621 57.233 316.833 55.91 315.44 C 54.218 313.647 53.986 310.924 55.35 308.87 C 56.342 307.32 58.105 306.441 59.94 306.58 C 61.444 306.602 62.798 307.496 63.41 308.87 C 63.91 310.01 63.55 312.46 62.18 313.21 C 61.099 313.748 59.812 313.664 58.81 312.99 C 58.115 312.369 57.904 311.368 58.29 310.52 C 58.513 309.783 59.451 309.565 59.977 310.127 C 60.239 310.407 60.318 310.812 60.18 311.17 C 60.142 311.269 60.122 311.374 60.12 311.48 C 60.475 311.608 60.865 311.608 61.22 311.48 C 61.589 310.954 61.719 310.297 61.58 309.67 C 61.254 309.001 60.574 308.578 59.83 308.58 C 58.75 308.495 57.705 308.985 57.08 309.87 C 56.154 311.159 56.28 312.926 57.38 314.07 C 58.769 315.519 60.9 315.975 62.76 315.22 C 63.902 314.582 64.722 313.493 65.02 312.22 C 65.511 310.684 65.363 309.016 64.61 307.59 C 63.947 306.492 62.921 305.661 61.71 305.24 C 60.81 305.02 53.97 305.15 48.98 305.24 C 45.98 305.3 43.07 305.35 40.98 305.35 C 40.21 305.35 39.729 304.517 40.114 303.85 C 40.293 303.541 40.623 303.35 40.98 303.35 C 42.98 303.35 45.87 303.3 48.91 303.24 C 57.34 303.09 61.41 303.05 62.29 303.34 C 63.964 303.903 65.382 305.045 66.29 306.56 C 67.332 308.463 67.555 310.708 66.91 312.78 C 66.455 314.589 65.256 316.122 63.61 317 C 62.795 317.402 61.899 317.614 60.99 317.62 Z"/>
  <path d="M 51.58 313.81 L 23.77 313.81 C 23 313.81 22.519 312.977 22.904 312.31 C 23.083 312.001 23.413 311.81 23.77 311.81 L 51.58 311.81 C 52.35 311.81 52.831 312.643 52.446 313.31 C 52.267 313.619 51.937 313.81 51.58 313.81 Z"/>
  <path d="M 18.77 347.05 C 18.218 347.05 17.77 346.602 17.77 346.05 L 17.77 318.74 C 17.77 317.97 18.603 317.489 19.27 317.874 C 19.579 318.053 19.77 318.383 19.77 318.74 L 19.77 346.05 C 19.77 346.602 19.322 347.05 18.77 347.05 Z"/>
  <path d="M 54.58 347.45 C 54.028 347.45 53.58 347.002 53.58 346.45 L 53.58 318.6 C 53.58 317.83 54.413 317.349 55.08 317.734 C 55.389 317.913 55.58 318.243 55.58 318.6 L 55.58 346.45 C 55.58 347.002 55.132 347.45 54.58 347.45 Z"/>
  <path d="M 26.33 347.12 L 26.26 347.12 C 24 347.12 22.16 345.63 22.16 343.79 L 22.16 325.66 C 22.16 323.82 24 322.33 26.26 322.33 L 26.33 322.33 C 28.59 322.33 30.43 323.82 30.43 325.66 L 30.43 343.78 C 30.43 345.62 28.58 347.12 26.33 347.12 Z M 26.26 324.34 C 25.02 324.34 24.16 325.04 24.16 325.67 L 24.16 343.79 C 24.16 344.42 25.02 345.12 26.26 345.12 L 26.33 345.12 C 27.57 345.12 28.43 344.42 28.43 343.79 L 28.43 325.66 C 28.43 325.03 27.57 324.33 26.33 324.33 L 26.26 324.33 L 26.26 324.34 Z"/>
  <path d="M 36.72 347.12 L 36.66 347.12 C 34.4 347.12 32.56 345.63 32.56 343.79 L 32.56 325.66 C 32.56 323.82 34.4 322.33 36.66 322.33 L 36.73 322.33 C 38.99 322.33 40.83 323.82 40.83 325.66 L 40.83 343.78 C 40.82 345.62 38.98 347.12 36.72 347.12 Z M 36.65 324.34 C 35.41 324.34 34.55 325.04 34.55 325.67 L 34.55 343.79 C 34.55 344.42 35.41 345.12 36.65 345.12 L 36.72 345.12 C 37.96 345.12 38.82 344.42 38.82 343.79 L 38.82 325.66 C 38.82 325.03 37.96 324.33 36.72 324.33 L 36.66 324.33 L 36.65 324.34 Z"/>
  <path d="M 47.12 347.12 L 47.05 347.12 C 44.79 347.12 42.95 345.63 42.95 343.79 L 42.95 325.66 C 42.95 323.82 44.79 322.33 47.05 322.33 L 47.12 322.33 C 49.38 322.33 51.22 323.82 51.22 325.66 L 51.22 343.78 C 51.21 345.62 49.37 347.12 47.12 347.12 Z M 47.05 324.34 C 45.81 324.34 44.95 325.04 44.95 325.67 L 44.95 343.79 C 44.95 344.42 45.81 345.12 47.05 345.12 L 47.12 345.12 C 48.36 345.12 49.22 344.42 49.22 343.79 L 49.22 325.66 C 49.22 325.03 48.36 324.33 47.12 324.33 L 47.05 324.33 L 47.05 324.34 Z"/>
</svg>