<?xml version="1.0" encoding="utf-8"?>
<svg viewBox="4.4 95.8 72.2 72.2" width="55.2776" height="64.7" xmlns="http://www.w3.org/2000/svg">
  <defs>
    <style>.cls-1{fill:none;stroke:#000;stroke-linejoin:round;stroke-width:1.5px;}.cls-2{fill:#231f20;}</style>
  </defs>
  <path d="M 28.684 145 C 28.529 145.002 28.376 144.96 28.244 144.88 C 27.536 144.459 26.867 143.977 26.244 143.44 L 27.324 142.23 C 26.932 140.772 27.073 139.222 27.724 137.86 C 28.059 137.226 28.437 136.614 28.854 136.03 C 29.704 134.78 30.754 133.23 30.624 132.14 C 30.294 129.29 29.624 129.27 28.354 129.22 C 27.393 129.274 26.445 128.979 25.684 128.39 C 24.494 127.39 22.514 125.67 22.144 123.6 C 22.054 123.07 21.944 119.68 22.654 118.79 L 22.974 118.39 C 23.321 117.979 23.626 117.533 23.884 117.06 C 24.068 116.719 24.394 116.478 24.774 116.4 C 25.529 116.383 26.256 116.689 26.774 117.24 C 27.155 117.585 27.605 117.848 28.094 118.01 C 28.273 117.825 28.43 117.62 28.564 117.4 C 28.851 116.889 29.26 116.457 29.754 116.14 C 30.384 115.8 30.374 113.04 29.874 112.01 C 29.761 111.787 29.627 111.576 29.474 111.38 C 28.803 110.681 28.782 109.585 29.424 108.86 C 29.683 108.485 30.025 108.173 30.424 107.95 L 30.584 107.85 C 30.574 107.765 30.557 107.682 30.534 107.6 C 30.344 107.223 30.12 106.865 29.864 106.53 C 29.641 106.23 29.437 105.916 29.254 105.59 C 29.134 105.333 29.053 105.06 29.014 104.78 L 29.014 104.62 L 30.624 104.27 L 30.624 104.47 C 30.643 104.589 30.673 104.706 30.714 104.82 C 30.864 105.075 31.027 105.322 31.204 105.56 C 31.582 106.032 31.889 106.558 32.114 107.12 C 32.494 107.965 32.118 108.958 31.274 109.34 C 31.072 109.437 30.898 109.581 30.764 109.76 C 30.676 109.866 30.611 109.988 30.574 110.12 L 30.764 110.38 C 30.979 110.658 31.166 110.956 31.324 111.27 C 31.974 112.61 32.324 116.58 30.494 117.57 C 30.252 117.776 30.049 118.023 29.894 118.3 C 29.567 119.029 28.885 119.536 28.094 119.64 C 27.212 119.53 26.388 119.141 25.744 118.53 C 25.564 118.4 25.324 118.21 25.144 118.1 C 24.878 118.568 24.57 119.01 24.224 119.42 L 23.944 119.77 C 23.706 120.931 23.639 122.12 23.744 123.3 C 24.004 124.79 25.744 126.3 26.744 127.12 C 27.228 127.456 27.817 127.609 28.404 127.55 C 30.244 127.62 31.794 128.01 32.244 131.93 C 32.444 133.63 31.244 135.39 30.244 136.93 C 29.877 137.452 29.543 137.996 29.244 138.56 C 28.514 140.05 28.834 141.35 29.244 142.99 C 29.324 143.31 29.404 143.64 29.484 143.99 C 29.606 144.506 29.214 145.001 28.684 145 Z"/>
  <path d="M 44.384 143.52 C 43.428 143.468 42.56 142.948 42.064 142.13 C 40.904 140.56 40.974 138.48 41.064 136.46 C 41.145 135.459 41.108 134.452 40.954 133.46 C 40.504 131.46 39.524 131.18 37.034 131 C 33.824 130.77 33.034 129.08 32.784 128.1 C 32.264 125.62 34.504 122.38 36.844 121.1 C 37.111 120.963 37.393 120.856 37.684 120.78 C 38.498 120.561 39.349 120.513 40.184 120.64 C 40.898 120.731 41.551 121.088 42.014 121.64 C 42.172 121.822 42.35 121.986 42.544 122.13 C 43.195 122.33 43.892 122.33 44.544 122.13 C 45.586 122.018 46.564 121.573 47.334 120.86 C 47.412 120.626 47.412 120.374 47.334 120.14 C 47.272 119.876 47.128 119.638 46.924 119.46 C 46.433 119.403 45.937 119.476 45.484 119.67 C 44.932 119.871 44.35 119.976 43.764 119.98 C 43.013 119.852 42.317 119.504 41.764 118.98 C 41.435 118.648 41.013 118.424 40.554 118.34 C 40.161 118.457 39.789 118.635 39.454 118.87 C 39.008 119.163 38.528 119.398 38.024 119.57 C 37.586 119.701 37.121 119.701 36.684 119.57 C 36.117 119.466 35.663 119.039 35.524 118.48 C 35.314 117.48 36.324 116.58 37.424 115.63 C 36.883 115.516 36.422 115.168 36.164 114.68 C 35.905 113.949 36.092 113.135 36.644 112.59 C 37.644 111.28 39.374 111.92 40.294 112.26 L 40.474 112.33 C 40.586 112.129 40.686 111.922 40.774 111.71 C 41.078 110.862 41.678 110.152 42.464 109.71 C 43.706 109.101 45.128 108.966 46.464 109.33 C 47.027 109.44 47.6 109.493 48.174 109.49 C 49.646 109.234 51.025 108.596 52.174 107.64 C 53.994 106.41 55.874 105.14 58.174 105.64 L 57.854 107.26 C 56.214 106.94 54.704 107.97 53.094 109.05 C 51.717 110.183 50.057 110.92 48.294 111.18 C 47.623 111.186 46.953 111.125 46.294 111 C 45.337 110.72 44.313 110.776 43.394 111.16 C 42.911 111.432 42.553 111.88 42.394 112.41 C 42.202 112.887 41.95 113.337 41.644 113.75 C 41.184 114.36 40.464 114.09 39.824 113.86 C 39.184 113.63 38.314 113.3 38.054 113.65 C 37.958 113.769 37.877 113.901 37.814 114.04 C 38.322 114.196 38.852 114.271 39.384 114.26 C 40.012 114.29 40.38 114.982 40.054 115.52 C 39.667 116.026 39.212 116.477 38.704 116.86 C 38.247 117.23 37.816 117.631 37.414 118.06 C 37.497 118.07 37.58 118.07 37.664 118.06 C 38.015 117.92 38.35 117.742 38.664 117.53 C 39.182 117.169 39.766 116.914 40.384 116.78 C 41.296 116.766 42.175 117.128 42.814 117.78 C 43.136 118.084 43.527 118.307 43.954 118.43 C 44.349 118.401 44.739 118.321 45.114 118.19 C 45.945 117.824 46.884 117.784 47.744 118.08 C 48.369 118.454 48.819 119.062 48.994 119.77 C 49.222 120.426 49.179 121.146 48.874 121.77 C 48.224 122.88 46.464 123.6 45.024 123.9 C 44.164 124.08 42.594 124.29 41.684 123.64 C 41.403 123.431 41.145 123.193 40.914 122.93 C 40.707 122.633 40.383 122.44 40.024 122.4 C 39.422 122.316 38.81 122.353 38.224 122.51 C 38.047 122.555 37.876 122.619 37.714 122.7 C 35.764 123.7 34.174 126.28 34.504 127.85 C 34.704 128.79 35.624 129.33 37.254 129.44 C 39.434 129.6 41.914 129.77 42.664 133.19 C 42.851 134.33 42.898 135.489 42.804 136.64 C 42.734 138.37 42.674 140.16 43.494 141.26 C 43.704 141.667 44.107 141.939 44.564 141.98 C 46.104 141.8 47.994 137.33 48.804 135.43 C 49.084 134.76 49.304 134.24 49.484 133.93 L 49.704 133.52 C 50.704 131.74 51.704 129.9 51.044 128.06 C 50.974 127.94 50.754 127.58 50.594 127.34 C 49.964 126.34 49.854 126.17 50.104 125.73 C 50.21 125.525 50.394 125.371 50.614 125.3 C 50.922 125.214 51.252 125.261 51.524 125.43 L 51.604 125.43 L 52.114 125.43 C 52.45 125.457 52.789 125.423 53.114 125.33 C 53.262 125.019 53.301 124.666 53.224 124.33 C 53.184 123.961 53.11 123.596 53.004 123.24 C 52.824 122.54 52.634 121.81 53.274 121.41 C 53.914 121.01 54.674 121.6 55.204 122.05 C 55.812 122.651 56.346 123.322 56.794 124.05 C 57.534 125.14 58.464 126.49 59.224 126.61 C 59.714 126.69 60.834 125.71 61.434 125.18 C 61.774 124.89 62.084 124.61 62.364 124.42 C 63.035 123.774 63.528 122.964 63.794 122.07 C 64.135 121.067 64.668 120.14 65.364 119.34 L 66.524 120.51 C 65.987 121.16 65.574 121.902 65.304 122.7 C 64.942 123.893 64.248 124.957 63.304 125.77 C 63.104 125.91 62.814 126.16 62.514 126.42 C 61.514 127.31 60.214 128.42 58.974 128.23 C 57.494 128.01 56.394 126.39 55.424 124.97 C 55.234 124.69 55.044 124.41 54.854 124.15 L 54.854 124.23 C 54.983 125.003 54.779 125.795 54.294 126.41 C 53.725 126.897 52.976 127.119 52.234 127.02 C 52.3 127.124 52.357 127.235 52.404 127.35 C 53.344 129.92 52.084 132.21 50.974 134.23 L 50.754 134.63 C 50.624 134.87 50.404 135.39 50.144 135.99 C 48.584 139.66 46.874 143.26 44.584 143.54 L 44.384 143.52 Z"/>
  <path d="M 52.394 141.95 C 51.762 141.985 51.33 141.323 51.616 140.759 C 51.748 140.497 52.011 140.326 52.304 140.31 C 52.79 139.507 53.03 138.578 52.994 137.64 C 53.005 137.377 52.978 137.115 52.914 136.86 C 52.313 136.666 52.148 135.894 52.616 135.471 C 52.772 135.331 52.974 135.256 53.184 135.26 C 53.778 135.274 54.29 135.683 54.434 136.26 C 54.579 136.702 54.647 137.165 54.634 137.63 C 54.644 139.04 54.114 141.95 52.394 141.95 Z"/>
  <path d="M 34.344 111.27 C 33.644 111.261 33.034 110.793 32.844 110.12 C 32.434 109.07 33.064 107.93 33.584 107.01 C 33.704 106.79 33.824 106.58 33.914 106.39 C 34.524 105.13 36.664 104.47 37.964 104.47 C 38.117 104.46 38.27 104.46 38.424 104.47 C 39.105 104.527 39.7 104.953 39.974 105.58 C 40.267 106.456 40.085 107.421 39.494 108.13 C 38.97 108.742 38.304 109.216 37.554 109.51 C 37.179 109.671 36.824 109.872 36.494 110.11 L 36.334 110.24 C 35.807 110.8 35.105 111.163 34.344 111.27 Z M 37.964 106.11 C 37.01 106.101 36.09 106.459 35.394 107.11 C 35.284 107.33 35.154 107.57 35.014 107.82 C 34.65 108.318 34.429 108.906 34.374 109.52 L 34.374 109.61 C 34.684 109.446 34.973 109.245 35.234 109.01 L 35.414 108.86 C 35.843 108.536 36.31 108.264 36.804 108.05 C 37.311 107.861 37.769 107.56 38.144 107.17 C 38.368 106.916 38.471 106.576 38.424 106.24 C 38.36 106.169 38.269 106.129 38.174 106.13 L 37.964 106.13 L 37.964 106.11 Z"/>
  <path d="M 42.514 149.62 C 23.415 149.62 11.478 128.945 21.027 112.405 C 30.577 95.865 54.45 95.865 64 112.405 C 66.186 116.191 67.332 120.488 67.324 124.86 C 67.279 138.536 56.189 149.604 42.514 149.62 Z M 42.514 101.62 C 24.685 101.62 13.542 120.92 22.456 136.36 C 31.371 151.8 53.657 151.8 62.571 136.36 C 64.59 132.863 65.66 128.898 65.674 124.86 C 65.685 112.056 55.317 101.667 42.514 101.65 L 42.514 101.62 Z"/>
  <path d="M 42.874 155.35 C 19.141 155.348 4.31 129.655 16.178 109.103 C 17.378 107.025 18.816 105.094 20.464 103.35 L 21.664 104.48 C 6.306 120.873 14.453 147.743 36.328 152.847 C 45.824 155.062 55.799 152.388 62.914 145.72 L 64.044 146.92 C 58.323 152.332 50.748 155.349 42.874 155.35 Z"/>
  <rect x="93.64" y="170.81" width="1.65" height="9.52" transform="matrix(0.707107, -0.707107, 0.707107, 0.707107, -128.366899, 88.079996)"/>
  <rect x="52.82" y="129.69" width="1.65" height="10.1" transform="matrix(0.707107, -0.707107, 0.707107, 0.707107, -111.456896, 47.249997)"/>
  <rect x="42.054" y="154.53" width="1.65" height="9.35"/>
  <rect x="22.274" y="163.05" width="41.2" height="1.65"/>
</svg>