<?xml version="1.0" encoding="utf-8"?>
<svg viewBox="404.2 96 72.2 72.2" width="48.1104" height="64.2201" xmlns="http://www.w3.org/2000/svg">
  <defs>
    <style>.cls-1{fill:none;stroke:#000;stroke-linejoin:round;stroke-width:1.5px;}.cls-2{fill:#231f20;}</style>
  </defs>
  <path d="M 444.45 164.224 L 431.82 164.224 L 431.82 162.574 L 443.62 162.574 L 443.62 133.314 L 445.28 133.314 L 445.28 163.404 C 445.28 163.861 444.907 164.23 444.45 164.224 Z"/>
  <path d="M 431.28 158.194 L 417.66 158.194 C 417.207 158.194 416.84 157.827 416.84 157.374 L 416.84 153.144 C 416.3 152.619 415.996 151.897 416 151.144 L 416 134.344 C 415.994 132.838 417.205 131.61 418.71 131.594 C 419.075 131.594 419.436 131.669 419.77 131.814 L 419.77 129.724 C 419.759 128.216 420.972 126.985 422.48 126.974 C 422.848 126.973 423.212 127.047 423.55 127.194 L 423.55 127.124 C 423.55 125.038 425.808 123.734 427.615 124.777 C 428.454 125.261 428.97 126.156 428.97 127.124 C 429.308 126.977 429.672 126.902 430.04 126.904 C 431.548 126.915 432.761 128.146 432.75 129.654 L 432.75 144.104 L 433.03 143.684 L 433.03 138.764 C 433.03 136.678 435.288 135.374 437.095 136.417 C 437.934 136.901 438.45 137.796 438.45 138.764 L 438.45 146.364 C 438.458 147.114 438.162 147.835 437.63 148.364 L 432.15 155.364 L 432.15 157.444 C 432.113 157.889 431.726 158.223 431.28 158.194 Z M 418.48 156.544 L 430.48 156.544 L 430.48 155.004 C 430.481 154.819 430.544 154.639 430.66 154.494 L 436.29 147.334 C 436.326 147.275 436.37 147.222 436.42 147.174 C 436.654 146.965 436.788 146.667 436.79 146.354 L 436.79 138.754 C 436.79 137.938 435.907 137.428 435.2 137.836 C 434.872 138.025 434.67 138.375 434.67 138.754 L 434.67 143.924 C 434.67 144.088 434.621 144.248 434.53 144.384 L 432.6 147.224 C 432.259 147.755 431.471 147.718 431.181 147.158 C 431.119 147.036 431.087 146.901 431.09 146.764 L 431.09 129.644 C 431.09 128.828 430.207 128.318 429.5 128.726 C 429.172 128.915 428.97 129.265 428.97 129.644 L 428.97 140.744 C 428.9 141.379 428.169 141.7 427.654 141.322 C 427.467 141.185 427.345 140.975 427.32 140.744 L 427.32 127.124 C 427.32 126.308 426.437 125.798 425.73 126.206 C 425.402 126.395 425.2 126.745 425.2 127.124 L 425.2 140.744 C 425.13 141.379 424.399 141.7 423.884 141.322 C 423.697 141.185 423.575 140.975 423.55 140.744 L 423.55 129.744 C 423.55 128.928 422.667 128.418 421.96 128.826 C 421.632 129.015 421.43 129.365 421.43 129.744 L 421.43 140.744 C 421.36 141.379 420.629 141.7 420.114 141.322 C 419.927 141.185 419.805 140.975 419.78 140.744 L 419.78 134.354 C 419.78 133.538 418.897 133.028 418.19 133.436 C 417.862 133.625 417.66 133.975 417.66 134.354 L 417.66 151.154 C 417.658 151.521 417.838 151.866 418.14 152.074 C 418.364 152.228 418.499 152.482 418.5 152.754 L 418.5 156.544 L 418.48 156.544 Z"/>
  <path d="M 431.82 164.224 L 416.96 164.224 C 416.507 164.224 416.14 163.857 416.14 163.404 L 416.14 157.404 C 416.14 156.951 416.507 156.584 416.96 156.584 L 431.82 156.584 C 432.273 156.584 432.64 156.951 432.64 157.404 L 432.64 163.404 C 432.64 163.857 432.273 164.224 431.82 164.224 Z M 417.82 162.574 L 431.03 162.574 L 431.03 158.194 L 417.78 158.194 L 417.78 162.574 L 417.82 162.574 Z"/>
  <path d="M 462.45 141.854 L 448.81 141.854 C 448.357 141.854 447.99 141.487 447.99 141.034 L 447.99 139.034 L 442.51 132.224 C 441.983 131.716 441.683 131.016 441.68 130.284 L 441.68 122.864 C 441.68 120.778 443.938 119.474 445.745 120.517 C 446.584 121.001 447.1 121.896 447.1 122.864 L 447.1 127.644 L 447.38 128.044 L 447.38 113.954 C 447.383 112.014 449.364 110.705 451.15 111.464 C 451.15 109.378 453.408 108.074 455.215 109.117 C 456.054 109.601 456.57 110.496 456.57 111.464 L 456.57 111.514 C 458.356 110.755 460.337 112.064 460.34 114.004 L 460.34 116.004 C 462.126 115.245 464.107 116.554 464.11 118.494 L 464.11 134.894 C 464.122 135.649 463.817 136.374 463.27 136.894 L 463.27 141.014 C 463.281 141.475 462.911 141.854 462.45 141.854 Z M 449.63 140.204 L 461.63 140.204 L 461.63 136.524 C 461.632 136.25 461.771 135.995 462 135.844 C 462.294 135.647 462.47 135.317 462.47 134.964 L 462.47 118.564 C 462.47 117.748 461.587 117.238 460.88 117.646 C 460.552 117.835 460.35 118.185 460.35 118.564 L 460.35 124.804 C 460.28 125.439 459.549 125.76 459.034 125.382 C 458.847 125.245 458.725 125.035 458.7 124.804 L 458.7 114.054 C 458.7 113.238 457.817 112.728 457.11 113.136 C 456.782 113.325 456.58 113.675 456.58 114.054 L 456.58 124.804 C 456.51 125.439 455.779 125.76 455.264 125.382 C 455.077 125.245 454.955 125.035 454.93 124.804 L 454.93 111.504 C 454.93 110.688 454.047 110.178 453.34 110.586 C 453.012 110.775 452.81 111.125 452.81 111.504 L 452.81 124.794 C 452.74 125.429 452.009 125.75 451.494 125.372 C 451.307 125.235 451.185 125.025 451.16 124.794 L 451.16 113.954 C 451.16 113.138 450.277 112.628 449.57 113.036 C 449.242 113.225 449.04 113.575 449.04 113.954 L 449.04 130.644 C 449.049 131.275 448.372 131.68 447.82 131.372 C 447.708 131.309 447.612 131.221 447.54 131.114 L 445.61 128.344 C 445.513 128.206 445.461 128.042 445.46 127.874 L 445.46 122.874 C 445.46 122.058 444.577 121.548 443.87 121.956 C 443.542 122.145 443.34 122.495 443.34 122.874 L 443.34 130.294 C 443.337 130.595 443.469 130.881 443.7 131.074 C 443.753 131.121 443.8 131.175 443.84 131.234 L 449.46 138.234 C 449.575 138.379 449.639 138.559 449.64 138.744 L 449.64 140.234 L 449.63 140.204 Z"/>
  <path d="M 443.61 133.104 L 431.91 133.104 C 431.457 133.104 431.09 132.737 431.09 132.284 L 431.09 129.644 C 431.107 129.044 430.631 128.545 430.03 128.534 C 429.734 128.531 429.452 128.659 429.26 128.884 C 429.103 129.072 428.864 129.172 428.62 129.154 C 428.378 129.147 428.151 129.034 428 128.844 L 427.49 128.214 C 427.372 128.067 427.308 127.883 427.31 127.694 L 427.31 127.124 C 427.323 126.548 426.884 126.061 426.31 126.014 L 426.18 126.014 C 425.91 126.033 425.648 125.917 425.48 125.704 L 423.65 123.434 C 423.126 122.924 422.831 122.225 422.83 121.494 L 422.83 114.074 C 422.83 111.988 425.088 110.684 426.895 111.727 C 427.734 112.211 428.25 113.106 428.25 114.074 L 428.25 118.864 L 428.53 119.264 L 428.53 105.204 C 428.533 103.264 430.514 101.955 432.3 102.714 C 432.3 100.628 434.558 99.324 436.365 100.367 C 437.204 100.851 437.72 101.746 437.72 102.714 L 437.72 102.764 C 439.506 102.005 441.487 103.314 441.49 105.254 L 441.49 107.254 C 443.276 106.495 445.257 107.804 445.26 109.744 L 445.26 120.914 C 445.26 121.136 445.17 121.349 445.01 121.504 C 444.846 121.653 444.632 121.735 444.41 121.734 L 444.33 121.734 C 443.768 121.766 443.329 122.231 443.33 122.794 L 443.33 130.214 C 443.327 130.515 443.459 130.801 443.69 130.994 C 443.743 131.041 443.79 131.095 443.83 131.154 L 444.27 131.694 C 444.719 132.149 444.507 132.919 443.888 133.08 C 443.798 133.104 443.704 133.112 443.61 133.104 Z M 432.73 131.454 L 441.95 131.454 C 441.768 131.087 441.672 130.684 441.67 130.274 L 441.67 122.854 C 441.671 121.65 442.465 120.592 443.62 120.254 L 443.62 109.804 C 443.62 108.988 442.737 108.478 442.03 108.886 C 441.702 109.075 441.5 109.425 441.5 109.804 L 441.5 116.044 C 441.43 116.679 440.699 117 440.184 116.622 C 439.997 116.485 439.875 116.275 439.85 116.044 L 439.85 105.294 C 439.85 104.478 438.967 103.968 438.26 104.376 C 437.932 104.565 437.73 104.915 437.73 105.294 L 437.73 116.044 C 437.66 116.679 436.929 117 436.414 116.622 C 436.227 116.485 436.105 116.275 436.08 116.044 L 436.08 102.754 C 436.08 101.938 435.197 101.428 434.49 101.836 C 434.162 102.025 433.96 102.375 433.96 102.754 L 433.96 116.044 C 433.89 116.679 433.159 117 432.644 116.622 C 432.457 116.485 432.335 116.275 432.31 116.044 L 432.31 105.204 C 432.31 104.388 431.427 103.878 430.72 104.286 C 430.392 104.475 430.19 104.825 430.19 105.204 L 430.19 121.924 C 430.199 122.555 429.522 122.96 428.97 122.652 C 428.858 122.589 428.762 122.501 428.69 122.394 L 426.75 119.644 C 426.653 119.506 426.601 119.342 426.6 119.174 L 426.6 114.174 C 426.6 113.358 425.717 112.848 425.01 113.256 C 424.682 113.445 424.48 113.795 424.48 114.174 L 424.48 121.594 C 424.477 121.895 424.609 122.181 424.84 122.374 C 424.893 122.421 424.94 122.475 424.98 122.534 L 426.53 124.454 C 427.913 124.612 428.959 125.782 428.96 127.174 C 429.297 127.023 429.661 126.945 430.03 126.944 C 431.538 126.955 432.751 128.186 432.74 129.694 L 432.74 131.514 L 432.73 131.454 Z"/>
  <path d="M 463.28 164.224 L 448.15 164.224 C 447.697 164.224 447.33 163.857 447.33 163.404 L 447.33 141.034 C 447.33 140.581 447.697 140.214 448.15 140.214 L 463.28 140.214 C 463.733 140.214 464.1 140.581 464.1 141.034 L 464.1 163.404 C 464.1 163.857 463.733 164.224 463.28 164.224 Z M 448.97 162.574 L 462.46 162.574 L 462.46 141.854 L 448.98 141.854 L 448.98 162.574 L 448.97 162.574 Z"/>
</svg>