<?xml version="1.0" encoding="utf-8"?>
<svg viewBox="399.3 193.7 72.2 72.2" width="57.81" height="69.3901" xmlns="http://www.w3.org/2000/svg">
  <defs>
    <style>.cls-1{fill:none;stroke:#000;stroke-linejoin:round;stroke-width:1.5px;}.cls-2{fill:#231f20;}</style>
  </defs>
  <path d="M 457.63 241.79 L 457.63 240.14 C 460.68 240.14 463.154 237.67 463.16 234.62 L 464.81 234.62 C 464.804 238.581 461.592 241.79 457.63 241.79 Z"/>
  <path d="M 445.44 264.39 L 439.69 264.39 C 439.237 264.39 438.87 264.023 438.87 263.57 L 438.87 261.96 C 435.3 262.51 431.659 262.374 428.14 261.56 L 428.14 263.56 C 428.14 264.013 427.773 264.38 427.32 264.38 L 421.57 264.38 C 421.117 264.38 420.75 264.013 420.75 263.56 L 420.75 258.63 C 416.991 256.466 413.989 253.198 412.15 249.27 L 410.3 249.27 C 409.665 249.27 409.268 248.582 409.586 248.032 C 409.733 247.777 410.005 247.62 410.3 247.62 C 410.77 247.62 411.93 245.46 411.93 241.44 C 411.93 237.42 410.77 235.26 410.3 235.26 C 409.665 235.26 409.268 234.572 409.586 234.022 C 409.733 233.767 410.005 233.61 410.3 233.61 L 412.92 233.61 C 413.576 232.441 414.35 231.342 415.23 230.33 L 416.52 223.73 C 416.716 222.613 417.801 221.882 418.91 222.12 L 425.81 223.47 C 428.627 222.544 431.574 222.075 434.54 222.08 C 447.73 222.08 458.46 231.08 458.46 242.19 C 458.46 249.48 453.81 256.19 446.27 259.72 L 446.27 263.55 C 446.281 264.015 445.905 264.396 445.44 264.39 Z M 440.51 262.74 L 444.61 262.74 L 444.61 259.2 C 444.61 258.875 444.802 258.581 445.1 258.45 C 452.32 255.21 456.8 248.99 456.8 242.2 C 456.8 232.02 446.8 223.74 434.53 223.74 C 431.671 223.733 428.829 224.196 426.12 225.11 C 425.982 225.147 425.838 225.147 425.7 225.11 L 418.58 223.72 C 418.365 223.664 418.149 223.809 418.12 224.03 L 416.79 230.85 C 416.763 230.995 416.697 231.129 416.6 231.24 C 415.633 232.322 414.8 233.518 414.12 234.8 C 413.978 235.072 413.696 235.241 413.39 235.24 L 412.39 235.24 C 413.938 239.211 413.938 243.619 412.39 247.59 L 412.67 247.59 C 413.003 247.59 413.304 247.791 413.43 248.1 C 415.156 252.064 418.154 255.341 421.95 257.41 C 422.211 257.556 422.372 257.831 422.37 258.13 L 422.37 262.71 L 426.48 262.71 L 426.48 260.49 C 426.486 259.969 426.971 259.586 427.48 259.7 C 431.393 260.761 435.497 260.918 439.48 260.16 C 439.997 260.044 440.486 260.44 440.48 260.97 L 440.48 262.71 L 440.51 262.74 Z"/>
  <path d="M 420.13 237.19 C 418.021 237.19 416.702 234.907 417.757 233.08 C 418.812 231.253 421.448 231.253 422.503 233.08 C 422.743 233.497 422.87 233.969 422.87 234.45 C 422.87 235.963 421.643 237.19 420.13 237.19 Z M 420.13 233.36 C 419.291 233.36 418.766 234.268 419.186 234.995 C 419.606 235.722 420.654 235.722 421.074 234.995 C 421.17 234.829 421.22 234.641 421.22 234.45 C 421.22 233.848 420.732 233.36 420.13 233.36 Z"/>
  <path d="M 410.28 249.27 C 408.03 249.27 407 245.21 407 241.45 C 407 237.69 408 233.63 410.28 233.63 C 412.56 233.63 413.56 237.69 413.56 241.45 C 413.56 245.21 412.54 249.27 410.28 249.27 Z M 410.28 235.27 C 409.81 235.27 408.65 237.43 408.65 241.45 C 408.65 245.47 409.81 247.63 410.28 247.63 C 410.75 247.63 411.91 245.47 411.91 241.45 C 411.91 237.43 410.76 235.27 410.28 235.27 Z"/>
  <path d="M 440.52 230.96 L 430.52 230.96 C 428.869 230.96 427.837 229.172 428.662 227.742 C 429.046 227.079 429.754 226.67 430.52 226.67 L 440.52 226.67 C 442.171 226.67 443.203 228.457 442.378 229.887 C 441.994 230.551 441.286 230.96 440.52 230.96 Z M 430.52 228.32 C 430.135 228.32 429.895 228.737 430.087 229.07 C 430.176 229.225 430.341 229.32 430.52 229.32 L 440.52 229.32 C 440.905 229.32 441.145 228.903 440.953 228.57 C 440.864 228.415 440.699 228.32 440.52 228.32 L 430.52 228.32 Z"/>
  <path d="M 435.51 219.82 C 425.957 219.82 419.986 209.478 424.763 201.205 C 429.539 192.932 441.481 192.932 446.257 201.205 C 447.347 203.092 447.92 205.232 447.92 207.41 C 447.914 214.262 442.362 219.814 435.51 219.82 Z M 435.51 196.65 C 427.227 196.65 422.05 205.617 426.192 212.79 C 430.333 219.963 440.687 219.963 444.828 212.79 C 445.773 211.154 446.27 209.299 446.27 207.41 C 446.264 201.47 441.45 196.656 435.51 196.65 Z"/>
  <path d="M 435.51 216.73 C 428.335 216.73 423.851 208.963 427.439 202.75 C 431.026 196.537 439.994 196.537 443.581 202.75 C 444.399 204.167 444.83 205.774 444.83 207.41 C 444.824 212.555 440.655 216.724 435.51 216.73 Z M 435.51 199.73 C 429.606 199.73 425.915 206.122 428.868 211.235 C 431.82 216.348 439.2 216.348 442.152 211.235 C 442.826 210.069 443.18 208.746 443.18 207.4 C 443.164 203.174 439.736 199.755 435.51 199.75 L 435.51 199.73 Z"/>
  <path d="M 434.13 209.96 C 434.396 210.243 434.747 210.433 435.13 210.5 L 435.13 207.8 L 434.96 207.74 L 434.72 207.68 C 434.4 207.6 434.09 207.49 433.78 207.38 C 433.477 207.268 433.194 207.109 432.94 206.91 C 432.693 206.716 432.492 206.47 432.35 206.19 C 432.193 205.852 432.118 205.482 432.13 205.11 C 432.115 204.338 432.454 203.601 433.05 203.11 C 433.347 202.872 433.687 202.693 434.05 202.58 C 434.415 202.453 434.795 202.375 435.18 202.35 L 435.18 201.35 L 435.94 201.35 L 435.94 202.35 C 436.312 202.389 436.678 202.473 437.03 202.6 C 437.359 202.718 437.664 202.894 437.93 203.12 C 438.193 203.348 438.407 203.627 438.56 203.94 C 438.73 204.304 438.825 204.698 438.84 205.1 L 437 205.1 C 437 204.778 436.887 204.467 436.68 204.22 C 436.494 203.997 436.22 203.865 435.93 203.86 L 435.93 206.15 L 436.25 206.23 L 436.59 206.32 C 437.115 206.443 437.613 206.66 438.06 206.96 C 438.364 207.173 438.623 207.445 438.82 207.76 C 438.975 208.013 439.074 208.296 439.11 208.59 C 439.124 208.836 439.124 209.084 439.11 209.33 C 439.081 209.91 438.851 210.461 438.46 210.89 C 438.175 211.196 437.836 211.446 437.46 211.63 C 436.963 211.868 436.421 212.001 435.87 212.02 L 435.87 213.12 L 435.13 213.12 L 435.13 212.02 C 433.341 212.06 431.88 210.599 431.92 208.81 L 433.74 208.81 C 433.713 209.23 433.853 209.643 434.13 209.96 Z M 434.7 203.96 C 434.562 204.002 434.433 204.07 434.32 204.16 C 434.206 204.252 434.114 204.368 434.05 204.5 C 433.981 204.647 433.947 204.808 433.95 204.97 C 433.935 205.22 434.034 205.463 434.22 205.63 C 434.484 205.823 434.788 205.953 435.11 206.01 L 435.11 203.9 C 434.968 203.899 434.826 203.919 434.69 203.96 L 434.7 203.96 Z M 436.37 210.43 C 436.532 210.375 436.684 210.294 436.82 210.19 C 436.954 210.086 437.066 209.957 437.15 209.81 C 437.24 209.644 437.284 209.458 437.28 209.27 C 437.301 208.98 437.182 208.698 436.96 208.51 C 436.632 208.29 436.266 208.134 435.88 208.05 L 435.88 210.53 C 436.047 210.508 436.211 210.468 436.37 210.41 L 436.37 210.43 Z"/>
</svg>