<?xml version="1.0" encoding="utf-8"?>
<svg viewBox="0.6 -1 72.2 72.2" width="72.2px" height="54.1px" xmlns="http://www.w3.org/2000/svg">
  <defs>
    <style>.cls-1{fill:none;stroke:#000;stroke-linejoin:round;stroke-width:1.5px;}.cls-2{fill:#231f20;}</style>
    <view id="view-1">
      <title>View 1</title>
    </view>
  </defs>
  <rect x="72.66" y="66.15" width="5.49" height="1.65" transform="matrix(0.538918, -0.842358, 0.842358, 0.538918, -56.79984, 63.400002)"/>
  <path d="M 51.44 38.15 C 51.33 38.148 51.221 38.125 51.12 38.08 L 48.12 36.81 L 45.12 38.08 C 44.776 38.249 44.361 38.158 44.12 37.86 L 41 34.18 C 40.755 33.899 40.73 33.488 40.94 33.18 L 46.96 24 C 47.11 23.764 47.37 23.621 47.65 23.62 C 47.93 23.621 48.19 23.764 48.34 24 L 54.44 33.53 C 54.624 33.806 54.624 34.164 54.44 34.44 L 52.13 37.82 C 51.969 38.037 51.71 38.161 51.44 38.15 Z M 42.74 33.58 L 45.08 36.33 L 47.85 35.16 C 48.057 35.07 48.293 35.07 48.5 35.16 L 51.18 36.3 L 52.8 33.93 L 47.69 25.93 L 42.74 33.58 Z"/>
  <path d="M 36.41 63.1 C 29.868 63.114 23.487 61.071 18.17 57.26 C 13.96 54.247 10.553 50.247 8.25 45.61 C 8.107 45.359 8.107 45.051 8.25 44.8 L 17.25 30.8 C 17.399 30.558 17.666 30.413 17.95 30.42 C 18.232 30.423 18.492 30.57 18.64 30.81 L 21.05 34.75 L 25.27 31.62 C 25.513 31.439 25.835 31.405 26.11 31.53 L 30.28 33.45 L 33.06 29.86 C 33.407 29.401 34.106 29.432 34.41 29.92 L 52.35 57.76 C 52.608 58.155 52.48 58.686 52.07 58.92 C 47.318 61.689 41.91 63.133 36.41 63.1 Z M 9.94 45.29 C 12.122 49.512 15.275 53.155 19.14 55.92 C 24.177 59.533 30.222 61.471 36.42 61.46 C 41.334 61.486 46.174 60.268 50.49 57.92 L 33.68 31.77 L 31.21 35 C 30.972 35.302 30.559 35.401 30.21 35.24 L 25.89 33.24 L 21.34 36.61 C 20.953 36.899 20.402 36.792 20.15 36.38 L 17.95 32.8 L 9.94 45.29 Z"/>
  <path d="M 20.85 36.74 L 20.69 36.74 C 20.462 36.696 20.262 36.558 20.14 36.36 L 17.26 31.66 C 17.089 31.392 17.089 31.048 17.26 30.78 L 25.42 18 C 25.571 17.765 25.831 17.623 26.11 17.62 C 26.407 17.605 26.689 17.75 26.85 18 L 34.48 29.86 C 34.707 30.155 34.707 30.565 34.48 30.86 L 31.21 35 C 30.972 35.302 30.559 35.401 30.21 35.24 L 25.89 33.24 L 21.34 36.61 C 21.195 36.704 21.023 36.75 20.85 36.74 Z M 18.94 31.22 L 21.08 34.72 L 25.3 31.59 C 25.543 31.409 25.865 31.375 26.14 31.5 L 30.31 33.42 L 32.73 30.29 L 26.11 20 L 18.94 31.22 Z"/>
  <path d="M 54.65 57.26 L 53.65 55.92 C 56.776 53.695 59.441 50.887 61.5 47.65 L 53.06 34.39 L 54.45 33.5 L 63.21 47.2 C 63.377 47.466 63.377 47.804 63.21 48.07 C 61.005 51.679 58.093 54.805 54.65 57.26 Z"/>
  <path d="M 36.41 63.1 C 29.868 63.114 23.487 61.071 18.17 57.26 C 13.96 54.247 10.553 50.247 8.25 45.61 L 9.73 44.88 C 11.922 49.26 15.153 53.036 19.14 55.88 C 24.177 59.493 30.222 61.431 36.42 61.42 L 36.42 63.1 L 36.41 63.1 Z"/>
  <path d="M 36.41 63.1 C 29.868 63.114 23.487 61.071 18.17 57.26 L 19.17 55.92 C 29.505 63.299 43.385 63.299 53.72 55.92 L 54.72 57.26 C 49.384 61.085 42.976 63.129 36.41 63.1 Z"/>
  <path d="M 8.25 45.61 C 6.102 41.288 4.989 36.526 5 31.7 C 5 31.03 5 30.34 5.07 29.65 L 6.72 29.75 C 6.72 30.41 6.66 31.06 6.66 31.7 C 6.65 36.273 7.704 40.785 9.74 44.88 L 8.25 45.61 Z"/>
  <path d="M 6.99 27.22 L 5.36 27 C 5.569 25.622 5.87 24.259 6.26 22.92 L 7.85 23.36 C 7.478 24.626 7.191 25.916 6.99 27.22 Z"/>
  <path d="M 61.5 15.68 C 60.215 13.67 58.694 11.82 56.97 10.17 L 58.11 9 C 59.914 10.735 61.505 12.679 62.85 14.79 L 61.5 15.68 Z"/>
  <path d="M 63.22 48.07 L 61.85 47.21 C 67.179 38.452 67.632 27.57 63.05 18.4 L 64.52 17.66 C 69.347 27.345 68.856 38.832 63.22 48.07 Z"/>
</svg>