<?xml version="1.0" encoding="utf-8"?>
<svg viewBox="199 201.8 72.2 72.2" width="71.6008" height="53.0459" xmlns="http://www.w3.org/2000/svg">
  <defs>
    <style>.cls-1{fill:none;stroke:#000;stroke-linejoin:round;stroke-width:1.5px;}.cls-2{fill:#231f20;}</style>
  </defs>
  <path d="M 238.315 263.845 C 236.999 263.839 235.738 263.315 234.805 262.385 L 206.255 233.835 C 205.928 233.514 205.928 232.986 206.255 232.665 L 221.035 217.885 C 221.357 217.558 221.884 217.558 222.205 217.885 L 226.335 222.015 C 228.328 220.591 231.058 220.82 232.785 222.555 L 235.785 225.555 C 236.113 225.876 236.113 226.404 235.785 226.725 L 229.805 232.625 C 228.027 234.503 228.948 237.602 231.464 238.203 C 232.568 238.467 233.731 238.156 234.555 237.375 L 240.455 231.475 C 240.771 231.18 241.26 231.18 241.575 231.475 L 241.835 231.705 L 253.655 243.525 C 256.381 246.243 255.141 250.892 251.425 251.893 C 250.998 252.008 250.557 252.066 250.115 252.065 C 249.78 252.065 249.445 252.031 249.115 251.965 C 249.182 252.294 249.216 252.629 249.215 252.965 C 249.215 255.726 246.977 257.965 244.215 257.965 C 243.88 257.965 243.545 257.932 243.215 257.865 C 243.834 260.958 241.469 263.843 238.315 263.845 Z M 207.975 233.255 L 235.975 261.255 C 237.853 263.034 240.952 262.112 241.554 259.596 C 241.818 258.492 241.506 257.329 240.725 256.505 C 240.275 256.055 240.481 255.286 241.096 255.121 C 241.382 255.044 241.686 255.126 241.895 255.335 C 243.674 257.213 246.819 256.461 247.556 253.982 C 247.916 252.769 247.565 251.455 246.645 250.585 C 246.195 250.135 246.401 249.366 247.016 249.201 C 247.302 249.124 247.606 249.206 247.815 249.415 C 249.594 251.293 252.739 250.541 253.476 248.062 C 253.836 246.849 253.485 245.535 252.565 244.665 L 241.135 233.225 L 235.805 238.555 C 233.08 241.28 228.427 240.033 227.43 236.311 C 226.967 234.583 227.461 232.74 228.725 231.475 L 234.055 226.145 L 231.645 223.735 C 230.333 222.424 228.207 222.424 226.895 223.735 C 226.574 224.062 226.047 224.062 225.725 223.735 L 221.645 219.655 L 207.975 233.255 Z"/>
  <path d="M 231.805 264.045 C 228.642 264.046 226.273 261.145 226.905 258.045 C 226.576 258.111 226.241 258.145 225.905 258.145 C 222.742 258.146 220.373 255.245 221.005 252.145 C 220.676 252.212 220.341 252.245 220.005 252.245 C 216.156 252.252 213.743 248.09 215.662 244.753 C 215.882 244.37 216.152 244.017 216.465 243.705 L 216.855 243.315 C 217.177 242.988 217.704 242.988 218.025 243.315 L 235.765 261.055 C 236.093 261.376 236.093 261.904 235.765 262.225 L 235.375 262.615 C 234.424 263.549 233.138 264.063 231.805 264.045 Z M 229.245 256.865 C 227.6 258.86 228.731 261.889 231.282 262.317 C 232.242 262.478 233.225 262.214 233.975 261.595 L 229.245 256.865 Z M 223.335 250.955 C 221.69 252.95 222.821 255.979 225.372 256.407 C 226.332 256.568 227.315 256.304 228.065 255.685 L 223.335 250.955 Z M 217.425 245.045 C 215.78 247.04 216.911 250.069 219.462 250.497 C 220.422 250.658 221.405 250.394 222.155 249.775 L 217.425 245.045 Z"/>
  <path d="M 252.905 244.695 C 252.688 244.695 252.479 244.609 252.325 244.455 L 241.085 233.215 L 235.755 238.545 C 233.03 241.27 228.377 240.023 227.38 236.301 C 226.917 234.573 227.411 232.73 228.675 231.465 L 237.385 222.755 C 239.113 221.02 241.843 220.791 243.835 222.215 L 247.965 218.085 C 248.287 217.758 248.814 217.758 249.135 218.085 L 263.915 232.865 C 264.243 233.186 264.243 233.714 263.915 234.035 L 253.495 244.455 C 253.339 244.611 253.126 244.698 252.905 244.695 Z M 241.075 231.235 C 241.27 231.237 241.458 231.307 241.605 231.435 L 241.865 231.665 L 252.865 242.665 L 262.125 233.405 L 248.545 219.785 L 244.465 223.865 C 244.144 224.192 243.617 224.192 243.295 223.865 C 241.983 222.554 239.857 222.554 238.545 223.865 L 229.805 232.625 C 228.027 234.503 228.948 237.602 231.464 238.203 C 232.568 238.467 233.731 238.156 234.555 237.375 L 240.455 231.475 C 240.617 231.314 240.838 231.227 241.065 231.235 L 241.075 231.235 Z"/>
  <path d="M 264.385 235.335 C 264.168 235.335 263.959 235.249 263.805 235.095 L 246.905 218.195 C 246.578 217.874 246.578 217.346 246.905 217.025 L 252.585 211.345 C 252.913 211.034 253.427 211.034 253.755 211.345 L 270.655 228.245 C 270.983 228.566 270.983 229.094 270.655 229.415 L 264.975 235.095 C 264.819 235.251 264.606 235.338 264.385 235.335 Z M 248.655 217.615 L 264.385 233.345 L 268.895 228.835 L 253.165 213.105 L 248.655 217.615 Z"/>
  <rect x="302.74" y="248.88" width="1.65" height="8.88" transform="matrix(0.707107, -0.707107, 0.707107, 0.707107, -129.413622, 263.63599)"/>
  <path d="M 238.315 263.845 C 236.999 263.839 235.738 263.315 234.805 262.385 L 206.255 233.835 C 205.928 233.514 205.928 232.986 206.255 232.665 L 221.035 217.885 C 221.357 217.558 221.884 217.558 222.205 217.885 L 226.335 222.015 C 228.328 220.591 231.058 220.82 232.785 222.555 L 235.785 225.555 C 236.113 225.876 236.113 226.404 235.785 226.725 L 229.805 232.625 C 228.027 234.503 228.948 237.602 231.464 238.203 C 232.568 238.467 233.731 238.156 234.555 237.375 L 240.455 231.475 C 240.771 231.18 241.26 231.18 241.575 231.475 L 241.835 231.705 L 253.655 243.525 C 256.381 246.243 255.141 250.892 251.425 251.893 C 250.998 252.008 250.557 252.066 250.115 252.065 C 249.78 252.065 249.445 252.031 249.115 251.965 C 249.182 252.294 249.216 252.629 249.215 252.965 C 249.215 255.726 246.977 257.965 244.215 257.965 C 243.88 257.965 243.545 257.932 243.215 257.865 C 243.834 260.958 241.469 263.843 238.315 263.845 Z M 207.975 233.255 L 235.975 261.255 C 237.853 263.034 240.952 262.112 241.554 259.596 C 241.818 258.492 241.506 257.329 240.725 256.505 C 240.275 256.055 240.481 255.286 241.096 255.121 C 241.382 255.044 241.686 255.126 241.895 255.335 C 243.674 257.213 246.819 256.461 247.556 253.982 C 247.916 252.769 247.565 251.455 246.645 250.585 C 246.195 250.135 246.401 249.366 247.016 249.201 C 247.302 249.124 247.606 249.206 247.815 249.415 C 249.594 251.293 252.739 250.541 253.476 248.062 C 253.836 246.849 253.485 245.535 252.565 244.665 L 241.135 233.225 L 235.805 238.555 C 233.08 241.28 228.427 240.033 227.43 236.311 C 226.967 234.583 227.461 232.74 228.725 231.475 L 234.055 226.145 L 231.645 223.735 C 230.333 222.424 228.207 222.424 226.895 223.735 C 226.574 224.062 226.047 224.062 225.725 223.735 L 221.645 219.655 L 207.975 233.255 Z"/>
  <path d="M 205.805 235.235 C 205.588 235.235 205.379 235.149 205.225 234.995 L 199.545 229.315 C 199.218 228.994 199.218 228.466 199.545 228.145 L 216.445 211.245 C 216.767 210.918 217.294 210.918 217.615 211.245 L 223.295 216.925 C 223.623 217.246 223.623 217.774 223.295 218.095 L 206.395 234.995 C 206.239 235.151 206.026 235.238 205.805 235.235 Z M 201.295 228.735 L 205.805 233.245 L 221.535 217.515 L 217.025 213.005 L 201.295 228.735 Z"/>
  <rect x="239.91" y="252.78" width="9.68" height="1.65" transform="matrix(0.707107, -0.707107, 0.707107, 0.707107, -146.843615, 222.125995)"/>
</svg>