<?xml version="1.0" encoding="utf-8"?>
<svg viewBox="211.6 96 72.2 72.2" width="46.2658" height="64.27" xmlns="http://www.w3.org/2000/svg">
  <defs>
    <style>.cls-1{fill:none;stroke:#000;stroke-linejoin:round;stroke-width:1.5px;}.cls-2{fill:#231f20;}</style>
  </defs>
  <path d="M 257.82 137.79 L 238.42 137.79 C 238.217 137.79 238.021 137.716 237.87 137.58 C 229.122 129.686 232.145 115.288 243.33 111.58 L 243.33 103.48 L 242.33 103.48 C 240.606 103.48 239.528 101.613 240.39 100.12 C 240.79 99.427 241.53 99 242.33 99 L 254.06 99 C 255.784 99 256.862 100.867 256 102.36 C 255.6 103.053 254.86 103.48 254.06 103.48 L 252.95 103.48 L 252.95 111.58 C 264.135 115.288 267.158 129.686 258.41 137.58 C 258.249 137.725 258.037 137.801 257.82 137.79 Z M 238.71 136.14 L 257.5 136.14 C 265.2 128.911 262.187 116.057 252.076 113.003 C 252.004 112.982 251.932 112.961 251.86 112.94 C 251.505 112.841 251.26 112.518 251.26 112.15 L 251.26 102.62 C 251.26 102.167 251.627 101.8 252.08 101.8 L 254.02 101.8 C 254.474 101.8 254.758 101.308 254.531 100.915 C 254.426 100.732 254.231 100.62 254.02 100.62 L 242.32 100.62 C 241.866 100.62 241.582 101.112 241.809 101.505 C 241.914 101.688 242.109 101.8 242.32 101.8 L 244.15 101.8 C 244.603 101.8 244.97 102.167 244.97 102.62 L 244.97 112.16 C 244.97 112.528 244.725 112.851 244.37 112.95 C 234.212 115.843 230.996 128.647 238.58 135.998 C 238.633 136.049 238.686 136.1 238.74 136.15 L 238.71 136.14 Z"/>
  <path d="M 270.44 163.26 L 267.03 163.26 C 266.641 163.26 266.304 162.99 266.22 162.61 L 261.46 141.09 L 234.82 141.09 L 230.04 162.62 C 229.956 162.996 229.625 163.265 229.24 163.27 L 225.82 163.27 C 225.295 163.27 224.905 162.783 225.02 162.27 L 230.47 138.04 C 230.749 136.942 231.737 136.172 232.87 136.17 L 263.4 136.17 C 264.524 136.174 265.505 136.933 265.79 138.02 L 271.25 162.28 C 271.351 162.789 270.959 163.264 270.44 163.26 Z M 267.7 161.62 L 269.42 161.62 L 264.2 138.39 C 264.098 138.039 263.775 137.799 263.41 137.8 L 232.87 137.8 C 232.492 137.798 232.162 138.054 232.07 138.42 L 226.82 161.62 L 228.54 161.62 L 233.3 140.1 C 233.384 139.72 233.721 139.45 234.11 139.45 L 262.11 139.45 C 262.497 139.451 262.83 139.722 262.91 140.1 L 267.7 161.62 Z"/>
  <path d="M 256.24 133.95 L 240.03 133.95 C 239.791 133.948 239.565 133.842 239.41 133.66 C 237.611 131.568 236.621 128.9 236.62 126.14 C 236.622 124.618 236.928 123.112 237.52 121.71 C 237.648 121.403 237.947 121.202 238.28 121.2 L 258.02 121.2 C 258.353 121.2 258.654 121.401 258.78 121.71 C 259.373 123.112 259.679 124.618 259.68 126.14 C 259.65 128.895 258.636 131.548 256.82 133.62 C 256.682 133.807 256.471 133.927 256.24 133.95 Z M 240.41 132.3 L 255.82 132.3 C 257.216 130.55 257.978 128.379 257.98 126.14 C 257.981 125.019 257.788 123.906 257.41 122.85 L 238.82 122.85 C 238.442 123.906 238.249 125.019 238.25 126.14 C 238.252 128.379 239.014 130.55 240.41 132.3 Z"/>
  <path d="M 252.82 163.26 L 243.41 163.26 C 241.753 163.26 240.41 161.917 240.41 160.26 L 240.41 157.51 C 240.41 155.853 241.753 154.51 243.41 154.51 L 252.82 154.51 C 254.477 154.51 255.82 155.853 255.82 157.51 L 255.82 160.26 C 255.82 161.917 254.477 163.26 252.82 163.26 Z M 243.41 156.12 C 242.656 156.125 242.045 156.736 242.04 157.49 L 242.04 160.24 C 242.045 160.994 242.656 161.605 243.41 161.61 L 252.82 161.61 C 253.574 161.605 254.185 160.994 254.19 160.24 L 254.19 157.49 C 254.185 156.736 253.574 156.125 252.82 156.12 L 243.41 156.12 Z"/>
  <path d="M 248.13 156.11 C 245.407 156.083 243.207 153.883 243.18 151.16 C 243.18 148.64 247.07 144.24 247.51 143.75 C 247.666 143.578 247.888 143.479 248.12 143.48 C 248.352 143.479 248.574 143.578 248.73 143.75 C 249.17 144.24 253.06 148.64 253.06 151.16 C 253.033 153.875 250.845 156.072 248.13 156.11 Z M 248.13 145.57 C 246.66 147.33 244.83 149.92 244.83 151.17 C 244.97 153.706 247.803 155.14 249.93 153.751 C 250.809 153.177 251.362 152.218 251.42 151.17 C 251.43 149.92 249.61 147.33 248.14 145.57 L 248.13 145.57 Z"/>
</svg>