<?xml version="1.0" encoding="utf-8"?>
<svg viewBox="205.5 1.4 72.2 72.2" width="59px" height="62.46" xmlns="http://www.w3.org/2000/svg">
  <defs>
    <style>.cls-1{fill:none;stroke:#000;stroke-linejoin:round;stroke-width:1.5px;}.cls-2{fill:#231f20;}</style>
  </defs>
  <path d="M 241.24 68.46 C 240.955 68.461 240.69 68.313 240.54 68.07 L 233.6 56.69 C 233.521 56.561 233.479 56.412 233.48 56.26 L 233.48 20.36 C 233.48 19.907 233.847 19.54 234.3 19.54 L 248.18 19.54 C 248.633 19.54 249 19.907 249 20.36 L 249 56.26 C 249 56.412 248.959 56.56 248.88 56.69 L 241.93 68.07 C 241.782 68.31 241.522 68.457 241.24 68.46 Z M 235.13 56.03 L 241.24 66.03 L 247.35 56.03 L 247.35 21.19 L 235.13 21.19 L 235.13 56.03 Z"/>
  <path d="M 248.18 15.37 L 234.31 15.37 C 233.857 15.37 233.49 15.003 233.49 14.55 L 233.49 10.89 C 233.49 8.193 235.673 6.006 238.37 6 L 244.12 6 C 246.821 6 249.01 8.189 249.01 10.89 L 249.01 14.54 C 249.016 15.001 248.641 15.376 248.18 15.37 Z M 235.13 13.72 L 247.36 13.72 L 247.36 10.89 C 247.36 9.101 245.909 7.65 244.12 7.65 L 238.37 7.65 C 236.581 7.65 235.13 9.101 235.13 10.89 L 235.13 13.72 Z"/>
  <path d="M 248.18 21.19 L 234.31 21.19 C 233.857 21.19 233.49 20.823 233.49 20.37 L 233.49 14.54 C 233.49 14.087 233.857 13.72 234.31 13.72 L 248.19 13.72 C 248.643 13.72 249.01 14.087 249.01 14.54 L 249.01 20.36 C 249.016 20.821 248.641 21.196 248.18 21.19 Z M 235.13 19.54 L 247.36 19.54 L 247.36 15.37 L 235.13 15.37 L 235.13 19.54 Z"/>
  <path d="M 234.81 56.92 L 233.81 55.61 L 240.42 50.53 L 240.42 20.36 L 242.07 20.36 L 242.07 50.94 C 242.07 51.195 241.952 51.435 241.75 51.59 L 234.81 56.92 Z"/>
  <rect x="276.96" y="79.04" width="1.65" height="8.75" transform="matrix(0.608762, -0.793353, 0.793353, 0.608762, 9.440004, 223.21001)"/>
  <rect x="237.07" y="59.97" width="8.34" height="1.65"/>
  <rect x="212" y="66.81" width="58.48" height="1.65"/>
  <path d="M 224.29 63.88 L 219.38 63.31 C 219.45 62.69 219.56 62.06 219.69 61.45 L 224.53 62.45 C 224.42 62.94 224.34 63.41 224.29 63.88 Z M 225.99 58.52 L 221.64 56.19 C 221.94 55.64 222.26 55.1 222.64 54.58 L 226.75 57.33 C 226.46 57.69 226.21 58.1 225.99 58.51 L 225.99 58.52 Z M 229.54 54.19 L 226.36 50.4 C 226.84 50 227.36 49.62 227.85 49.26 L 230.67 53.32 C 230.28 53.56 229.93 53.85 229.54 54.19 Z"/>
  <path d="M 258.2 63.88 C 258.15 63.41 258.07 62.94 257.97 62.49 L 262.81 61.49 C 262.94 62.1 263.05 62.73 263.12 63.35 L 258.2 63.88 Z M 256.5 58.52 C 256.28 58.11 256.03 57.7 255.77 57.31 L 259.93 54.55 C 260.28 55.07 260.6 55.61 260.93 56.16 L 256.5 58.52 Z M 252.93 54.19 C 252.57 53.89 252.19 53.6 251.8 53.33 L 254.63 49.19 C 255.14 49.55 255.63 49.93 256.12 50.33 L 252.93 54.19 Z"/>
</svg>