<?xml version="1.0" encoding="utf-8"?>
<svg viewBox="404.2 96 72.2 72.2" width="48.1104" height="64.2201" xmlns="http://www.w3.org/2000/svg">
  <defs>
    <style>.cls-1{fill:none;stroke:#000;stroke-linejoin:round;stroke-width:1.5px;}.cls-2{fill:#231f20;}</style>
  </defs>
  <path d="M 444.45 158.813 L 431.82 158.813 L 431.82 157.43 L 443.62 157.43 L 443.62 132.914 L 445.28 132.914 L 445.28 158.126 C 445.28 158.508 444.907 158.817 444.45 158.813 Z" style=""/>
  <path d="M 431.28 153.76 L 417.66 153.76 C 417.207 153.76 416.84 153.453 416.84 153.073 L 416.84 149.529 C 416.3 149.089 415.996 148.484 416 147.853 L 416 133.777 C 415.994 132.515 417.205 131.487 418.71 131.473 C 419.075 131.472 419.436 131.535 419.77 131.657 L 419.77 129.906 C 419.759 128.643 420.972 127.611 422.48 127.602 C 422.848 127.6 423.212 127.663 423.55 127.786 L 423.55 127.727 C 423.55 125.979 425.808 124.887 427.615 125.761 C 428.453 126.167 428.97 126.916 428.97 127.727 C 429.308 127.604 429.672 127.542 430.04 127.543 C 431.548 127.552 432.761 128.584 432.75 129.847 L 432.75 141.955 L 433.03 141.603 L 433.03 137.48 C 433.03 135.732 435.288 134.64 437.095 135.514 C 437.933 135.919 438.45 136.669 438.45 137.48 L 438.45 143.848 C 438.458 144.477 438.162 145.081 437.63 145.524 L 432.15 151.389 L 432.15 153.132 C 432.113 153.505 431.726 153.785 431.28 153.76 Z M 418.48 152.378 L 430.48 152.378 L 430.48 151.088 C 430.481 150.932 430.544 150.781 430.66 150.66 L 436.29 144.661 C 436.326 144.612 436.37 144.567 436.42 144.527 C 436.654 144.352 436.788 144.102 436.79 143.84 L 436.79 137.472 C 436.79 136.788 435.907 136.361 435.2 136.703 C 434.872 136.861 434.67 137.155 434.67 137.472 L 434.67 141.804 C 434.67 141.941 434.621 142.075 434.53 142.189 L 432.6 144.569 C 432.259 145.014 431.471 144.983 431.181 144.513 C 431.118 144.411 431.087 144.298 431.09 144.183 L 431.09 129.839 C 431.09 129.155 430.207 128.728 429.5 129.07 C 429.172 129.228 428.97 129.522 428.97 129.839 L 428.97 139.139 C 428.9 139.671 428.169 139.941 427.654 139.624 C 427.466 139.508 427.345 139.333 427.32 139.139 L 427.32 127.727 C 427.32 127.044 426.437 126.616 425.73 126.958 C 425.402 127.117 425.2 127.41 425.2 127.727 L 425.2 139.139 C 425.13 139.671 424.399 139.941 423.884 139.624 C 423.696 139.508 423.575 139.333 423.55 139.139 L 423.55 129.923 C 423.55 129.239 422.667 128.812 421.96 129.153 C 421.632 129.312 421.43 129.605 421.43 129.923 L 421.43 139.139 C 421.36 139.671 420.629 139.941 420.114 139.624 C 419.926 139.508 419.805 139.333 419.78 139.139 L 419.78 133.785 C 419.78 133.102 418.897 132.674 418.19 133.016 C 417.862 133.175 417.66 133.468 417.66 133.785 L 417.66 147.862 C 417.658 148.169 417.838 148.458 418.14 148.633 C 418.364 148.762 418.499 148.974 418.5 149.202 L 418.5 152.378 L 418.48 152.378 Z" style=""/>
  <path d="M 431.82 158.813 L 416.96 158.813 C 416.507 158.813 416.14 158.505 416.14 158.126 L 416.14 153.098 C 416.14 152.719 416.507 152.411 416.96 152.411 L 431.82 152.411 C 432.273 152.411 432.64 152.719 432.64 153.098 L 432.64 158.126 C 432.64 158.505 432.273 158.813 431.82 158.813 Z M 417.82 157.43 L 431.03 157.43 L 431.03 153.76 L 417.78 153.76 L 417.78 157.43 L 417.82 157.43 Z" style=""/>
  <path d="M 462.45 140.069 L 448.81 140.069 C 448.357 140.069 447.99 139.762 447.99 139.382 L 447.99 137.707 L 442.51 132.001 C 441.983 131.575 441.683 130.989 441.68 130.375 L 441.68 124.158 C 441.68 122.41 443.938 121.318 445.745 122.192 C 446.583 122.597 447.1 123.347 447.1 124.158 L 447.1 128.163 L 447.38 128.498 L 447.38 116.692 C 447.383 115.067 449.364 113.97 451.15 114.606 C 451.15 112.858 453.408 111.766 455.215 112.64 C 456.053 113.045 456.57 113.795 456.57 114.606 L 456.57 114.648 C 458.356 114.012 460.337 115.109 460.34 116.734 L 460.34 118.41 C 462.126 117.774 464.107 118.871 464.11 120.496 L 464.11 134.238 C 464.122 134.87 463.817 135.478 463.27 135.913 L 463.27 139.366 C 463.281 139.752 462.911 140.069 462.45 140.069 Z M 449.63 138.687 L 461.63 138.687 L 461.63 135.603 C 461.632 135.374 461.771 135.16 462 135.034 C 462.294 134.869 462.47 134.592 462.47 134.296 L 462.47 120.555 C 462.47 119.871 461.587 119.444 460.88 119.786 C 460.552 119.945 460.35 120.238 460.35 120.555 L 460.35 125.783 C 460.28 126.316 459.549 126.585 459.034 126.268 C 458.846 126.153 458.725 125.977 458.7 125.783 L 458.7 116.776 C 458.7 116.093 457.817 115.665 457.11 116.007 C 456.782 116.166 456.58 116.459 456.58 116.776 L 456.58 125.783 C 456.51 126.316 455.779 126.585 455.264 126.268 C 455.076 126.153 454.955 125.977 454.93 125.783 L 454.93 114.64 C 454.93 113.956 454.047 113.529 453.34 113.87 C 453.012 114.029 452.81 114.322 452.81 114.64 L 452.81 125.775 C 452.74 126.307 452.009 126.576 451.494 126.259 C 451.306 126.144 451.185 125.969 451.16 125.775 L 451.16 116.692 C 451.16 116.009 450.277 115.581 449.57 115.923 C 449.242 116.082 449.04 116.375 449.04 116.692 L 449.04 130.677 C 449.049 131.206 448.372 131.544 447.82 131.287 C 447.708 131.234 447.612 131.16 447.54 131.071 L 445.61 128.75 C 445.513 128.634 445.461 128.497 445.46 128.356 L 445.46 124.166 C 445.46 123.483 444.577 123.055 443.87 123.397 C 443.542 123.556 443.34 123.849 443.34 124.166 L 443.34 130.383 C 443.337 130.636 443.469 130.876 443.7 131.037 C 443.753 131.076 443.8 131.122 443.84 131.171 L 449.46 137.036 C 449.575 137.158 449.639 137.308 449.64 137.464 L 449.64 138.712 L 449.63 138.687 Z" style=""/>
  <path d="M 443.61 132.738 L 431.91 132.738 C 431.457 132.738 431.09 132.43 431.09 132.051 L 431.09 129.839 C 431.107 129.336 430.631 128.918 430.03 128.909 C 429.734 128.906 429.452 129.014 429.26 129.202 C 429.103 129.36 428.864 129.444 428.62 129.428 C 428.378 129.423 428.151 129.328 428 129.169 L 427.49 128.641 C 427.372 128.517 427.308 128.363 427.31 128.205 L 427.31 127.727 C 427.323 127.245 426.884 126.837 426.31 126.797 L 426.18 126.797 C 425.91 126.813 425.648 126.716 425.48 126.538 L 423.65 124.636 C 423.126 124.209 422.831 123.622 422.83 123.01 L 422.83 116.793 C 422.83 115.045 425.088 113.953 426.895 114.827 C 427.733 115.232 428.25 115.982 428.25 116.793 L 428.25 120.806 L 428.53 121.142 L 428.53 109.361 C 428.533 107.735 430.514 106.639 432.3 107.275 C 432.3 105.527 434.558 104.434 436.365 105.308 C 437.203 105.714 437.72 106.463 437.72 107.275 L 437.72 107.317 C 439.506 106.681 441.487 107.777 441.49 109.403 L 441.49 111.079 C 443.276 110.443 445.257 111.539 445.26 113.165 L 445.26 122.524 C 445.26 122.71 445.17 122.889 445.01 123.018 C 444.846 123.143 444.632 123.212 444.41 123.211 L 444.33 123.211 C 443.768 123.238 443.329 123.628 443.33 124.099 L 443.33 130.316 C 443.327 130.569 443.459 130.809 443.69 130.97 C 443.743 131.009 443.79 131.055 443.83 131.104 L 444.27 131.556 C 444.719 131.938 444.507 132.583 443.888 132.718 C 443.798 132.738 443.704 132.744 443.61 132.738 Z M 432.73 131.355 L 441.95 131.355 C 441.768 131.048 441.672 130.71 441.67 130.367 L 441.67 124.15 C 441.671 123.141 442.465 122.254 443.62 121.971 L 443.62 113.215 C 443.62 112.532 442.737 112.104 442.03 112.446 C 441.702 112.605 441.5 112.898 441.5 113.215 L 441.5 118.444 C 441.43 118.976 440.699 119.245 440.184 118.928 C 439.996 118.813 439.875 118.637 439.85 118.444 L 439.85 109.436 C 439.85 108.753 438.967 108.325 438.26 108.667 C 437.932 108.826 437.73 109.119 437.73 109.436 L 437.73 118.444 C 437.66 118.976 436.929 119.245 436.414 118.928 C 436.226 118.813 436.105 118.637 436.08 118.444 L 436.08 107.308 C 436.08 106.624 435.197 106.197 434.49 106.539 C 434.162 106.698 433.96 106.991 433.96 107.308 L 433.96 118.444 C 433.89 118.976 433.159 119.245 432.644 118.928 C 432.456 118.813 432.335 118.637 432.31 118.444 L 432.31 109.361 C 432.31 108.677 431.427 108.25 430.72 108.592 C 430.392 108.75 430.19 109.044 430.19 109.361 L 430.19 123.37 C 430.199 123.899 429.522 124.238 428.97 123.98 C 428.858 123.928 428.762 123.854 428.69 123.764 L 426.75 121.46 C 426.653 121.345 426.601 121.207 426.6 121.066 L 426.6 116.877 C 426.6 116.193 425.717 115.766 425.01 116.108 C 424.682 116.266 424.48 116.559 424.48 116.877 L 424.48 123.094 C 424.477 123.346 424.609 123.586 424.84 123.747 C 424.893 123.787 424.94 123.832 424.98 123.881 L 426.53 125.49 C 427.913 125.622 428.959 126.603 428.96 127.769 C 429.297 127.643 429.661 127.577 430.03 127.577 C 431.538 127.586 432.751 128.617 432.74 129.881 L 432.74 131.406 L 432.73 131.355 Z" style=""/>
  <path d="M 463.28 158.813 L 448.15 158.813 C 447.697 158.813 447.33 158.505 447.33 158.126 L 447.33 139.382 C 447.33 139.003 447.697 138.695 448.15 138.695 L 463.28 138.695 C 463.733 138.695 464.1 139.003 464.1 139.382 L 464.1 158.126 C 464.1 158.505 463.733 158.813 463.28 158.813 Z M 448.97 157.43 L 462.46 157.43 L 462.46 140.069 L 448.98 140.069 L 448.98 157.43 L 448.97 157.43 Z" style=""/>
</svg>